<?xml version="1.0" standalone="no"?>
<!DOCTYPE svg PUBLIC "-//W3C//DTD SVG 1.1//EN" "http://www.w3.org/Graphics/SVG/1.1/DTD/svg11.dtd" >
<svg>
<metadata>
Created by FontForge 20090914 at Wed Dec 23 21:10:14 2020
 By www-data
&#194;&#169;95-97 Diai JS Font Collection Arbat_Di-Bold; Win95 encoding
</metadata>
<defs>
<font id="ArbatDiBold" horiz-adv-x="1142" >
  <font-face 
    font-family="ArbatDi"
    font-weight="700"
    font-stretch="normal"
    units-per-em="1000"
    panose-1="3 0 0 0 0 0 0 0 0 0"
    ascent="800"
    descent="-200"
    x-height="416"
    cap-height="701"
    bbox="-86.002 -266 1307 906"
    underline-thickness="50"
    underline-position="-55"
    unicode-range="U+0020-U+25CF"
  />
<missing-glyph horiz-adv-x="500" 
d="M63 0v876h375v-876h-375zM125 63h250v751h-250v-751z" />
    <glyph glyph-name=".notdef" horiz-adv-x="500" 
d="M63 0v876h375v-876h-375zM125 63h250v751h-250v-751z" />
    <glyph glyph-name="space" unicode=" " horiz-adv-x="351" 
 />
    <glyph glyph-name="exclam" unicode="!" horiz-adv-x="335" 
d="M285 588c-1.33301 -10 -3.33301 -20 -6 -30l-114 -376h-56c-15.333 0 -23 5.66699 -23 17c0 4 2.66699 18 8 42l69 312c3.33301 16 6.83301 28.5 10.5 37.5s11.5 13.5 23.5 13.5h5c2 -0.666992 3.66699 -1 5 -1h42c19.333 0 31.333 -4.33301 36 -13v-2zM154 57
c0 -18.667 -6.16797 -33.668 -18.501 -45.001s-28.166 -17 -47.499 -17c-25.333 0 -38 11 -38 33c0 18.667 5.5 35.334 16.5 50.001s25.5 22 43.5 22c12 0 22.333 -4.16699 31 -12.5s13 -18.5 13 -30.5z" />
    <glyph glyph-name="quotedbl" unicode="&#x22;" horiz-adv-x="246" 
d="M210 556l-29 -0.000976562l-29 104c-4 14.667 -6 28.334 -6 41.001c0 29.333 16.333 44 49 44c33.333 0 50 -15 50 -45c0 -12 -2 -25.333 -6 -40zM65 555.999l-29 -0.000976562l-29 104c-4 14.667 -6 28.334 -6 41.001c0 29.333 16.333 44 49 44c33.333 0 50 -15 50 -45
c0 -12 -2 -25.333 -6 -40z" />
    <glyph glyph-name="numbersign" unicode="#" horiz-adv-x="512" 
d="M512 386l-15 -83h-58l-40 -168h56l-21 -85h-55l-27 -116h-65l27 116h-170l-28 -116h-65l27 116h-78l22 85h76l40 168h-73l20 83h72l28 116h64l-26 -116h170l26 116h65l-27 -116h55zM373 303h-170l-40 -168h170z" />
    <glyph glyph-name="dollar" unicode="$" horiz-adv-x="796" 
d="M796 643l-21 -72c-78.667 13.333 -138.667 20 -180 20c-22 0 -44.333 -1.33301 -67 -4l-53 -225c76 0 137.167 -9.66699 183.5 -29s69.5 -55 69.5 -107c0 -53.333 -25.667 -105.666 -77 -156.999c-46 -46 -97 -78 -153 -96c-32.667 -10.667 -68.667 -16 -108 -16
l-29 -109h-108l24 107c-1.33301 0.666992 -4 1 -8 1c-23.333 0 -56 3.33301 -98 10c-64.667 10 -121.667 29.333 -171 58l27 69c30 -10 72.667 -19.333 128 -28s103.333 -13 144 -13h5l45 197c-3.33301 0 -13.333 1.66699 -30 5c-36.667 7.33301 -63 13 -79 17
c-30 7.33301 -55.667 15.666 -77 24.999c-44 18.667 -66 57.667 -66 117c0 60 31.667 115.333 95 166s153.333 83 270 97l17 74h84l-13 -73c102.667 0 184.667 -11.333 246 -34zM433 570c-64 -15.333 -117.332 -35.667 -159.999 -61c-36 -20.667 -54 -50.334 -54 -89.001
c0 -21.333 12.667 -37.666 38 -48.999c19.333 -8 41.666 -12 66.999 -12h38c8 0 14 0.666992 18 2zM604.001 191.999c0 21.333 -9.66797 35.667 -29.001 43c-7.33301 3.33301 -25.666 6.66602 -54.999 9.99902c-18 2 -33.667 3 -47 3h-26l-34 -181
c4 0.666992 11 2.33398 21 5.00098c113.333 30.667 170 70.667 170 120z" />
    <glyph glyph-name="percent" unicode="%" horiz-adv-x="697" 
d="M364 568c0 -58 -21 -104.667 -63 -140c-44 -37.333 -92.667 -56 -146 -56c-46 0 -80 10 -102 30c-35.333 32 -53 74.667 -53 128c0 42 21.667 84.333 65 127c36 35.333 78.333 53 127 53c114.667 0 172 -47.333 172 -142zM262 573c0 49.333 -20.001 74 -60.001 74
c-31.333 0 -56.666 -13.667 -75.999 -41c-18 -24 -27 -52.333 -27 -85c0 -53.333 21.333 -80 64 -80c33.333 0 59 14.333 77 43c14.667 24 22 53.667 22 89zM643.999 688c0 -14 -11.3311 -32.6689 -33.998 -56.002c-34 -35.333 -81.667 -99 -143 -191l-64 -100l-137 -213
c-28.667 -44.667 -60 -104 -94 -178c-4.66699 -11.333 -12.667 -27.666 -24 -48.999c-8 -11.333 -16.333 -17 -25 -17c-29.333 0 -44 9.66699 -44 29c0 17.333 9 44 27 80l62 125c3.33301 6.66699 8.66602 16.334 15.999 29.001c86 157.333 164 290 234 398
c19.333 30.667 50.666 75.667 93.999 135c33.333 40.667 55 61 65 61c14 0 28.667 -5.5 44 -16.5s23 -23.167 23 -36.5zM697.001 174.998c0 -42 -13.502 -79.667 -40.502 -113s-60.833 -56.666 -101.5 -69.999c-21.333 -6.66699 -46 -10 -74 -10
c-49.333 0 -86.5 15 -111.5 45s-37.5 63.667 -37.5 101c0 54 21.333 99.333 64 136s91.334 55 146.001 55c46.667 0 87.334 -16.333 122.001 -49c22 -20.667 33 -52.334 33 -95.001zM593.999 173.998c0 54.667 -20.001 82.001 -60.001 82.001h-6
c-18.667 0 -36.167 -6.5 -52.5 -19.5s-27.666 -28.333 -33.999 -46s-9.5 -38.167 -9.5 -61.5c0 -52.667 23.333 -79 70 -79c28 0 51 14 69 42c15.333 25.333 23 52.666 23 81.999z" />
    <glyph glyph-name="ampersand" unicode="&#x26;" horiz-adv-x="710" 
d="M685 60l-32.001 -80.001c-67.333 10.667 -125.666 36.667 -174.999 78c-46 -36 -98.333 -58.667 -157 -68c-34.667 -5.33301 -61.334 -8 -80.001 -8c-63.333 0 -111.333 13 -144 39c-48 38 -72 84 -72 138c0 48 25.333 94 76 138c43.333 36.667 91.333 62.667 144 78
c-3.33301 17.333 -5 44.333 -5 81c0 58.667 29.333 108.334 88 149.001c52.667 36.667 109.334 55 170.001 55c40.667 0 72.334 -8.66699 95.001 -26c35.333 -27.333 53 -60.333 53 -99c0 -58 -34.333 -110.333 -103 -157c-40 -27.333 -96.333 -48.333 -169 -63
c19.333 -66.667 54 -116.667 104 -150c49.333 38 94.666 87.333 135.999 148l71 -41c-28 -56 -69.667 -108.667 -125 -158c29.333 -19.333 71 -37.333 125 -54zM542.999 533.999c0 14 -7.33398 25.001 -22.001 33.001c-11.333 6 -24.666 9 -39.999 9
c-34.667 0 -64.5 -14.667 -89.5 -44s-37.5 -62 -37.5 -98c0 -16.667 1.33301 -30.334 4 -41.001c63.333 15.333 113 41 149 77c24 24 36 45.333 36 64zM391.998 113c-29.333 18.667 -54.001 42.668 -74.001 72.001c-13.333 19.333 -29.666 49.666 -48.999 90.999
c-31.333 -12 -58.333 -26.667 -81 -44c-30.667 -24 -46 -49 -46 -75c0 -26.667 12.333 -48 37 -64c22 -14 47 -21 75 -21c52.667 0 98.667 13.667 138 41z" />
    <glyph glyph-name="quotesingle" unicode="'" horiz-adv-x="205" 
d="M116 553h-36l-25 121c-4 18 -5.66699 31 -5 39c7.33301 16.667 19 25 35 25h42c5.33301 0 12 -2.66699 20 -8c5.33301 -4 8 -13.667 8 -29c0 -11.333 -1 -20.333 -3 -27z" />
    <glyph glyph-name="parenleft" unicode="(" horiz-adv-x="387" 
d="M362 600c-0.666992 -3.33301 -1.99902 -7.33398 -3.99902 -12.001c-20 -24.667 -48.667 -62.667 -86 -114c-27.333 -44 -51.333 -89.667 -72 -137c-5.33301 -12.667 -11.333 -28.667 -18 -48c-17.333 -52 -26 -117.333 -26 -196c0 -27.333 5 -60 15 -98
c0.666992 -1.33301 3 -8 7 -20c3.33301 -8.66699 5 -15.667 5 -21c0 -11.333 -19.667 -17 -59 -17c-32.667 0 -56.334 67.667 -71.001 203c-2 22 -3 44 -3 66c0 88.667 42.667 184.334 128 287.001c14 17.333 33.333 40 58 68l25.5 30.5c9 10.333 18.167 17.833 27.5 22.5
c7.33301 3.33301 23.333 5 48 5c4.66699 0 8.66699 -0.333008 12 -1c6 -4 9.33301 -6.5 10 -7.5s1.66699 -4.5 3 -10.5z" />
    <glyph glyph-name="parenright" unicode=")" horiz-adv-x="387" 
d="M337 355c0 -95.333 -57.333 -209.669 -172 -343.002c-14.667 -18 -33 -38 -55 -60c-18 -10 -38 -15 -60 -15c3.33301 0 -0.666992 0.666992 -12 2c-8.66699 6 -13 12 -13 18c0 8.66699 6.66699 19.667 20 33c16.667 17.333 34.667 40.333 54 69
c82.667 124 125.667 233.667 129 329c2 58 3 88.333 3 91c0 16.667 -5 44.334 -15 83.001l-2 2c-0.666992 4 -2.5 10.333 -5.5 19s-4.5 15.334 -4.5 20.001c0 6.66699 5 12 15 16h44c26.667 0 47 -41.333 61 -124c8.66699 -53.333 13 -100 13 -140z" />
    <glyph glyph-name="asterisk" unicode="*" horiz-adv-x="266" 
d="M266 625l-1.00098 -4.00098c-8 -6 -19.833 -12 -35.5 -18s-33.5 -15.667 -53.5 -29c14 -14 23 -28.333 27 -43v-4c2 -2 4.66699 -12 8 -30c3.33301 -15.333 5 -25.666 5 -30.999c0 -16 -5.33301 -24 -16 -24c-10 0 -18 5.66699 -24 17s-11.333 22 -16 32
c-8 12.667 -17 25 -27 37l-9 9c-37.333 -15.333 -62 -29.333 -74 -42c-5.33301 -6 -13.333 -13.333 -24 -22h-2c-4.66699 0 -11.334 3 -20.001 9l-4 7c0 14 18.667 36.667 56 68c8.66699 7.33301 18.667 17.333 30 30c-9.33301 5.33301 -19.833 16.166 -31.5 32.499
s-19.167 30.5 -22.5 42.5l1 3l51 35c9.33301 0 30 -22 62 -66c18.667 20.667 40.334 35 65.001 43c14.667 4.66699 23.334 7 26.001 7h3l5 -4c12.667 -21.333 19.667 -39.666 21 -54.999z" />
    <glyph glyph-name="plus" unicode="+" horiz-adv-x="757" 
d="M707 385l-27 -86h-275l-73 -271h-86l68 271h-264l23 86h261l67 263h87l-67 -263h286z" />
    <glyph glyph-name="comma" unicode="," horiz-adv-x="276" 
d="M226 51c-6 -12.667 -20.668 -37.667 -44.001 -75c-3.33301 -6 -8.66602 -14.667 -15.999 -26c-20 -27.333 -46.333 -54 -79 -80l-37 45c50.667 65.333 85 124.333 103 177z" />
    <glyph glyph-name="hyphen" unicode="-" horiz-adv-x="387" 
d="M350 238c0 -7.33301 -4.50293 -19.332 -13.5029 -35.999s-18.5 -26.334 -28.5 -29.001s-35.333 -4.66699 -76 -6c-54 -2 -84 -3 -90 -3h-65c-1.33301 0 -3.66602 0.333008 -6.99902 1s-5.66602 1 -6.99902 1c-12 0 -21.333 4.66699 -28 14v4
c0 -2.66699 1 1.66602 3 12.999c4 22.667 6 34.334 6 35.001c4.66699 12.667 13 19 25 19s21 -1.66699 27 -5c0.666992 0 8.16699 -0.666992 22.5 -2s28.5 -2 42.5 -2h100c2 0 9.33301 1.16699 22 3.5s19.334 3.83301 20.001 4.5c12 2.66699 23 4 33 4
c9.33301 0 14 -5.33301 14 -16z" />
    <glyph glyph-name="hyphen" unicode="&#x2010;" horiz-adv-x="387" 
d="M350 238c0 -7.33301 -4.50293 -19.332 -13.5029 -35.999s-18.5 -26.334 -28.5 -29.001s-35.333 -4.66699 -76 -6c-54 -2 -84 -3 -90 -3h-65c-1.33301 0 -3.66602 0.333008 -6.99902 1s-5.66602 1 -6.99902 1c-12 0 -21.333 4.66699 -28 14v4
c0 -2.66699 1 1.66602 3 12.999c4 22.667 6 34.334 6 35.001c4.66699 12.667 13 19 25 19s21 -1.66699 27 -5c0.666992 0 8.16699 -0.666992 22.5 -2s28.5 -2 42.5 -2h100c2 0 9.33301 1.16699 22 3.5s19.334 3.83301 20.001 4.5c12 2.66699 23 4 33 4
c9.33301 0 14 -5.33301 14 -16z" />
    <glyph glyph-name="period" unicode="." horiz-adv-x="228" 
d="M178 57c0 -22.667 -7.49902 -40.832 -22.499 -54.499s-33.833 -20.5 -56.5 -20.5c-14 0 -25.667 4.16699 -35 12.5s-14 19.166 -14 32.499c0 22 6.66699 41.667 20 59s30.666 26 51.999 26c15.333 0 28.5 -5.33301 39.5 -16s16.5 -23.667 16.5 -39z" />
    <glyph glyph-name="slash" unicode="/" horiz-adv-x="409" 
d="M434 689l-388 -874l-71 25l394 876z" />
    <glyph glyph-name="zero" unicode="0" horiz-adv-x="648" 
d="M612 375c0 -77.333 -26.999 -151.333 -80.999 -222c-72.667 -95.333 -156.334 -154 -251.001 -176c-21.333 -4.66699 -41.333 -7 -60 -7c-2.66699 0 -5 0.666992 -7 2c-45.333 3.33301 -86.666 27 -123.999 71c-34.667 40 -52 97 -52 171c0 97.333 25.667 178.333 77 243
c39.333 50 84.666 90.333 135.999 121c58.667 34.667 116.667 52 174 52c48 0 86.333 -15.333 115 -46c48.667 -53.333 73 -123 73 -209zM503.001 403l-1.00098 25.999c-1.33301 40.667 -15 72.667 -41 96c-12.667 12 -30.667 18 -54 18
c-53.333 0 -100.666 -22 -141.999 -66c-35.333 -38 -64 -80.333 -86 -127c-24 -51.333 -36 -100.666 -36 -147.999c0 -50.667 9.66699 -85.667 29 -105c21.333 -22 43.333 -34.667 66 -38c2.66699 0 6.66699 -0.666992 12 -2h13c62.667 0 121.334 42.333 176.001 127
c45.333 71.333 66.666 144.333 63.999 219z" />
    <glyph glyph-name="one" unicode="1" horiz-adv-x="431" 
d="M406 630l-160.001 -630h-108l120 467c-65.333 -51.333 -126.666 -89 -183.999 -113l-24 66c23.333 12 59.333 36.667 108 74c26.667 20.667 62.667 52.667 108 96c13.333 12.667 25.333 26 36 40h104z" />
    <glyph glyph-name="two" unicode="2" horiz-adv-x="659" 
d="M634 464c0 -80 -50.998 -153.667 -152.998 -221c-59.333 -39.333 -139 -79 -239 -119c-34.667 -14 -66 -24.333 -94 -31c38.667 -18.667 100 -28 184 -28c53.333 0 110.333 9.66699 171 29c3.33301 0.666992 18 6.33398 44 17.001c2.66699 0 6.66699 0.666992 12 2l4 -2
v-5c0 -6 -0.166992 -10.333 -0.5 -13s-3.83301 -13.334 -10.5 -32.001c-11.333 -32.667 -52 -57 -122 -73c-48.667 -11.333 -97.334 -17 -146.001 -17c-40.667 0 -94.334 9.66699 -161.001 29l-33 12c-22 6.66699 -43.667 10 -65 10l30 110c70.667 18.667 150 51.667 238 99
c100 54.667 166.333 106 199 154c15.333 22.667 23 47.667 23 75c0 24.667 -8.66699 44.834 -26 60.501s-38.666 23.5 -63.999 23.5c-26 0 -58.833 -7.5 -98.5 -22.5s-86.834 -50.5 -141.501 -106.5l-51 64c26.667 34 61.667 65 105 93c46 29.333 89 46.666 129 51.999
c32 4 56.333 6 73 6c48 0 91.667 -15.333 131 -46c41.333 -33.333 62 -73.333 62 -120z" />
    <glyph glyph-name="three" unicode="3" horiz-adv-x="621" 
d="M596 490c0 -3.33301 -1.66992 -12.6689 -5.00293 -28.002c-0.666992 -4 -2 -10.333 -4 -19c-0.666992 -2 -4 -8 -10 -18c-38 -63.333 -98.667 -101.666 -182 -114.999c40 0 74 -12.5 102 -37.5s42 -57.167 42 -96.5c0 -54.667 -26.667 -99.667 -80 -135
c-70 -46.667 -152 -70 -246 -70c-28.667 0 -61.334 4.66699 -98.001 14c-39.333 10.667 -69.333 23.667 -90 39l22 67c82.667 -22 141 -33 175 -33c50 0 88.667 7 116 21c46 22.667 72 48 78 76c2.66699 10.667 4.33398 18.667 5.00098 24c0 54 -45.333 81 -136 81
c-7.33301 0 -19.666 -1 -36.999 -3c-2.66699 0 -10.167 -1.16699 -22.5 -3.5s-19.833 -3.5 -22.5 -3.5c-5.33301 0 -9.33301 1.33301 -12 4l-4 9v2l1 7c2 2 10.667 25.667 26 71c8 0 14 -0.666992 18 -2c80.667 4.66699 138.334 17 173.001 37
c48.667 28.667 73 60.334 73 95.001c0 43.333 -26.333 65 -79 65c-42 0 -92.333 -9 -151 -27c-17.333 -5.33301 -31.666 -10.666 -42.999 -15.999c-4.66699 -2.66699 -11.667 -6 -21 -10l-11 -2c-4.66699 0 -8 1.66699 -10 5c-0.666992 7.33301 -1 11.666 -1 12.999l22 71
c56 26 121.667 43.667 197 53c28.667 3.33301 55.667 5 81 5c38.667 0 70.667 -13.5 96 -40.5s38 -60.167 38 -99.5z" />
    <glyph glyph-name="four" unicode="4" horiz-adv-x="617" 
d="M592 227l-21.998 -75.001c-10 -2 -24.667 -4.33301 -44 -7c-8.66699 -0.666992 -27.667 -1 -57 -1l-37 -144h-108l34 131c-18.667 0 -46.334 -0.666992 -83.001 -2c-22.667 -1.33301 -35 -2 -37 -2h-90c-44.667 0 -74.667 1.66699 -90 5l-33 89
c28 22 71.333 63.333 130 124c41.333 42.667 73 77.334 95 104.001c58 70.667 101 131 129 181h139c-8.66699 -18.667 -33.667 -55.334 -75 -110.001c-38.667 -52 -111.334 -127.667 -218.001 -227l-85 -77v-7c-2.66699 0 50 2 158 6c7.33301 0 18.333 0.333008 33 1
c4.66699 0.666992 20 3.33398 46 8.00098l49 184h108l-47 -185h16c14.667 0 27.667 0.333008 39 1z" />
    <glyph glyph-name="five" unicode="5" horiz-adv-x="640" 
d="M615 630l-29.002 -100c-49.333 -16 -113 -24 -191 -24c-66.667 0 -106.667 3 -120 9l-36 -125c59.333 7.33301 96.333 11 111 11c66.667 0 119 -21.333 157 -64c19.333 -22 29 -54.333 29 -97c0 -74 -30.333 -133.667 -91 -179c-68 -50.667 -135.333 -79 -202 -85
c-36.667 -3.33301 -61 -5 -73 -5c-50 0 -98.333 9.66699 -145 29l28 82c35.333 -11.333 83.666 -17 144.999 -17c52.667 0 98 11.667 136 35c52.667 32.667 82 67 88 103c2.66699 16.667 4 26 4 28c0 32.667 -17.333 56.667 -52 72c-26 11.333 -57.667 17 -95 17
c-9.33301 0 -35.666 -3 -78.999 -9c-6 -1.33301 -21.333 -6 -46 -14c-22 -6.66699 -36 -9.66699 -42 -9c-1.33301 1.33301 -2.66602 3.33301 -3.99902 6v5c0 3.33301 0.666992 7.33301 2 12l94 309l90 -13h24c8 -0.666992 27.333 -1.66699 58 -3
c24.667 -1.33301 44.334 -2 59.001 -2c68 0 128 9.33301 180 28z" />
    <glyph glyph-name="six" unicode="6" horiz-adv-x="583" 
d="M558 574c-80.667 -10.667 -150.667 -31.667 -210 -63c-61.333 -32 -118 -78.333 -170 -139c56.667 42 117.334 63 182.001 63c50.667 0 96 -21 136 -63c28 -30 42 -71 42 -123c0 -66 -24 -123.667 -72 -173c-50.667 -52 -104.667 -84 -162 -96c-29.333 -6 -56 -9 -80 -9
c-50 0 -90.667 15.667 -122 47c-46.667 46.667 -71.667 94.667 -75 144c-1.33301 20 -2 35 -2 45c0 34 8.33301 73 25 117c32 82.667 88.333 156.667 169 222c83.333 67.333 186.666 101 309.999 101c2 0 5.33301 -0.333008 10 -1h10zM421 245
c0 28 -9.49902 51.667 -28.499 71s-42.5 29 -70.5 29c-48.667 0 -91.667 -18.5 -129 -55.5s-56 -79.5 -56 -127.5c0 -30.667 11.333 -54 34 -70c20 -13.333 46 -20 78 -20c41.333 0 81.666 18.667 120.999 56c34 32 51 71 51 117z" />
    <glyph glyph-name="seven" unicode="7" horiz-adv-x="570" 
d="M570 537c-30 -24.667 -68.3301 -64.002 -114.997 -118.002c-32.667 -37.333 -73.334 -90.666 -122.001 -159.999c-39.333 -55.333 -67.333 -97 -84 -125c-30 -48 -52.333 -92.667 -67 -134h-132c50 110 115.667 218.667 197 326
c71.333 94.667 139.666 166.334 204.999 215.001l-3 4c-75.333 -8.66699 -138.333 -13 -189 -13c-64 0 -120 5 -168 15l19 83c50 -8.66699 100.667 -13 152 -13c58 0 99 0.666992 123 2c9.33301 0.666992 23.666 2 42.999 4l78 6z" />
    <glyph glyph-name="eight" unicode="8" horiz-adv-x="641" 
d="M616 480c0 -48.667 -17.501 -85.668 -52.501 -111.001s-74.833 -44 -119.5 -56c30.667 -16.667 59 -35.834 85 -57.501s39 -48.167 39 -79.5c0 -34 -8 -63.667 -24 -89c-14 -20.667 -36.667 -42 -68 -64c-48.667 -34.667 -117.667 -52 -207 -52
c-76 0 -133.333 14.333 -172 43c-41.333 30 -64.666 62 -69.999 96c0 2.66699 -0.666992 6.66699 -2 12v12c0 52.667 19.667 93.334 59 122.001s90 51.334 152 68.001c-38 20 -63.667 37.667 -77 53c-18 21.333 -27 50.666 -27 87.999c0 22.667 5.66699 43.334 17 62.001
c40.667 68.667 117.667 103 231 103c60.667 0 112 -10 154 -30c54.667 -26 82 -66 82 -120zM501.999 476.999c0 5.33301 -0.333008 9.49902 -1 12.499s-2.66699 7.5 -6 13.5c-17.333 32.667 -51 49 -101 49c-40 0 -72.667 -7.33301 -98 -22
c-34.667 -20.667 -52 -42.667 -52 -66c0 -25.333 10.333 -45 31 -59c26.667 -18 56 -32.667 88 -44c92.667 30.667 139 69.334 139 116.001zM450.999 160.998c0 20.667 -11.334 41.333 -34.001 62c-17.333 16.667 -38 30.334 -62 41.001c-4 2 -9.66699 4.66699 -17 8
c-2 0 -14 -3.66699 -36 -11l-41 -13c-24 -7.33301 -51.333 -22 -82 -44c-26 -19.333 -39 -42 -39 -68l2 -15c2 -4 5 -9.66699 9 -17c6 -10.667 19.667 -21.334 41 -32.001c18.667 -9.33301 46.334 -14 83.001 -14c54.667 0 96.667 10 126 30c33.333 22 50 46.333 50 73z" />
    <glyph glyph-name="nine" unicode="9" horiz-adv-x="576" 
d="M551 412c0 -123.333 -63.334 -236.669 -190.001 -340.002c-83.333 -68 -186.333 -102 -309 -102c-1.33301 0 -4.33301 0.333008 -9 1h-9l-9 70c152.667 20.667 277.667 87.334 375 200.001c-50 -41.333 -113 -62 -189 -62c-41.333 0 -79.5 17 -114.5 51
s-52.5 77.667 -52.5 131c0 66.667 25 124.334 75 173.001c54.667 52 109.334 82 164.001 90c30 4.66699 54 7 72 7c56.667 0 104 -22.667 142 -68c36 -42.667 54 -93 54 -151zM439.999 446.997c0 28 -10.501 49.999 -31.501 65.999s-46.167 24 -75.5 24
c-5.33301 0 -15 -1.66699 -29 -5c-29.333 -7.33301 -56.333 -20.666 -81 -39.999c-27.333 -20.667 -45.333 -44.334 -54 -71.001c-5.33301 -16 -8 -34.667 -8 -56c0 -29.333 9 -53.166 27 -71.499s42 -27.5 72 -27.5c46.667 0 88.334 18.5 125.001 55.5s55 78.833 55 125.5z
" />
    <glyph glyph-name="colon" unicode=":" horiz-adv-x="290" 
d="M240 303c0 -22.667 -7.49902 -41.002 -22.499 -55.002s-33.833 -21 -56.5 -21c-12.667 0 -24 4.33301 -34 13s-15 19.334 -15 32.001c0 22 6.66699 41.667 20 59s30.666 26 51.999 26c15.333 0 28.5 -5.16699 39.5 -15.5s16.5 -23.166 16.5 -38.499zM178.001 56.998
c0 -50 -27.666 -75 -82.999 -75c-12 0 -22.5 4.5 -31.5 13.5s-13.5 19.5 -13.5 31.5c0 22 6.66699 41.667 20 59s30.666 26 51.999 26c16 0 29.333 -5.16699 40 -15.5s16 -23.5 16 -39.5z" />
    <glyph glyph-name="semicolon" unicode=";" horiz-adv-x="331" 
d="M281 303c0 -22.667 -7.49902 -41.002 -22.499 -55.002s-33.833 -21 -56.5 -21c-12.667 0 -24 4.33301 -34 13s-15 19.334 -15 32.001c0 22 6.66699 41.667 20 59s30.666 26 51.999 26c15.333 0 28.5 -5.16699 39.5 -15.5s16.5 -23.166 16.5 -38.499zM195.001 45.998
c-32.667 -66.667 -73.333 -119.333 -122 -158l-23 27c44.667 56 76 109 94 159z" />
    <glyph glyph-name="less" unicode="&#x3c;" horiz-adv-x="619" 
d="M619 553l-16 -64l-519 -194l-1 -11l421 -200l-15 -55l-489 245v39z" />
    <glyph glyph-name="equal" unicode="=" horiz-adv-x="778" 
d="M728 460l-17 -56h-627l12 56h632zM677 297l-19 -56h-608l14 56h613z" />
    <glyph glyph-name="greater" unicode="&#x3e;" horiz-adv-x="619" 
d="M619 269l-619 -240l16 64l519 194l1 11l-421 200l15 55l489 -245v-39z" />
    <glyph glyph-name="question" unicode="?" horiz-adv-x="473" 
d="M448 477c0 -48 -13.1641 -83.5029 -39.4971 -106.503s-66.5 -48.5 -120.5 -76.5c-25.333 -13.333 -39 -20.666 -41 -21.999c-13.333 -7.33301 -25.333 -17 -36 -29c-6.66699 -7.33301 -18 -30.666 -34 -69.999c-0.666992 -1.33301 -1.66699 -4 -3 -8h-70
c-4.66699 0 -9.33398 1.33301 -14.001 4l-7 9v2c0 14.667 4.66699 32.667 14 54c12.667 30.667 40.667 60.667 84 90l96 61c39.333 28.667 59 58 59 88c0 20.667 -8.33301 38.167 -25 52.5s-35.334 21.5 -56.001 21.5c-45.333 0 -85 -10.333 -119 -31
c-40.667 -24.667 -62.667 -36.667 -66 -36c-3.33301 1.33301 -8.33301 4 -15 8c-15.333 10.667 -25.333 21 -30 31l-1 5l1 5c6 30 41.667 55.667 107 77c53.333 18 97.666 27 132.999 27c48.667 0 90.667 -13.667 126 -41c38 -29.333 57 -67.666 57 -114.999z
M160.003 56.9971c0 -19.333 -5.99902 -34.5 -17.999 -45.5s-27.667 -16.5 -47 -16.5c-25.333 0 -38 11 -38 33c0 18 5.66699 34.5 17 49.5s25.666 22.5 42.999 22.5c28.667 0 43 -14.333 43 -43z" />
    <glyph glyph-name="at" unicode="@" horiz-adv-x="1002" 
d="M977 345c0 -82 -25.998 -156.004 -77.998 -222.004c-58 -73.333 -116.667 -116.666 -176 -129.999c-30 -6.66699 -50.667 -10 -62 -10c-24.667 0 -42 5 -52 15c-16 14.667 -24 32 -24 52c0 12 2.66699 26.333 8 43h-7c-62.667 -73.333 -130 -110 -202 -110
c-52 0 -91.667 16.667 -119 50c-26 30.667 -39 72.334 -39 125.001c0 62 33.333 122 100 180c59.333 52 127 78 203 78c54 0 99.667 -15.333 137 -46l14 46h100l-89 -304c-6 -20.667 -9 -33.667 -9 -39c0 -8.66699 7 -13 21 -13s29 5 45 15
c43.333 26.667 81.833 68.5 115.5 125.5s50.5 110.167 50.5 159.5c0 96 -34 173 -102 231c-44.667 38 -110.667 57 -198 57c-82.667 0 -150.334 -14.333 -203.001 -43c-100.667 -54 -181.334 -129.333 -242.001 -226c-57.333 -90.667 -86 -182.667 -86 -276
c0 -69.333 26.333 -129.666 79 -180.999c72.667 -70.667 155.334 -106 248.001 -106c11.333 0 29 2.33301 53 7c102.667 20.667 179.667 59 231 115l35 -46c-38.667 -34.667 -89.667 -64 -153 -88s-121 -36 -173 -36c-114.667 0 -216 48 -304 144
c-49.333 53.333 -74 129 -74 227l2 21c7.33301 77.333 31.666 153 72.999 227c54 95.333 125.333 172.333 214 231c94 62 193.667 93 299 93c123.333 0 214.833 -35.167 274.5 -105.5s89.5 -157.166 89.5 -260.499zM644.002 314.996c-30 12 -60.667 18 -92 18
c-56.667 0 -104 -17 -142 -51c-44.667 -40 -67 -84 -67 -132c0 -59.333 19.667 -89 59 -89c48 0 97.667 31.667 149 95c37.333 47.333 68.333 100.333 93 159z" />
    <glyph glyph-name="A" unicode="A" horiz-adv-x="1003" 
d="M1003 68c0 -23.333 -18.001 -44.3311 -54.001 -62.998c-31.333 -16 -60 -24 -86 -24c-49.333 0 -80.166 18.5 -92.499 55.5s-18.5 85.167 -18.5 144.5c0 28.667 6.33301 81 19 157l9 53c1.33301 4 3 10.333 5 19l21 94c4 19.333 8.66699 39.666 14 60.999
c0 0.666992 2.33301 10 7 28h-6c-64 -95.333 -144.667 -201.666 -242 -318.999c110.667 0 166.667 -0.666992 168 -2l2 -10c0 -30.667 -9.16699 -49 -27.5 -55s-41.5 -9 -69.5 -9h-136c-122.667 -151.333 -225.167 -252 -307.5 -302s-151.833 -75 -208.5 -75v62
c0 11.333 1 19 3 23c6.66699 3.33301 13 5.66602 19 6.99902c64 11.333 125.667 42.666 185 93.999c70.667 60.667 133.334 124 188.001 190c-138.667 -2 -213 -3 -223 -3c-24 0 -36 6.33301 -36 19c0 40.667 18.667 61 56 61h265c69.333 78 159.666 187.333 270.999 328
l57 75c11.333 13.333 25.333 20.666 42 21.999c4 0.666992 37.667 1 101 1c14.667 0 22 -8.33301 22 -25c0 -3.33301 -4.33301 -22.666 -13 -57.999l-29 -119c-28 -131.333 -42 -246 -42 -344c0 -52 11 -78 33 -78c14 0 32.167 5.33301 54.5 16s38.833 21 49.5 31v-55z" />
    <glyph glyph-name="B" unicode="B" horiz-adv-x="658" 
d="M658 538c0 -46 -22.3369 -90.666 -67.0039 -133.999c-41.333 -40 -95.666 -66.667 -162.999 -80v-8c24.667 4 44.334 6 59.001 6c43.333 0 82 -17.667 116 -53s51 -80 51 -134c0 -74 -31 -134 -93 -180c-92.667 -67.333 -198 -109.333 -316 -126
c-37.333 -5.33301 -68.333 -8 -93 -8c-70.667 0 -106 12.333 -106 37c0 2.66699 2.33301 15 7 37c0.666992 3.33301 4.33398 7 11.001 11l22 4c9.33301 0 23.5 -1.16699 42.5 -3.5s33.167 -3.5 42.5 -3.5c14.667 0 39 3 73 9c86 16 162 49.667 228 101
c42.667 33.333 64 75 64 125c0 34 -10.667 59.667 -32 77c-38 31.333 -87.667 47 -149 47c-13.333 0 -36.333 -1.66699 -69 -5l-49 -5c-10 -2 -22.333 -5 -37 -9l-62 -243h-115l146 583h112l-61 -248c67.333 0 133 19 197 57c60 36 96.333 69.667 109 101
c8.66699 22 13.334 39.667 14.001 53c-1.33301 9.33301 -3 16.666 -5 21.999c-3.33301 11.333 -16 23.666 -38 36.999c-28 16.667 -74.667 25 -140 25c-2.66699 0 -6.83398 -0.333008 -12.501 -1s-9.83398 -1 -12.501 -1c-12.667 0 -32 -0.666992 -58 -2
c-58 -7.33301 -114.667 -17.666 -170 -30.999c-0.666992 0 -15 -4.33301 -43 -13c-19.333 -6 -33.333 -9 -42 -9c-12.667 0 -19 10.333 -19 31c0 0.666992 0.666992 3 2 7c4.66699 16 7.66699 25.333 9 28c4.66699 10 11.334 17 20.001 21l39 16c9.33301 4 34.333 10 75 18
c88 17.333 180.667 26 278 26c68.667 0 121.334 -12.667 158.001 -38c51.333 -36.667 77 -84.667 77 -144z" />
    <glyph glyph-name="C" unicode="C" horiz-adv-x="786" 
d="M713 409l-112.002 -2.99609c22.667 61.333 34 99 34 113c0 82 -29 123 -87 123c-83.333 0 -171.666 -44.833 -264.999 -134.5s-140 -176.167 -140 -259.5c0 -45.333 12.667 -79.333 38 -102c44.667 -40 106.334 -60 185.001 -60c16.667 0 45 3.16699 85 9.5
s94 20.5 162 42.5c20.667 6.66699 42 16 64 28c2 1.33301 5.16699 3 9.5 5s11.166 5 20.499 9c-2 -22.667 -7.33301 -48.334 -16 -77.001c-22.667 -23.333 -53.334 -41.333 -92.001 -54c-24 -8.66699 -59.667 -20.334 -107 -35.001l-109 -23
c-31.333 -6.66699 -61.666 -10 -90.999 -10c-14 0 -34 3 -60 9c-53.333 12 -100.666 38 -141.999 78c-43.333 41.333 -65 101.666 -65 180.999c0 100.667 38.667 191 116 271c56 58 117.667 104.667 185 140c76 40 150 60 222 60c54.667 0 100 -10.667 136 -32
c43.333 -26 65 -64.333 65 -115c0 -62.667 -12 -117.334 -36 -164.001z" />
    <glyph glyph-name="ch68" unicode="D" horiz-adv-x="817" 
d="M817 446c0 -147.333 -84.668 -271.334 -254.001 -372.001c-104 -62 -243.333 -93 -418 -93c-86.667 0 -135 2.33301 -145 7c7.33301 22.667 17.666 48 30.999 76c5.33301 4 17 6 35 6c2 0 5.33301 -0.333008 10 -1s8.33398 -1 11.001 -1c12 0 22.667 1 32 3l142 523
l115 12l-139 -523h26c-2.66699 0 18.333 4 63 12c90.667 16 176 55 256 117c78 60 117 132.333 117 217c0 56.667 -23.333 104.834 -70 144.501s-113 59.5 -199 59.5c-125.333 0 -235.666 -14.667 -330.999 -44c-10.667 -4 -28 -8.66699 -52 -14h-20h-4l-5 2
c-0.666992 2.66699 -1 6 -1 10c0 2.66699 4.33301 16 13 40c10.667 32.667 101 61 271 85c12 1.33301 30.667 2.66602 56 3.99902c64 3.33301 101 5 111 5c85.333 0 155 -17.333 209 -52c93.333 -59.333 140 -133.666 140 -222.999z" />
    <glyph glyph-name="E" unicode="E" horiz-adv-x="734" 
d="M735 701c0 -6 -3.17578 -17.168 -9.50879 -33.501s-11.166 -24.5 -14.499 -24.5c-43.333 -0.666992 -108.333 -4.66699 -195 -12c-61.333 -8.66699 -114.666 -24 -159.999 -46c-78 -37.333 -117 -78 -117 -122c0 -28.667 15 -49.667 45 -63
c22.667 -10 50.334 -15 83.001 -15c3.33301 0 8.33301 -0.333008 15 -1s11.667 -1 15 -1h77c3.33301 0 9 0.666992 17 2c60.667 10 93.334 15 98.001 15c14.667 0 22 -5.66699 22 -17l-2 -10c-3.33301 -11.333 -6.33301 -23 -9 -35c-5.33301 -16 -11.666 -25 -18.999 -27
c-11.333 -3.33301 -25.666 -5 -42.999 -5h-44c-24 -1.33301 -50.333 -3.66602 -79 -6.99902c-79.333 -10 -139.333 -25 -180 -45c-58 -30 -87 -62.333 -87 -97l2 -17c2 -4 5.33301 -10.333 10 -19c6 -11.333 20.333 -22.333 43 -33c20 -10 60.333 -15 121 -15
c-1.33301 0 13.334 1.66699 44.001 5c62.667 6.66699 121.334 19 176.001 37c17.333 5.33301 44.333 16.333 81 33c4.66699 2.66699 12 6 22 10l13 2c5.33301 -3.33301 8 -10 8 -20c0 -3.33301 -1.33301 -8.83301 -4 -16.5s-5.66699 -14.5 -9 -20.5
c-10 -20 -35.667 -38.667 -77 -56s-77.666 -29.666 -108.999 -36.999c-18.667 -4.66699 -58.334 -12.334 -119.001 -23.001c-23.333 -4 -48.333 -6 -75 -6c-66 0 -117.333 10.667 -154 32s-62.667 45.666 -78 72.999c-4 6.66699 -8.66699 17 -14 31l-4 29
c-2 16 2.33301 36 13 60c2.66699 6.66699 8.66699 16.334 18 29.001c36 49.333 100 81 192 95c-8 1.33301 -20 6 -36 14c-58.667 29.333 -88 70 -88 122c0 58.667 37.667 114 113 166c86.667 59.333 225.334 89 416.001 89c54.667 0 82 -6.66699 82 -20z" />
    <glyph glyph-name="ch70" unicode="F" horiz-adv-x="731" 
d="M731 676l-28.999 -93.001c-68.667 14 -140 21 -214 21c-77.333 0 -160 -3.66699 -248 -11c-62 -5.33301 -98 -8.66602 -108 -9.99902c-40.667 -4 -76.334 -9.66699 -107.001 -17l29 92c46.667 9.33301 87.334 16 122.001 20c47.333 6 118.666 13 213.999 21
c18.667 0.666992 60.667 1 126 1c79.333 0 151 -8 215 -24zM523.001 209.999c-8 -32.667 -17.999 -67.3359 -29.999 -104.003c-16.667 -52.667 -33.334 -93 -50.001 -121c-20.667 -35.333 -49.334 -68.666 -86.001 -99.999c-51.333 -43.333 -126.333 -65 -225 -65
c-26.667 0 -42.667 2.66699 -48 8l-5 12c0.666992 6 -1.16602 14.833 -5.49902 26.5s-6.5 20.167 -6.5 25.5c0 3.33301 2 7 6 11c10 2.66699 15.333 4 16 4c7.33301 0 18.666 -0.333008 33.999 -1s26.666 -1 33.999 -1c70.667 0 124.334 26.833 161.001 80.5
s66 126.167 88 217.5c-60 0.666992 -141.667 4.66699 -245 12c-64.667 4.66699 -97 14.667 -97 30c0 7.33301 3.16699 21.166 9.5 41.499s11.666 30.833 15.999 31.5s7.83301 1 10.5 1c-2 0 7 -1.33301 27 -4c98 -13.333 200.333 -21.333 307 -24l84 281l115 9l-88 -290
c4.66699 -0.666992 11 -1 19 -1c8.66699 0 21.5 1.66699 38.5 5s29.833 5 38.5 5c6 0 10.333 -1.33301 13 -4l4 -9v-7c0 0.666992 -5 -13.666 -15 -42.999c-1.33301 -5.33301 -3.16602 -10.666 -5.49902 -15.999s-6.16602 -8.66602 -11.499 -9.99902
c-20.667 -4.66699 -55 -5 -103 -1z" />
    <glyph glyph-name="G" unicode="G" horiz-adv-x="879" 
d="M855 672c0 -6.66699 -6.33398 -25.999 -19.001 -57.999c0 -4 -1.16699 -7 -3.5 -9s-5.5 -3 -9.5 -3c-10.667 0 -26.334 0.333008 -47.001 1c-4 1.33301 -9.66699 3 -17 5c-26.667 3.33301 -63 5 -109 5c-140.667 0 -262.667 -40.333 -366 -121
c-50 -39.333 -86.667 -90 -110 -152c-12.667 -33.333 -19 -61.333 -19 -84c0 -46.667 19.333 -85.667 58 -117c36 -28.667 78 -43 126 -43c17.333 0 36.333 1.66699 57 5c61.333 10.667 122.666 47.667 183.999 111c54.667 56.667 95 117.334 121 182.001h115l-44 -149
c-17.333 -56 -35 -104.667 -53 -146c-12 -28 -31.667 -68.333 -59 -121c-30.667 -48 -72.334 -89.5 -125.001 -124.5s-125 -52.5 -217 -52.5c-32.667 0 -81 4.33301 -145 13l19 76c42.667 -4 79.667 -6 111 -6c63.333 0 120.5 16.333 171.5 49s90.5 77.667 118.5 135l39 83
c4.66699 11.333 12.334 27.666 23.001 48.999h-9c-23.333 -40.667 -59.666 -79.667 -108.999 -117c-59.333 -44.667 -111.666 -71.667 -156.999 -81c-9.33301 -2 -23.5 -4.5 -42.5 -7.5s-33.167 -4.5 -42.5 -4.5c-71.333 0 -127 20.333 -167 61
c-60.667 61.333 -91 133 -91 215c0 20 5.66699 51.333 17 94c13.333 48.667 39.333 93 78 133l39 40c8.66699 8.66699 25.334 21.667 50.001 39c122.667 85.333 268 128 436 128c84 0 137.333 -1.66699 160 -5c25.333 -4.66699 38 -12.334 38 -23.001z" />
    <glyph glyph-name="H" unicode="H" horiz-adv-x="952" 
d="M927 48c0 -17.333 -22.666 -33.3311 -67.999 -47.998c-37.333 -12.667 -64.666 -19 -81.999 -19c-28 0 -49.667 11 -65 33c-13.333 19.333 -20 43.666 -20 72.999c0 52.667 2.33301 88.667 7 108l41 190c5.33301 18 12.666 44.667 21.999 80
c8.66699 42 24.667 104.667 48 188h115c-4 -16.667 -10.667 -41.334 -20 -74.001l-60 -216c-25.333 -101.333 -38 -179 -38 -233c0 -50.667 17.667 -76 53 -76c17.333 0 39.666 10.333 66.999 31v-37zM697.001 288.002
c-1.33301 -5.33301 -1.99707 -8.66895 -1.99707 -10.002c-1.33301 -12 -7.33301 -28 -18 -48c-10.667 -10 -73 -23.667 -187 -41l-41 -189h-115l38 173c-3.33301 0 -8.33301 -0.5 -15 -1.5s-11.334 -1.5 -14.001 -1.5c-14.667 -0.666992 -36 -1 -64 -1
c-96 0 -171.667 24 -227 72c-34.667 28.667 -52 73.667 -52 135c0 88 42.333 169 127 243c61.333 54 136.666 81 225.999 81c67.333 0 115 -15 143 -45c22 -23.333 36.667 -47.666 44 -72.999c6.66699 -21.333 10 -49.333 10 -84c0 -16.667 -3 -39.667 -9 -69l-33 -160h6
c2 0 4.83301 0.333008 8.5 1s6.16699 1 7.5 1c34.667 2.66699 59.667 5.33398 75 8.00098c27.333 4 51.333 11 72 21c3.33301 -0.666992 6.66602 -0.333984 9.99902 0.999023c4.66699 -1.33301 8 -5.66602 10 -12.999zM438.004 529.999c0 26 -10.499 47.333 -31.499 64
s-44.833 25 -71.5 25c-16.667 0 -38.334 -4.33301 -65.001 -13c-34 -11.333 -68 -36.333 -102 -75c-34.667 -40.667 -51.334 -84.334 -50.001 -131.001c0 -10.667 1 -25.667 3 -45c6 -27.333 27 -52 63 -74c30 -18.667 89.667 -28 179 -28
c10.667 0 19.334 0.666992 26.001 2l38 177c7.33301 34.667 11 67.334 11 98.001z" />
    <glyph glyph-name="I" unicode="I" horiz-adv-x="672" 
d="M672 694l-103.999 -425.999c-5.33301 -22 -14.333 -54.333 -27 -97c-16.667 -44 -39.334 -83.333 -68.001 -118c-32.667 -38.667 -68.667 -65.667 -108 -81c-29.333 -11.333 -67.333 -17 -114 -17c-38 0 -61.333 3 -70 9l-7 7v51c15.333 -4.66699 39.333 -7 72 -7
c73.333 0 127.333 29.333 162 88s62 131 82 217l72 307l-117 -21c-76.667 -14 -150 -40.333 -220 -79c-54.667 -30.667 -82 -70.334 -82 -119.001c0 -38.667 11.167 -68.667 33.5 -90s53.166 -32 92.499 -32c26 0 48.333 2 67 6l-15 -46
c-21.333 -6.66699 -56.666 -10 -105.999 -10c-50.667 0 -89.667 9.33301 -117 28c-38 25.333 -61.333 56 -70 92c-2 8.66699 -3 25.334 -3 50.001c0 14.667 6.66699 34.667 20 60c28.667 55.333 83 99 163 131c64.667 26 141 47 229 63
c48 9.33301 126.333 20.666 235 33.999z" />
    <glyph glyph-name="J" unicode="J" horiz-adv-x="626" 
d="M626 700l-123.001 -488l-24 -107c-10 -40.667 -21 -75.334 -33 -104.001c-23.333 -55.333 -48.666 -95.666 -75.999 -120.999c-56 -52.667 -122.333 -79 -199 -79c-22 0 -41.667 2.33301 -59 7c5.33301 22 11.333 44.667 18 68c2 2.66699 9 4 21 4c2 0 5 -0.5 9 -1.5
s7 -1.5 9 -1.5c64.667 0 112 31 142 93c28 58.667 58.667 151 92 277l95 361c-108.667 -15.333 -201 -42 -277 -80c-52 -26 -78 -61.667 -78 -107c0 -7.33301 3.66699 -18.166 11 -32.499s24.333 -28.5 51 -42.5c21.333 -11.333 57.666 -17 108.999 -17
c8 0 13.333 -1.16699 16 -3.5s4 -7.16602 4 -14.499l-2 -4c-4.66699 -27.333 -7.66699 -42 -9 -44c-4 -6 -17.333 -9 -40 -9c-79.333 0 -137.666 12 -174.999 36c-55.333 35.333 -83 81.666 -83 138.999c0 48.667 25.333 91 76 127s111 64 181 84c44 12.667 110 26 198 40
c38 6 67.333 10.333 88 13c16 1.33301 35.333 3.66602 58 6.99902z" />
    <glyph glyph-name="K" unicode="K" horiz-adv-x="723" 
d="M723 624c-34 -42 -77.667 -87.499 -131 -136.499s-102.333 -88.5 -147 -118.5l-112 -75l174 -160c33.333 -30.667 61.333 -46 84 -46c18.667 0 37 5 55 15l74 41v-66c0 -17.333 -18.667 -36.333 -56 -57c-25.333 -14.667 -50.333 -25.667 -75 -33
c-2.66699 -0.666992 -13.334 -3 -32.001 -7c-30 0 -63.667 14.333 -101 43c-17.333 13.333 -45 38.666 -83 75.999l-58 58c-11.333 11.333 -23.666 23 -36.999 35c-0.666992 1.33301 -26.667 25.333 -78 72l-59 -265h-116l154 676h116l-81 -354
c58.667 26.667 136.667 82.667 234 168s163 155.333 197 210z" />
    <glyph glyph-name="L" unicode="L" horiz-adv-x="879" 
d="M879 513c0 -74.667 -29 -133.337 -87 -176.004c-90 -66.667 -201.667 -105.667 -335 -117l-12 64c70 12.667 127.667 33.334 173 62.001c104 64.667 156 134 156 208c0 16.667 -6.33301 32.834 -19 48.501s-27 26.5 -43 32.5c-12.667 4.66699 -28 7 -46 7
c-88 0 -154 -33.333 -198 -100c-39.333 -60 -78 -138.667 -116 -236l-71 -182c0.666992 -0.666992 4 -1.66699 10 -3c39.333 -9.33301 92 -26.666 158 -51.999c41.333 -16 79.333 -24 114 -24c78 0 162 29 252 87l-23 -82l-69 -48c-33.333 -21.333 -59 -34.666 -77 -39.999
c-46 -14 -81.667 -21 -107 -21c-41.333 0 -92 13.667 -152 41c-16.667 7.33301 -41 18.666 -73 33.999h-2c-16 6 -39.333 16.333 -70 31c-39.333 -44 -91 -66 -155 -66c-26.667 0 -50.334 4.66699 -71.001 14l-16 79c56.667 30 113.334 45 170.001 45
c-1.33301 0 7 -0.666992 25 -2l51 185l15 57c32 106 78.333 194.333 139 265c55.333 64.667 130.333 97 225 97c10 0 33.667 -1.33301 71 -4c26 -2 53.5 -11.333 82.5 -28s51.5 -36 67.5 -58c22 -29.333 33 -68.666 33 -117.999z" />
    <glyph glyph-name="M" unicode="M" horiz-adv-x="1246" 
d="M1221 133l-11.999 -83.9932c-3.33301 -23.333 -22 -41.333 -56 -54c-24.667 -8.66699 -51.667 -13 -81 -13c-39.333 0 -68.666 19.667 -87.999 59c-15.333 31.333 -23 68.666 -23 111.999c0 78 21.333 198 64 360c2.66699 9.33301 7 23.333 13 42h-8l-24 -47
c-8.66699 -14.667 -21 -37 -37 -67c-28 -54 -48 -91.333 -60 -112c-23.333 -42 -45.666 -78.333 -66.999 -109c-48.667 -70 -84 -117.667 -106 -143c-55.333 -63.333 -103.333 -95 -144 -95c-32.667 0 -56.334 22.333 -71.001 67c-10.667 31.333 -16 67.666 -16 108.999
c0 63.333 6.66699 132 20 206c4.66699 22 10.667 54.667 18 98c3.33301 21.333 5 31.333 5 30l11 42h-8l-48 -108c-6 -12 -15.333 -29.667 -28 -53l-51 -95l-22 -42c-54.667 -86.667 -89.334 -140.334 -104.001 -161.001c-44 -60 -88.667 -105.667 -134 -137
c-40 -28 -88.333 -47 -145 -57l-19 93c37.333 12.667 57.333 19.667 60 21c22.667 9.33301 41.667 19.666 57 30.999c1.33301 0.666992 10 8.66699 26 24c46 43.333 97.333 111 154 203c108.667 177.333 184.667 326.333 228 447h172c-52 -220 -78 -379.667 -78 -479
c0 -58.667 6 -93 18 -103c24 0 56 29.333 96 88l49 72c42 64.667 100 167.667 174 309c20.667 39.333 37.667 77 51 113h172c-14 -40.667 -33.333 -102.334 -58 -185.001c-32 -122.667 -48 -246.334 -48 -371.001c0 -22 2.16699 -39.333 6.5 -52s18.833 -19 43.5 -19
c16.667 0 35 6.66699 55 20c17.333 11.333 31.666 24.666 42.999 39.999z" />
    <glyph glyph-name="ch78" unicode="N" horiz-adv-x="939" 
d="M914 40c-44.667 -38.667 -88 -58.001 -130 -58.001c-32 0 -58.667 10.167 -80 30.5s-32 46.5 -32 78.5c0 10.667 6.33301 41 19 91l73 285c9.33301 36.667 14 59 14 67c0 23.333 -12 35 -36 35c-13.333 0 -33 -8.66699 -59 -26c-30.667 -20 -70 -65 -118 -135
c-36.667 -53.333 -69.334 -106.666 -98.001 -159.999c-37.333 -69.333 -74.333 -152 -111 -248h-112l84 313c24.667 92 37 153 37 183c0 33.333 -10.167 59.833 -30.5 79.5s-47.166 29.5 -80.499 29.5c-46.667 0 -120.667 -29.333 -222 -88l-32 54
c76.667 71.333 164.334 114 263.001 128c18.667 2.66699 33.667 4 45 4c54 0 92.5 -18.5 115.5 -55.5s34.5 -78.833 34.5 -125.5c0 -58 -11.333 -126.333 -34 -205h11c13.333 38 25 67 35 87c9.33301 18 28 45 56 81c44 56 81 96.333 111 121
c47.333 39.333 96.666 59 147.999 59c26.667 0 51.5 -8.83301 74.5 -26.5s34.5 -39.834 34.5 -66.501c0 -28.667 -7.66699 -74 -23 -136l-72 -288c-5.33301 -21.333 -8 -36.666 -8 -45.999c0 -19.333 8.66699 -29 26 -29c10 0 24.667 3.66699 44 11s34 14.333 44 21z" />
    <glyph glyph-name="ch79" unicode="O" horiz-adv-x="842" 
d="M333 -19c-91.333 0 -161.332 29 -209.999 87s-73 126.333 -73 205c0 53.333 16 104.333 48 153c51.333 78.667 110.333 135.667 177 171c24 12.667 42.667 19 56 19c4 0 13.333 -4 28 -12s22.667 -13.333 24 -16s2 -6.66699 2 -12
c0 -3.33301 -3.66699 -7.66602 -11 -12.999c-95.333 -66.667 -155.666 -134 -180.999 -202c-16.667 -43.333 -25 -76.666 -25 -99.999c0 -54 18.833 -100 56.5 -138s83.5 -57 137.5 -57c89.333 0 169.666 45 240.999 135c47.333 60 71 134.333 71 223
c0 69.333 -25 122.666 -75 159.999c-44.667 33.333 -103 50 -175 50c-76 0 -144 -9 -204 -27c-26.667 -8 -42.334 -12 -47.001 -12s-8 1 -10 3c-2 6 -2.66699 10.333 -2 13c2.66699 4 5 13.5 7 28.5s5.66699 25.833 11 32.5c10 12 66.667 24.667 170 38
c50.667 6.66699 93.667 10 129 10c103.333 0 180.666 -29.333 231.999 -88c54.667 -62.667 82 -129.334 82 -200.001v-8c0 -124.667 -46.667 -229.667 -140 -315s-199.666 -128 -318.999 -128z" />
    <glyph glyph-name="P" unicode="P" horiz-adv-x="715" 
d="M690 503c0 -60 -39.6689 -118.498 -119.002 -175.498s-188 -85.5 -326 -85.5l-61 -242h-115l151 610h115l-73 -298c92 13.333 163 35.666 213 66.999c65.333 41.333 98 88 98 140c0 79.333 -67.667 119 -203 119c-28.667 0 -78.667 -2.66699 -150 -8
c-41.333 -3.33301 -82.666 -10 -123.999 -20c-29.333 -7.33301 -48.333 -11 -57 -11c-1.33301 0 -4.66602 0.333008 -9.99902 1c-2.66699 4 -4 7 -4 9c0.666992 4.66699 5 19.334 13 44.001c8.66699 27.333 76 46.666 202 57.999c68.667 6 136 9 202 9
c72 0 126.167 -12.667 162.5 -38s60.5 -53.333 72.5 -84c8.66699 -22.667 13 -54.334 13 -95.001z" />
    <glyph glyph-name="Q" unicode="Q" horiz-adv-x="859" 
d="M834 485c0 -86.667 -23.9971 -156.669 -71.9971 -210.002c-38.667 -42.667 -80 -78 -124 -106c-36.667 -23.333 -85.334 -47.666 -146.001 -72.999c-65.333 -27.333 -128.333 -46.666 -189 -57.999v-9l168 8c67.333 3.33301 123 11.333 167 24
c38.667 10.667 63.667 17.667 75 21c27.333 8.66699 51.333 18 72 28l-20 -70c-16.667 -9.33301 -42 -22.666 -76 -39.999c-0.666992 -0.666992 -24.334 -10 -71.001 -28c-52.667 -20.667 -137.334 -31 -254.001 -31c6.66699 0 -3 1.33301 -29 4
c-6.66699 1.33301 -21.334 4 -44.001 8c-49.333 9.33301 -93 17 -131 23c-16.667 2.66699 -28.334 4 -35.001 4c-25.333 0 -58.666 -4.66699 -99.999 -14c10 38.667 17.333 68.667 22 90c1.33301 6.66699 3.66602 11.334 6.99902 14.001c0.666992 0 25 3.33301 73 10
c169.333 22.667 297.333 59.667 384 111c82.667 48.667 140 100 172 154c24 40 36 79.667 36 119c0 49.333 -18.333 88.666 -55 117.999c-41.333 31.333 -82.666 48.333 -123.999 51c-22.667 1.33301 -38 2 -46 2c-44 0 -83 -6 -117 -18s-69.333 -30.667 -106 -56
c-65.333 -46 -98 -97.333 -98 -154c0 -40 19.833 -75.5 59.5 -106.5s102.167 -46.5 187.5 -46.5c9.33301 0 16.666 0.666992 21.999 2l-16 -68c-34 -5.33301 -70 -8 -108 -8c-78.667 0 -141.667 23.167 -189 69.5s-71 96.833 -71 151.5c0 8 0.333008 18 1 30
c0.666992 6.66699 2.33398 14.667 5.00098 24c20.667 68 71.334 128.667 152.001 182c84.667 55.333 190 83 316 83c76 0 143.333 -19.667 202 -59c66.667 -44.667 100 -103.334 100 -176.001z" />
    <glyph glyph-name="R" unicode="R" horiz-adv-x="795" 
d="M770 122c-2 -14 -4.33398 -27.9971 -7.00098 -41.9971c-4 -23.333 -8.33301 -37.333 -13 -42c-10.667 -12.667 -32 -25.334 -64 -38.001s-57 -19 -75 -19c-38.667 0 -77.334 20 -116.001 60l-75 78l-141 150l-65 -269h-115l139 577h116l-57 -236
c108.667 9.33301 193 30.166 253 62.499s90 68.833 90 109.5c0 30 -14 52.667 -42 68c-17.333 9.33301 -44.666 16.666 -81.999 21.999c-23.333 3.33301 -50.666 5 -81.999 5h-88c2 0 -17.667 -1.33301 -59 -4c-52.667 -3.33301 -140 -19.666 -262 -48.999l20 85
c26 8 61.333 15.667 106 23c27.333 5.33301 68.333 12.333 123 21c79.333 11.333 155.666 17 228.999 17c82.667 0 145.834 -20.167 189.501 -60.5s65.5 -86.833 65.5 -139.5c0 -64.667 -43.667 -117.334 -131 -158.001c-56.667 -26 -128 -45.667 -214 -59l112 -112l61 -63
c20 -20 41.333 -30 64 -30c42 0 82 14.333 120 43z" />
    <glyph glyph-name="S" unicode="S" horiz-adv-x="838" 
d="M838 691l-25.999 -86.998c-13.333 4 -33 9 -59 15c-42 6 -94.333 9 -157 9c-74 0 -137.667 -9.66699 -191 -29c-82 -30.667 -131.667 -66.667 -149 -108c-6.66699 -14.667 -10 -26.334 -10 -35.001c0 -20.667 11 -36.334 33 -47.001
c17.333 -8.66699 37.666 -13 60.999 -13c3.33301 0 8 -0.333008 14 -1s10.333 -1 13 -1c12 0 30.333 0.333008 55 1h54h41c18 -0.666992 31.667 -1 41 -1c50.667 0 101.334 -12.333 152.001 -37c39.333 -19.333 59 -53.333 59 -102c0 -61.333 -31.667 -116.333 -95 -165
c-48.667 -37.333 -108.667 -66.333 -180 -87c-48.667 -14.667 -104 -22 -166 -22c-22 0 -42.333 1.33301 -61 4c-102 14.667 -182.667 36.667 -242 66l22 75c69.333 -15.333 118.333 -25.333 147 -30c46.667 -6.66699 96.667 -10 150 -10c71.333 0 133.666 13 186.999 39
c71.333 34 107 71 107 111c0 18 -6.66699 30.333 -20 37c-17.333 8 -38 12 -62 12c-7.33301 0 -18 -0.333008 -32 -1s-24.667 -1 -32 -1h-84c-73.333 0 -140.333 11.333 -201 34c-52.667 20 -79 56.333 -79 109c0 92.667 64 171.667 192 237c74 38 190.667 57 350 57
c6.66699 0 19.667 -1.33301 39 -4c28.667 -4 71.667 -12.333 129 -25z" />
    <glyph glyph-name="T" unicode="T" horiz-adv-x="813" 
d="M813 692c0 -4.66699 -1.33105 -12.667 -3.99805 -24s-4 -19.666 -4 -24.999l-5.5 -11c-2.33301 -4.66699 -16.833 -7 -43.5 -7c-4 0 -9.83301 0.5 -17.5 1.5s-13.5 1.5 -17.5 1.5h-27c-44.667 0 -76.334 -0.333008 -95.001 -1l-28 -3
c-30.667 -0.666992 -76.667 -3.33398 -138 -8.00098c-65.333 -9.33301 -136.666 -27 -213.999 -53c-10.667 -3.33301 -26.334 -8.66602 -47.001 -15.999c-2 -0.666992 -12.667 -6.33398 -32 -17.001c-4.66699 -0.666992 -8 -1 -10 -1
c-11.333 0.666992 -17 4.33398 -17 11.001c0 36 15.333 61.667 46 77c22 11.333 80 30.333 174 57c67.333 19.333 135.666 32.666 204.999 39.999c39.333 4 84 6 134 6h39c2 0 6 0.333008 12 1h12c52 0 78 -8 78 -24v-5zM554.002 600
c-8 -30.667 -13.334 -53.667 -16.001 -69c-2.66699 -8 -6 -19.333 -10 -34l-28 -110c-25.333 -100 -44.333 -170.333 -57 -211c-22.667 -77.333 -47.667 -146 -75 -206c-45.333 -99.333 -130 -149 -254 -149c-34.667 0 -61.667 2 -81 6c-22 5.33301 -33 15.333 -33 30
c0 2.66699 1.33301 9.66699 4 21s5 18 7 20c8.66699 2 15.334 2.66699 20.001 2c11.333 -5.33301 27.666 -8 48.999 -8c71.333 0 128 33.333 170 100c30 49.333 55.333 105.666 76 168.999c6.66699 20.667 23.334 80.334 50.001 179.001c13.333 50.667 35 125.667 65 225z
" />
    <glyph glyph-name="U" unicode="U" horiz-adv-x="801" 
d="M801 650l-135.002 -472c-8 -28 -12 -54.333 -12 -79c0 -20 11 -30 33 -30c15.333 0 31.666 5 48.999 15l63 37l1 -55c0.666992 -23.333 -22.333 -44 -69 -62c-38 -15.333 -69.333 -23 -94 -23c-35.333 0 -59.666 10.833 -72.999 32.5s-20 47.167 -20 76.5
c0 19.333 10 64.666 30 135.999c12.667 45.333 27.334 87.666 44.001 126.999h-10c-3.33301 -4.66699 -8 -12 -14 -22l-52 -83c-54 -81.333 -110.333 -147.666 -169 -198.999c-51.333 -45.333 -106.333 -68 -165 -68c-36 0 -66 11.333 -90 34s-36 51.667 -36 87
c0 31.333 8.33301 70 25 116l44 113l48 130c10 27.333 15 51.333 15 72c0 26.667 -10.667 48.834 -32 66.501s-45.666 26.5 -72.999 26.5c-4.66699 0 -11.167 -0.666992 -19.5 -2s-14.833 -2 -19.5 -2c-6 0 -10.167 0.833008 -12.5 2.5s-4.83301 4.5 -7.5 8.5v5
c0 2.66699 3 14.334 9 35.001c5.33301 18 22.333 27 51 27c68.667 0 120.334 -16.333 155.001 -49c38.667 -37.333 58 -78.666 58 -123.999c0 -32 -15.667 -91 -47 -177l-66 -166c-6.66699 -16.667 -10 -32.334 -10 -47.001c0 -33.333 16.333 -50 49 -50
c52 0 120.667 53 206 159c53.333 66.667 101.333 137 144 211c25.333 43.333 53.666 107.666 84.999 192.999h117z" />
    <glyph glyph-name="V" unicode="V" horiz-adv-x="877" 
d="M877 670c-6 -15.333 -15.667 -38.335 -29 -69.002l-29 -60c-7.33301 -14 -16.333 -34 -27 -60c-22 -40 -35 -65.667 -39 -77c38 -40.667 78.667 -64.667 122 -72l-17 -66c-57.333 5.33301 -108 28.333 -152 69l-96 -148l-71 -97c-28 -38 -57 -74.333 -87 -109l-100 -1
c-1.33301 9.33301 -5.33301 53.333 -12 132c-2.66699 25.333 -6 63 -10 113v12c0 117.333 -13.333 214 -40 290c-16.667 48 -43.667 72 -81 72c-26.667 0 -60 -14.333 -100 -43c-29.333 -21.333 -56.666 -45.666 -81.999 -72.999l-27 73c52.667 58 107.334 99 164.001 123
c34.667 14 61.667 21 81 21c10 0 23.667 -1.33301 41 -4c23.333 -4 48 -19.667 74 -47c24 -27.333 41 -72 51 -134c15.333 -97.333 25.666 -219.333 30.999 -366c0 -4 -1.33301 -27.333 -4 -70h4l57 83l91 133c26 39.333 45 71 57 95c-12.667 14 -19 33.333 -19 58
c0 16 3 33.333 9 52c13.333 42.667 66.666 99.334 159.999 170.001h80z" />
    <glyph glyph-name="W" unicode="W" horiz-adv-x="1060" 
d="M1060 670c-6 -26.667 -15.998 -63.001 -29.998 -109.001c-3.33301 -14 -9.33301 -34.333 -18 -61c-15.333 -40.667 -40.333 -101.334 -75 -182.001c-36 -72.667 -63.333 -125 -82 -157c-33.333 -55.333 -69 -101.666 -107 -138.999c-31.333 -30 -63.333 -45 -96 -45
c-26.667 0 -51.5 17.333 -74.5 52s-34.5 88 -34.5 160c0 38.667 0.666992 62.334 2 71.001c3.33301 21.333 8 44.666 14 69.999c6.66699 37.333 11 59.333 13 66h-5c-8.66699 -29.333 -37 -84 -85 -164c-24.667 -41.333 -42.667 -70.666 -54 -87.999
c-20.667 -32.667 -40.334 -60.667 -59.001 -84l-47 -59h-105c23.333 114 35 253 35 417c0 56 -5.33301 97.333 -16 124c-16.667 41.333 -48.667 62 -96 62c-54.667 0 -93 -3.66699 -115 -11l17 85c53.333 14.667 105.666 22 156.999 22c56 0 99 -27.333 129 -82
c24 -44 36 -96.667 36 -158c0 -12 -0.333008 -29.667 -1 -53s-1 -41 -1 -53c0 -2.66699 -0.666992 -7 -2 -13s-2 -10.333 -2 -13l-3 -36l-18 -161h7c39.333 58 73 113 101 165c20 35.333 48 88.666 84 159.999c12 26.667 25 61.334 39 104.001h125
c-32 -156.667 -48 -275 -48 -355c0 -57.333 8 -92 24 -104l6 -2c8.66699 0 27 19.667 55 59c52.667 73.333 107 186.333 163 339c20 54 37.333 111.667 52 173h115z" />
    <glyph glyph-name="X" unicode="X" horiz-adv-x="1032" 
d="M1007 667l-82 -107c-21.333 -28 -51.666 -63 -90.999 -105l-97 -101l-75 -80c9.33301 -34 22.666 -74.667 39.999 -122c18.667 -51.333 45.334 -77 80.001 -77h9c32.667 0 100 30.667 202 92l-8 -72c-30 -24 -70 -48 -120 -72c-57.333 -28 -101.666 -42 -132.999 -42
c-44 0 -79.333 24.667 -106 74c-18.667 34 -35.334 78 -50.001 132c-54.667 -50.667 -93.334 -84.667 -116.001 -102c-45.333 -34.667 -90 -59.334 -134 -74.001c-61.333 -20 -107 -30 -137 -30c-50.667 0 -94.834 19.833 -132.501 59.5s-56.5 84.834 -56.5 135.501
c0 83.333 40.333 150 121 200c68.667 42.667 147.334 64 236.001 64h3c33.333 0 50 -5 50 -15c0 -7.33301 -3.83301 -19.166 -11.5 -35.499s-14 -25.5 -19 -27.5s-17.833 -3 -38.5 -3c-58.667 0 -112 -19 -160 -57c-50.667 -40 -76 -88.667 -76 -146
c0 -27.333 8.16699 -49.833 24.5 -67.5s37.833 -26.5 64.5 -26.5c62 0 152.667 52.333 272 157c21.333 18.667 48 44 80 76l-99 388h111l73 -311c102 103.333 154 159.666 156 168.999c1.33301 0.666992 15.666 17.667 42.999 51l48 60
c12.667 17.333 22.334 33.333 29.001 48z" />
    <glyph glyph-name="Y" unicode="Y" horiz-adv-x="814" 
d="M789 285l-27 -85.998c-36.667 -18.667 -86 -35 -148 -49c-13.333 -36 -28 -68.333 -44 -97c-38.667 -68.667 -93.5 -124.5 -164.5 -167.5s-145.167 -64.5 -222.5 -64.5c-50 0 -89 9 -117 27c-44 28 -66 59.667 -66 95c-0 47.333 16.333 85.666 49 114.999
c38 35.333 84 61.333 138 78c24.667 8 77.334 19.333 158.001 34c74.667 13.333 133.667 23 177 29l99 291h-11c-9.33301 -16.667 -20 -33 -32 -49l-42 -56c-24.667 -33.333 -54 -63.666 -88 -90.999c-42.667 -35.333 -79 -53 -109 -53c-37.333 0 -67 15.333 -89 46
c-29.333 40 -52.666 103.667 -69.999 191c-16.667 82 -25 152.667 -25 212c0 34.667 1 58 3 70h115c0 4 1.33301 -23.333 4 -82c10 -220 39.667 -330 89 -330c18 0 37 11 57 33l60 67c40 44.667 75.667 95 107 151c19.333 34.667 46.666 88.334 81.999 161.001h115
c-6.66699 -18.667 -15 -46.667 -25 -84c-12.667 -58.667 -31.667 -133.334 -57 -224.001c-36 -126 -57 -200.333 -63 -223c45.333 13.333 70.666 20.666 75.999 21.999c27.333 9.33301 51 20.666 71 33.999zM488 120.002c-80.667 -15.333 -132.999 -25.999 -156.999 -31.999
c-58 -14.667 -108 -32.334 -150 -53.001c-46.667 -23.333 -70 -54 -70 -92c0 -17.333 10 -31 30 -41c16 -7.33301 33.667 -11 53 -11c69.333 0 140.666 36.333 213.999 109c35.333 35.333 62 75.333 80 120z" />
    <glyph glyph-name="Z" unicode="Z" horiz-adv-x="870" 
d="M859 333c-2 -6.66699 -3.66406 -11.6719 -4.99707 -15.0049c-8 -15.333 -13.333 -24.666 -16 -27.999c-6.66699 -8.66699 -16 -13 -28 -13c-4.66699 0 -19.167 1.66699 -43.5 5s-37 5.33301 -38 6s-12.833 2.33398 -35.5 5.00098c-23.333 -21.333 -62 -48 -116 -80
c-105.333 -62.667 -203.333 -106.667 -294 -132v-7l2 -1c45.333 -16 112.333 -24 201 -24c10.667 0 43.667 0.666992 99 2c36.667 1.33301 83.667 11 141 29c22.667 7.33301 40 15.666 52 24.999h1l6 3c7.33301 -6 11 -13.333 11 -22c0 -22.667 -17.667 -45 -53 -67
c-32.667 -20.667 -87.667 -41.667 -165 -63c-36.667 -10 -87 -15 -151 -15c-32.667 0 -84.334 7.33301 -155.001 22l-50 15c-38.667 11.333 -72.334 18.666 -101.001 21.999c-21.333 2.66699 -33.666 4 -36.999 4s-11 -0.833008 -23 -2.5s-19.333 -2.16699 -22 -1.5l-10 4
c-2.66699 2.66699 -4 7.33398 -4 14.001c0 26.667 7.33301 52.334 22 77.001c9.33301 5.33301 43.666 12.333 102.999 21s130 32.334 212 71.001c76.667 35.333 137.667 71.333 183 108c4 0 -3 0.666992 -21 2c-38 2.66699 -69 4 -93 4
c-25.333 0 -55.666 -1.66699 -90.999 -5c-40.667 -4 -59 -6 -55 -6c-6.66699 0 -12.334 1 -17.001 3l-4 10c0 30.667 13 50.334 39 59.001c23.333 8 57 12 101 12c45.333 0 90.666 -1.33301 135.999 -4c18 -1.33301 44.667 -3 80 -5c55.333 51.333 83 102.666 83 153.999
c0 24.667 -15.333 48.334 -46 71.001c-32.667 22.667 -83 34 -151 34c-32.667 0 -77.667 -3.66699 -135 -11c-38.667 -5.33301 -75 -11 -109 -17c-36.667 -6.66699 -58.667 -10 -66 -10c-3.33301 0 -8 1 -14 3c-2.66699 3.33301 -4 7.33301 -4 12
c0 12.667 3.33301 26.667 10 42c7.33301 18 16.333 29 27 33c72 29.333 169.667 44 293 44c84 0 154 -12.333 210 -37c76.667 -33.333 115 -86 115 -158c0 -61.333 -26.667 -118.666 -80 -171.999c70.667 0 106 -6.66699 106 -20z" />
    <glyph glyph-name="bracketleft" unicode="[" horiz-adv-x="530" 
d="M329 614l-166.001 -636.999c-2 -8 -3 -13.667 -3 -17c0 -10.667 3 -16.667 9 -18s14 -2.66602 24 -3.99902h65c13.333 0 20.666 -3.66699 21.999 -11c-2 -8 -8 -18 -18 -30c-14 -17.333 -28.667 -26.333 -44 -27c-39.333 -1.33301 -61.666 -2 -66.999 -2
c-30.667 0 -55.167 3 -73.5 9s-27.5 24.333 -27.5 55c0 3.33301 2.66699 12.666 8 27.999c6 18 9.33301 28.333 10 31l168 643c6 23.333 11.667 38.666 17 45.999c8.66699 12 22.667 18 42 18h146c26.667 0 40 -8 40 -24c0 -1.33301 -0.333008 -3 -1 -5
c-7.33301 -21.333 -16.166 -35.833 -26.499 -43.5s-26.833 -11.5 -49.5 -11.5h-75z" />
    <glyph glyph-name="backslash" unicode="\" horiz-adv-x="397" 
d="M372 -132l-63 -19l-284 875l61 17z" />
    <glyph glyph-name="bracketright" unicode="]" horiz-adv-x="543" 
d="M481 640c0 -6.66699 -2.33008 -16.3311 -6.99707 -28.998s-7.33398 -21.667 -8.00098 -27h-1c-0.666992 -2 -1.33398 -5 -2.00098 -9l-168 -644c-0.666992 -2.66699 -2 -6.33398 -4 -11.001c-6.66699 -20.667 -12 -33.667 -16 -39c-7.33301 -8.66699 -20.333 -13 -39 -13
l-143 -1c-24 0 -38 6 -42 18c-0.666992 2.66699 -1 5 -1 7l1 2v3c2.66699 22 11.667 37 27 45c12.667 6.66699 29 10 49 10l75 -1l166 637c2 8 3 14 3 18c0 10.667 -3 16.667 -9 18s-14 2.66602 -24 3.99902c-24 -0.666992 -51.667 0.333008 -83 3l-4 8
c0.666992 4 5 12 13 24c14.667 21.333 31 32.333 49 33c39.333 1.33301 61.666 2 66.999 2c52.667 0 84 -8.33301 94 -25c4.66699 -8.66699 7 -19.667 7 -33z" />
    <glyph glyph-name="asciicircum" unicode="^" horiz-adv-x="415" 
d="M390 654l-40 -36l-147 116l-140 -117l-38 36l178 148z" />
    <glyph glyph-name="underscore" unicode="_" horiz-adv-x="723" 
d="M698 -204l-14 -62h-659l14 62h659z" />
    <glyph glyph-name="grave" unicode="`" horiz-adv-x="240" 
d="M215 513c0 -4.66699 -1.99902 -10 -5.99902 -16s-8 -8.33301 -12 -7s-9.66699 3.33301 -17 6c-20.667 12 -48.334 32 -83.001 60c-38 30 -62 52 -72 66l1 3h81c15.333 -21.333 38 -46 68 -74c10.667 -7.33301 24 -19 40 -35v-3z" />
    <glyph glyph-name="a" unicode="a" horiz-adv-x="637" 
d="M612 112l-18.0029 -71.001c-19.333 -19.333 -37.666 -32.666 -54.999 -39.999c-30 -12.667 -57.333 -19 -82 -19c-19.333 0 -37.166 6.16699 -53.499 18.5s-24.5 28.166 -24.5 47.499c0 25.333 6.33301 50 19 74h-10c-8 -27.333 -28.167 -54.166 -60.5 -80.499
s-63.166 -42.5 -92.499 -48.5s-48.666 -9 -57.999 -9c-45.333 0 -82 13.667 -110 41s-42 63.666 -42 108.999v6c0 66.667 33.167 129.334 99.5 188.001s141.166 88 224.499 88c28.667 0 66 -11.667 112 -35l9 35h99l-70 -278c-4 -16 -6 -31.667 -6 -47
c0 -14 5.66699 -21 17 -21c20 0 54 14 102 42zM441.997 314.999c-28 13.333 -57.999 20 -89.999 20c-48 0 -89.667 -14.667 -125 -44c-40 -32.667 -64.667 -65.667 -74 -99c-7.33301 -25.333 -11 -43.333 -11 -54c0 -47.333 19.667 -71 59 -71
c51.333 0 101.666 29.333 150.999 88c40 48 70 101.333 90 160z" />
    <glyph glyph-name="b" unicode="b" horiz-adv-x="556" 
d="M531 252c0 -65.333 -28.667 -122.333 -86 -171c-63.333 -54 -127 -85 -191 -93c-33.333 -4 -58.666 -6 -75.999 -6c-36 0 -67.833 10.833 -95.5 32.5s-45.834 50.167 -54.501 85.5c-2 8.66699 -3 21 -3 37c0 16.667 3.33301 36.334 10 59.001
c5.33301 19.333 11 38.666 17 57.999l115 412h100l-87 -322l5 -5c51.333 51.333 113 77 185 77c40 0 77.333 -15.333 112 -46c32.667 -28.667 49 -68 49 -118zM414 247c0 22.667 -6.66699 42.501 -20 59.501s-31 25.5 -53 25.5c-49.333 0 -94.333 -22.5 -135 -67.5
s-61 -92.167 -61 -141.5c0 -14.667 5.16699 -28.834 15.5 -42.501s29.833 -20.5 58.5 -20.5c24 0 45 4.33301 63 13c33.333 14.667 63 38.334 89 71.001c28.667 35.333 43 69.666 43 102.999z" />
    <glyph glyph-name="c" unicode="c" horiz-adv-x="542" 
d="M518 303c0 -18 -3 -35.6689 -9 -53.002h-113c8.66699 18 13 36.333 13 55c0 33.333 -24.333 50 -73 50c-42 0 -82.833 -23.5 -122.5 -70.5s-59.5 -91.833 -59.5 -134.5c0 -28.667 9.33301 -50.167 28 -64.5s42.667 -21.5 72 -21.5c38 0 96.333 12.667 175 38
c26 8 48.333 17.333 67 28v-49c0 -15.333 -20.667 -32 -62 -50c-31.333 -14 -59.666 -23.667 -84.999 -29c-66.667 -13.333 -108 -20 -124 -20c-56.667 0 -98.667 12.667 -126 38c-41.333 36.667 -62 81.334 -62 134.001c0 6.66699 2.33301 21.667 7 45
c11.333 54.667 51.666 109 120.999 163c62.667 48.667 131.667 73 207 73c49.333 0 86 -13.167 110 -39.5s36 -57.166 36 -92.499z" />
    <glyph glyph-name="d" unicode="d" horiz-adv-x="662" 
d="M637 700l-139.001 -563c-6.66699 -27.333 -10 -46.666 -10 -57.999c0 -12 5 -18 15 -18s21 3 33 9l67 34c1.33301 -33.333 2 -50.333 2 -51c0 -20.667 -22 -38.334 -66 -53.001c-35.333 -12 -64.666 -18 -87.999 -18c-46 0 -69 18 -69 54v12c0 27.333 4.66699 52 14 74
h-9c-10.667 -33.333 -34 -63 -70 -89c-32 -23.333 -67 -39 -105 -47c-12.667 -2.66699 -24 -4 -34 -4c-44.667 0 -84 18 -118 54c-23.333 24 -35 60.667 -35 110c0 65.333 35.667 128.333 107 189c63.333 54.667 132 82 206 82c53.333 0 94.333 -8.66699 123 -26l76 309h100
zM442.999 319c-32.667 11.333 -66.666 17.001 -101.999 17.001c-42.667 0 -84.834 -18 -126.501 -54s-65.167 -75 -70.5 -117c0 -2.66699 -0.666992 -6.33398 -2 -11.001v-10c0 -22.667 4.66699 -39.667 14 -51c15.333 -21.333 34 -32 56 -32c10 0 34.333 8 73 24
c54 22.667 106.667 100.667 158 234z" />
    <glyph glyph-name="e" unicode="e" horiz-adv-x="547" 
d="M522 325c0 -57.333 -41.334 -105 -124.001 -143c-56 -26.667 -141.333 -40 -256 -40c0 -23.333 12 -43.333 36 -60c20.667 -14 56 -21 106 -21c-2 0 9 1.66699 33 5c8 1.33301 22.333 5 43 11c53.333 16 101 39.667 143 71v-53c0 -21.333 -21.333 -42.333 -64 -63
c-32.667 -15.333 -64 -26 -94 -32c-63.333 -12 -105 -18 -125 -18c-55.333 0 -101.666 16.5 -138.999 49.5s-56 76.5 -56 130.5c0 66 22.333 119.333 67 160c38 34 82.167 61.333 132.5 82s100.5 31 150.5 31c48 0 83.667 -10 107 -30c26.667 -23.333 40 -50 40 -80z
M404.999 321c0 6.66699 -5.66699 14 -17 22s-27.333 12 -48 12c-44 0 -84 -14 -120 -42s-62 -63.333 -78 -106h10c72 0 126.333 8 163 24c41.333 17.333 67 34.666 77 51.999c8.66699 14.667 13 27.334 13 38.001z" />
    <glyph glyph-name="f" unicode="f" horiz-adv-x="426" 
d="M414 420c0 -8.66699 -2.32812 -21.668 -6.99512 -39.001c-5.33301 -19.333 -10.333 -31 -15 -35c-30.667 -9.33301 -74 -14 -130 -14c96 -59.333 144 -133.333 144 -222c0 -10 -3 -29 -9 -57c-6.66699 -32 -27.334 -70 -62.001 -114
c-29.333 -38 -59.666 -69.667 -90.999 -95l-28 -21c-40.667 -30.667 -81.334 -46 -122.001 -46c-25.333 0 -45.333 8.16699 -60 24.5s-22 37.5 -22 63.5c0 9.33301 8.66699 48.666 26 117.999l87 344c-27.333 15.333 -57 23 -89 23c7.33301 28 16.666 56 27.999 84
c7.33301 0.666992 12 1 14 1c19.333 0 41.666 -7.66699 66.999 -23l74 288h100l-73 -292c4.66699 -0.666992 11.667 -1 21 -1c29.333 0 57.666 4 84.999 12c5.33301 0.666992 12.666 2.33398 21.999 5.00098c6.66699 2.66699 16.667 6.33398 30 11.001l7 -3
c2 -6 3 -10 3 -12zM289.005 109.999c0 76.667 -25.333 131 -76 163l-97 -376v-5c0 -14.667 5 -22 15 -22c8.66699 0 18.667 3.33301 30 10c26.667 16 51.667 41 75 75c22 32 37.333 64 46 96c4.66699 17.333 7 37 7 59z" />
    <glyph glyph-name="g" unicode="g" horiz-adv-x="601" 
d="M576 416l-89 -342c-6 -26.667 -16.667 -65.667 -32 -117c-32 -82.667 -81.667 -138.667 -149 -168c-39.333 -17.333 -78.333 -26 -117 -26c-56 0 -95.667 10.667 -119 32c-25.333 23.333 -39.666 47.666 -42.999 72.999c0 2.66699 -0.666992 6.66699 -2 12v17
c0 8.66699 1 17 3 25l100 -1l-2 -4v-8c-0.666992 -4.66699 -1 -7.66699 -1 -9c0 -18.667 8 -33 24 -43c13.333 -9.33301 29.666 -14 48.999 -14c38 0 69 11.667 93 35c29.333 30 52.333 67.333 69 112l38 126h-6l-1 -3c-8 -24.667 -29.333 -50 -64 -76
c-32 -24.667 -62 -40 -90 -46s-46 -9 -54 -9c-44 0 -83.333 18.333 -118 55c-23.333 24.667 -35 57.667 -35 99c0 42.667 15.333 85.667 46 129c25.333 36.667 58.333 69.334 99 98.001c50.667 36 107 54 169 54c52 0 93.333 -8.66699 124 -26l8 25h100zM451 319
c-31.333 11.333 -67.332 16.999 -107.999 16.999c-45.333 0 -89.333 -20.667 -132 -62s-64 -84.666 -64 -129.999c0 -44.667 18.333 -71.667 55 -81c6 -1.33301 10.667 -2 14 -2c15.333 0 33.666 5 54.999 15c38 18 74.667 53 110 105c28 41.333 51.333 87.333 70 138z" />
    <glyph glyph-name="h" unicode="h" horiz-adv-x="578" 
d="M553 52c0 -22 -18.999 -40.002 -56.999 -54.002c-30 -10.667 -57.667 -16 -83 -16c-23.333 0 -42 7.83301 -56 23.5s-21 35.167 -21 58.5c0 13.333 7.66699 44.333 23 93l30 93c7.33301 22.667 11 42.667 11 60c0 16.667 -7 25 -21 25c-4 0 -15.333 -4 -34 -12
c-15.333 -7.33301 -40 -29.666 -74 -66.999c-30.667 -35.333 -51.667 -62.666 -63 -81.999l-51 -92c-5.33301 -10.667 -16 -38 -32 -82h-100l162 700h100l-121 -508h4c15.333 46.667 43.166 92.5 83.499 137.5s82.833 76.5 127.5 94.5c18 7.33301 34 11 48 11
c22.667 0 41.667 -9 57 -27s23 -38.667 23 -62c0 -13.333 -4.66699 -36.666 -14 -69.999l-25 -86c-6 -18.667 -14.333 -46.334 -25 -83.001c-2.66699 -12 -3.66699 -22 -3 -30c0.666992 -2.66699 3.66699 -6.66699 9 -12l16 -4c21.333 3.33301 50 13.333 86 30v-39z" />
    <glyph glyph-name="i" unicode="i" horiz-adv-x="284" 
d="M259 542c0 -22 -7.66602 -40.166 -22.999 -54.499s-34 -21.5 -56 -21.5c-14 0 -25.667 4.16699 -35 12.5s-14 19.166 -14 32.499c0 22 6.66699 41.833 20 59.5s30.666 26.5 51.999 26.5c16 0 29.333 -5.16699 40 -15.5s16 -23.5 16 -39.5zM242.001 54.001
c0.666992 -20.667 -20.333 -38.668 -63 -54.001c-34 -12 -62 -18 -84 -18c-46.667 0 -70 26 -70 78c0 14 5.33301 41 16 81l73 275h100l-75 -279c-7.33301 -27.333 -11 -46.666 -11 -57.999c0 -12.667 5.66699 -19 17 -19c8 0 40 14.667 96 44z" />
    <glyph glyph-name="j" unicode="j" horiz-adv-x="468" 
d="M468 542c0 -21.333 -7.83301 -39.333 -23.5 -54s-34.167 -22 -55.5 -22c-33.333 0 -50 16.667 -50 50c0 -0.666992 0.333008 1 1 5c8.66699 50.667 32.667 76 72 76c16 0 29.333 -5.16699 40 -15.5s16 -23.5 16 -39.5zM423 416l-80.002 -329
c-24.667 -100.667 -52.667 -175.334 -84 -224.001c-22.667 -34 -59 -57 -109 -69c-30.667 -7.33301 -74.667 -11 -132 -11c-5.33301 0.666992 -9.66602 1.5 -12.999 2.5s-5 4.16699 -5 9.5c0 2 3 13.5 9 34.5s10 32.167 12 33.5h23c76 0 126.333 26.333 151 79
s47.334 123.334 68.001 212.001l60 262h100z" />
    <glyph glyph-name="k" unicode="k" horiz-adv-x="503" 
d="M503 374c-52 -61.333 -132.334 -118.666 -241.001 -171.999c38.667 -50 61.334 -78.667 68.001 -86c33.333 -36.667 62 -55 86 -55s47 13.667 69 41v-46c0 -10 -2.33301 -18 -7 -24c-9.33301 -11.333 -25.5 -22.5 -48.5 -33.5s-41.5 -16.5 -55.5 -16.5
c-11.333 0 -29 7 -53 21c-19.333 10 -45.333 34.667 -78 74l-48 57c-6.66699 8 -15.334 19.333 -26.001 34l-44 -168h-100l175 700h100l-116 -471l48 31c10.667 6.66699 28.667 20.667 54 42c56.667 47.333 100.334 91.666 131.001 132.999z" />
    <glyph glyph-name="l" unicode="l" horiz-adv-x="547" 
d="M522 586c0 -52 -25.166 -116.002 -75.499 -192.002s-151.833 -159.667 -304.5 -251c2.66699 -24 13 -43.667 31 -59s39 -23 63 -23c36 0 91.667 16 167 48c19.333 12 45 25.667 77 41c7.33301 -2.66699 11 -8 11 -16c0 -2 -0.833008 -4.5 -2.5 -7.5
s-2.5 -5.16699 -2.5 -6.5l-10 -44c-94 -62.667 -181.333 -94 -262 -94c-50 0 -94 15.167 -132 45.5s-57 78.5 -57 144.5c0 36.667 9.33301 89 28 157c20 76 63.667 153.333 131 232l23 27c29.333 34.667 67.333 65.334 114 92.001c27.333 15.333 55.333 23 84 23
c33.333 0 61.166 -11.167 83.499 -33.5s33.5 -50.166 33.5 -83.499zM405.001 588.998c0 22.667 -6.33203 33.999 -18.999 33.999c-18.667 0 -43 -15 -73 -45c-18.667 -18.667 -41.334 -48 -68.001 -88c-56 -84 -90 -174.333 -102 -271c64 44 121 97.667 171 161
c60.667 76.667 91 146.334 91 209.001z" />
    <glyph glyph-name="m" unicode="m" horiz-adv-x="876" 
d="M851 99l-14.999 -65.0029c-2 -8.66699 -17 -18.667 -45 -30c-25.333 -10 -44.666 -15.667 -57.999 -17c-27.333 -3.33301 -43 -5 -47 -5l-4 1c-42 9.33301 -63 41.666 -63 96.999c0 6.66699 3.33301 21.667 10 45c5.33301 18 13 45.333 23 82c2 5.33301 5 14 9 26l16 47
c6.66699 19.333 10 35.333 10 48l-1 6l-5 4l-10 2c-16.667 0 -36 -10.667 -58 -32c-42 -39.333 -88.667 -94.666 -140 -165.999c-27.333 -37.333 -48 -84.666 -62 -141.999h-100l63 259c6 24.667 9 40.334 9 47.001c0 18 -5 27 -15 27c-24.667 0 -63 -35 -115 -105
c-38.667 -51.333 -68 -95.666 -88 -132.999c-17.333 -32.667 -31 -64.334 -41 -95.001h-99l100 416h101l-67 -221h7c44 113.333 115.667 190 215 230c17.333 6.66699 34 10 50 10c18.667 0 34.834 -6.33301 48.501 -19s20.5 -28.334 20.5 -47.001
c0 -54.667 -9.33301 -97.667 -28 -129h6l7 14c16.667 33.333 44.667 68 84 104s75.666 59.333 108.999 70c15.333 4.66699 30.666 7 45.999 7l6 -1c46 -8 69 -33.333 69 -76c0 -18 -5.33301 -44.333 -16 -79c-12.667 -36.667 -30 -92 -52 -166l-5 -33
c-0.666992 -5.33301 1 -9.16602 5 -11.499s8.66699 -4.16602 14 -5.49902c23.333 0 58.666 12 105.999 36z" />
    <glyph glyph-name="n" unicode="n" horiz-adv-x="585" 
d="M560 53l-1.00098 -12.9961l-6 -12c-5.33301 -7.33301 -25.5 -16.833 -60.5 -28.5s-60.167 -17.5 -75.5 -17.5c-6.66699 0 -18 2.66699 -34 8c-10.667 3.33301 -21 11.666 -31 24.999c-8.66699 11.333 -13 31 -13 59c0 6 5 26 15 60l45 139c4 12.667 6 24.667 6 36
c0 9.33301 -1.5 15.666 -4.5 18.999s-8.16699 5 -15.5 5c-18.667 0 -44 -14.333 -76 -43c-83.333 -74.667 -140.666 -159.334 -171.999 -254.001c-1.33301 -8 -5 -19 -11 -33v-3h-101l99 416h100l-55 -219h4c16.667 39.333 41.5 78.333 74.5 117s67.5 69 103.5 91
c34 20 62 30 84 30s40.667 -7.66699 56 -23s23 -34 23 -56c0 -26.667 -11.667 -76.667 -35 -150l-23 -72c-6.66699 -20.667 -10 -34 -10 -40c0 -18.667 8.66699 -29.334 26 -32.001c28.667 5.33301 58 15.333 88 30v-39z" />
    <glyph glyph-name="o" unicode="o" horiz-adv-x="580" 
d="M543 256c0 -66.667 -21.666 -122 -64.999 -166c-70.667 -72 -149.667 -108 -237 -108c-56 0 -106 19 -150 57c-36 30.667 -54 73.667 -54 129c0 70 33.167 132 99.5 186s143.166 81 230.499 81c52 0 94.333 -16.667 127 -50s49 -76.333 49 -129zM426.001 269
c0 28.667 -11.332 50.667 -33.999 66c-20 13.333 -45.333 20 -76 20c-38 0 -72.333 -19 -103 -57c-26.667 -32 -44.667 -69 -54 -111c-3.33301 -14.667 -5 -28 -5 -40c0 -27.333 9.16699 -48.5 27.5 -63.5s41.166 -22.5 68.499 -22.5c46 0 84.667 17.667 116 53
c34.667 39.333 54 78.333 58 117c1.33301 15.333 2 28 2 38z" />
    <glyph glyph-name="p" unicode="p" horiz-adv-x="623" 
d="M598 271c0 -79.333 -39.666 -151.667 -118.999 -217c-58.667 -48.667 -130.334 -73 -215.001 -73c-39.333 0 -76 9 -110 27l-54 -221h-100l159 648h100l-40 -164l9 3c18.667 44.667 49.667 82.5 93 113.5s88.666 46.5 135.999 46.5c34.667 0 67.334 -14.333 98.001 -43
c28.667 -26.667 43 -66.667 43 -120zM481.001 265.999c0 20 -5 38.0029 -15 54.0029c-10.667 18.667 -25 29.667 -43 33c-6 0.666992 -12.667 1 -20 1c-31.333 0 -62 -16 -92 -48c-44.667 -46.667 -83 -104.334 -115 -173.001c-10.667 -22.667 -17.667 -40.334 -21 -53.001
c20 -10.667 50.333 -16 91 -16c43.333 0 83 14 119 42c64 49.333 96 102.666 96 159.999z" />
    <glyph glyph-name="q" unicode="q" horiz-adv-x="575" 
d="M575 416l-158.001 -643h-100l82 343h-8c-29.333 -52 -76.333 -91.333 -141 -118c-17.333 -6.66699 -30 -10.667 -38 -12l-35 -4c-12.667 -1.33301 -27 1 -43 7c-72.667 28 -109 77 -109 147c0 21.333 6 47.333 18 78c20 54 61 103 123 147c50.667 35.333 109 53 175 53
c36.667 0 78.334 -7.66699 125.001 -23l9 25h100zM449.999 319c-30.667 10.667 -60.334 16.002 -89.001 16.002c-50 0 -92.333 -13.333 -127 -40c-47.333 -36 -76.666 -76.667 -87.999 -122c-2 -12.667 -3.33301 -22.334 -4 -29.001c0 -24 6 -43.333 18 -58
c13.333 -16.667 31.333 -25 54 -25c26 0 60.167 17.167 102.5 51.5s86.833 103.166 133.5 206.499z" />
    <glyph glyph-name="r" unicode="r" horiz-adv-x="482" 
d="M482 416l-28 -105.001c-22 -8.66699 -39.333 -16 -52 -22c-0.666992 0 -29.334 -15.333 -86.001 -46c-20.667 -10.667 -51.334 -28 -92.001 -52c-25.333 -16.667 -45.333 -32.334 -60 -47.001c-0.666992 -0.666992 -6 -7.66699 -16 -21c-4 -5.33301 -6 -14 -6 -26l3 -5
c12.667 -20.667 34.667 -31 66 -31c40.667 0 93.334 15 158.001 45c8 4.66699 20.667 10.334 38 17.001c7.33301 -2.66699 11 -7.66699 11 -15c0 4.66699 -1.66699 0 -5 -14l-10 -42c-33.333 -22.667 -64.333 -38.667 -93 -48c-23.333 -7.33301 -56.666 -14 -99.999 -20
c-13.333 -1.33301 -28 -2 -44 -2c-38 0 -67.667 7 -89 21c-34.667 23.333 -52 52.333 -52 87c0 50.667 42.333 103 127 157c57.333 36.667 122 67.667 194 93v9c-47.333 -17.333 -102 -26 -164 -26c-8 0 -22 2.66699 -42 8l-36 -46h-44c-12 0 -19.333 0.333008 -22 1
c-6 2.66699 -9 8.33398 -9 17.001c2.66699 7.33301 8 16.333 16 27c6 8.66699 12.333 17 19 25l-7 6c-2 3.33301 -4.66699 8.33301 -8 15c-0.666992 2.66699 -2 7 -4 13c0 4 0.666992 9.66699 2 17c7.33301 36 42.333 70.667 105 104h79l-44 -100
c25.333 -6.66699 54 -10 86 -10c17.333 0 87 5.33301 209 16z" />
    <glyph glyph-name="s" unicode="s" horiz-adv-x="554" 
d="M529 402l-18 -74.9971c-50.667 18.667 -106.667 28 -168 28c-40 0 -71.667 -4.66699 -95 -14c-26 -10.667 -41.667 -20.834 -47 -30.501s-8 -16.5 -8 -20.5c0 -18 11.333 -28 34 -30c20.667 -2 52.167 -4.33301 94.5 -7s68.5 -4.66699 78.5 -6
c32 -4.66699 56 -14.334 72 -29.001c20.667 -18.667 31 -41.334 31 -68.001c0 -47.333 -19 -83 -57 -107c-62.667 -40.667 -144.667 -61 -246 -61c-50.667 0 -109 14.667 -175 44l22 78c53.333 -28.667 111 -43 173 -43c23.333 0 44 2 62 6c69.333 14 104 34.333 104 61
c0 10 -7.33301 17 -22 21c-17.333 4 -41 7.66699 -71 11l-73 6c-38 4 -71 13.333 -99 28c-30 14 -45 40 -45 78c0 12 3.66699 28.667 11 50c9.33301 26 34 51.667 74 77c38 24 92.667 36 164 36c86 0 146.667 -8 182 -24z" />
    <glyph glyph-name="t" unicode="t" horiz-adv-x="412" 
d="M386 409c0 -0.666992 -0.331055 -1.66797 -0.998047 -3.00098v-3l-2 -3l-6 -35c-1.33301 -9.33301 -9 -16.333 -23 -21c-22 -7.33301 -65 -11 -129 -11l-30 -136c-11.333 -51.333 -17 -85 -17 -101c0 -23.333 10.667 -35 32 -35c11.333 0 33.666 6.33301 66.999 19
c21.333 8 47.666 21.667 78.999 41l10 2c4 0 6.83301 -1.16699 8.5 -3.5s2.5 -5.83301 2.5 -10.5c0 -0.666992 -0.333008 -1.66699 -1 -3c-3.33301 -22 -5.33301 -33.667 -6 -35c-3.33301 -14.667 -9.33301 -24.334 -18 -29.001c-63.333 -33.333 -111 -52.333 -143 -57
c-14.667 -2 -31.334 -3 -50.001 -3c-31.333 0 -54.666 13.667 -69.999 41c-12 21.333 -18 49 -18 83c0 24.667 8.66699 68 26 130c7.33301 26.667 15 59 23 97c-19.333 0 -48 1 -86 3c-6 0.666992 -9 6.66699 -9 18l10 46c2.66699 10.667 4 16.334 4 17.001
c2.66699 4.66699 7.66699 7 15 7c6 0 20 -3 42 -9s35.667 -8.66699 41 -8l47 186h100l-44 -188c29.333 2 51 4.66699 65 8c38 8.66699 58.667 13 62 13c6 0 12 -2.33301 18 -7c0.666992 -1.33301 1 -4.66602 1 -9.99902z" />
    <glyph glyph-name="u" unicode="u" horiz-adv-x="580" 
d="M555 54c0 -20 -20.667 -37.666 -62 -52.999c-34 -12.667 -62.333 -19 -85 -19c-19.333 0 -36 4 -50 12c-18 10 -26.333 24 -25 42c0.666992 11.333 2.33398 28.666 5.00098 51.999c2 6.66699 4.66699 16.334 8 29.001c7.33301 30.667 21.333 71.667 42 123h-7l-18 -41
c-2.66699 -4 -6.33398 -10 -11.001 -18c-23.333 -38.667 -46.666 -70.334 -69.999 -95.001c-36.667 -40 -65.334 -65 -86.001 -75c-12 -6 -27 -13 -45 -21c-11.333 -5.33301 -25.333 -8 -42 -8c-27.333 0 -48.666 10.667 -63.999 32c-13.333 18.667 -20 42.334 -20 71.001
c0 10 7.33301 39 22 87l75 244h100l-81 -263c-0.666992 -1.33301 -1.33398 -3 -2.00098 -5c0 -4.66699 -2 -13.334 -6 -26.001s-6 -23.334 -6 -32.001c0 -14.667 6 -22 18 -22c24 0 56.667 20.333 98 61c89.333 87.333 150 183 182 287h99l-75 -279
c-7.33301 -27.333 -11 -45.666 -11 -54.999c0 -8.66699 1.33301 -14.667 4 -18l10 -5h6c8 0 40 15 96 45z" />
    <glyph glyph-name="v" unicode="v" horiz-adv-x="505" 
d="M493 407l-101 -134c6 -8.66699 21.667 -14.667 47 -18c19.333 -2 36.666 -2.33301 51.999 -1l-12 -50c-10.667 -6 -28.667 -9 -54 -9c-26.667 0 -50.667 8.33301 -72 25l-166 -220h-100l-62 416h100l51 -304l118 149c-5.33301 6 -10.666 14.333 -15.999 25v9
c0 15.333 2.33301 28.666 7 39.999c6.66699 16.667 26 35.334 58 56.001l71 44z" />
    <glyph glyph-name="w" unicode="w" horiz-adv-x="666" 
d="M666 268l-19 -66.999c-13.333 -3.33301 -37 -5 -71 -5c-13.333 0 -32 4.66699 -56 14l-156 -210h-76l-24 235l-161 -235h-86c-11.333 120.667 -17 201.667 -17 243v110c0 2.66699 4.66699 23.667 14 63h100c-8.66699 -42 -13 -93.333 -13 -154
c0 -70.667 2.66699 -110 8 -118l144 272h100l23 -282l84 119c-6 12 -9 26 -9 42c0 17.333 8.33301 34.333 25 51l46 38c10.667 9.33301 33.667 25.666 69 48.999l75 -26l-104 -141c8 -1.33301 18.333 -4 31 -8h16c20.667 0 39.667 3.33301 57 10z" />
    <glyph glyph-name="x" unicode="x" horiz-adv-x="562" 
d="M537 382c-22 -28.667 -54.666 -64.666 -97.999 -107.999c-40 -40 -77.333 -73 -112 -99c26 -44 54 -74.333 84 -91c5.33301 -1.33301 11 -2.66602 17 -3.99902c24.667 0 56.667 23 96 69c0 -19.333 -2 -45.333 -6 -78c0 -0.666992 -1.83301 -4.83398 -5.5 -12.501
s-13.167 -18 -28.5 -31s-27.333 -21.5 -36 -25.5c-30 -13.333 -49.667 -20 -59 -20c-10.667 0 -27.834 6.33301 -51.501 19s-51.834 48 -84.501 106c-48.667 -41.333 -91 -74.333 -127 -99c-4 -2.66699 -20.333 -11.334 -49 -26.001l-52 76
c78.667 48 139.667 88.667 183 122c-9.33301 14.667 -22.666 41.667 -39.999 81c-15.333 36 -26.333 64.333 -33 85l-25 89h114c0 -56 19 -117.333 57 -184c27.333 17.333 61 46 101 86c36.667 37.333 65 70 85 98z" />
    <glyph glyph-name="y" unicode="y" horiz-adv-x="518" 
d="M518 416l-89.999 -324c-22 -78.667 -50 -148 -84 -208c-35.333 -62 -97.333 -93 -186 -93c-10 0 -30.667 0.333008 -62 1c-36 1.33301 -51 2 -45 2l25 72c31.333 -2.66699 49.666 -4 54.999 -4c32.667 0 65 9.66699 97 29c24.667 15.333 44.667 37.333 60 66
c8 15.333 19 43.333 33 84c10.667 32 27.667 80.333 51 145h-8c-17.333 -46.667 -49.333 -91.334 -96 -134.001c-51.333 -46.667 -99.666 -70 -144.999 -70l-19 3c-38.667 6 -63.334 26 -74.001 60c-3.33301 10 -5 22 -5 36c0 15.333 3 33.333 9 54l81 281h100l-83 -284
c-4 -14 -6 -26.667 -6 -38c0 -16 7 -27 21 -33h5c21.333 0 47 12 77 36c20.667 16.667 40.667 34.334 60 53.001c52 50 95 138.667 129 266h100z" />
    <glyph glyph-name="z" unicode="z" horiz-adv-x="542" 
d="M517 337c0 -41.333 -43.3369 -87.6709 -130.004 -139.004c-33.333 -19.333 -91.333 -47.666 -174 -84.999c-14.667 -7.33301 -37 -17.333 -67 -30v-7c40.667 -10 88.667 -15 144 -15c46.667 0 87.334 7.33301 122.001 22c40.667 17.333 59.334 26 56.001 26
c10 0 15 -3.33301 15 -10c0 -0.666992 -0.333008 -1.66699 -1 -3v-4c-0.666992 -1.33301 -4.66699 -14.333 -12 -39c-35.333 -16 -76 -31 -122 -45c-56.667 -17.333 -101 -26 -133 -26c-27.333 0 -59.333 4 -96 12c-39.333 8.66699 -70.666 19.334 -93.999 32.001l26 94
c36.667 16 91 41 163 75l112 62c16 8 39 22 69 42l4 6l1 8c0 24 -31.667 37.667 -95 41c-14.667 0.666992 -23 1 -25 1c-19.333 -1.33301 -35 -2 -47 -2c-3.33301 -1.33301 -7.66602 -2.66602 -12.999 -3.99902c-7.33301 -1.33301 -18 -3.66602 -32 -6.99902
c-0.666992 0 -10 -3.33301 -28 -10c-12 -4 -21.667 -6 -29 -6c-4.66699 0 -8 1.16699 -10 3.5s-3 6.16602 -3 11.499c0 8.66699 5.66699 28.334 17 59.001c65.333 23.333 140.333 35 225 35c38 0 71.667 -6.66699 101 -20c37.333 -18 56 -44 56 -78z" />
    <glyph glyph-name="braceleft" unicode="{" horiz-adv-x="386" 
d="M386 750l-18 -57.999c-3.33301 0.666992 -8.33301 1 -15 1c-36.667 0 -63.334 -18.333 -80.001 -55c-18.667 -40.667 -32.667 -82 -42 -124c-3.33301 -17.333 -9.33301 -41.333 -18 -72c-9.33301 -24.667 -21 -45.334 -35 -62.001c-11.333 -13.333 -28.333 -20 -51 -20
c-0.666992 0 -3 0.666992 -7 2l27 -28c10 -12 16 -23 18 -33l5 -25c0 -32 -15.667 -89 -47 -171c-8 -20.667 -12 -37 -12 -49c0 -28.667 10.667 -46.667 32 -54c6 -1.33301 13.667 -3.33301 23 -6l-14 -56c-5.33301 -0.666992 -13.333 -1 -24 -1
c-28 0 -53.667 10.333 -77 31s-38 45 -44 73c0 2 -0.666992 5 -2 9v10c0 9.33301 4.66699 29 14 59c31.333 100.667 47 160.334 47 179.001s-6.66699 32 -20 40c-8 5.33301 -23.333 9.33301 -46 12l21 70c4.66699 0 8.33398 -0.666992 11.001 -2h10c28 0 48 10 60 30
c9.33301 15.333 22.333 51 39 107c13.333 44 23.333 74 30 90c12.667 29.333 30.167 55.666 52.5 78.999s58.5 35 108.5 35c15.333 0 33.333 -3.66699 54 -11z" />
    <glyph glyph-name="bar" unicode="|" horiz-adv-x="162" 
d="M112 -242h-62v1118h62v-1118z" />
    <glyph glyph-name="braceright" unicode="}" horiz-adv-x="385" 
d="M379 336l-18.999 -70.999c-15.333 1.33301 -22.333 2 -21 2c-24 0 -41 -7 -51 -21c-18.667 -25.333 -34.334 -67.666 -47.001 -126.999c-10.667 -50.667 -29.334 -96.667 -56.001 -138c-23.333 -36 -65.333 -54 -126 -54c-14 0 -32 3.66699 -54 11l16 57
c3.33301 -0.666992 8.33301 -1 15 -1c35.333 0 61.333 17.667 78 53c12 26 24.667 65.667 38 119c16 64.667 24.333 97.667 25 99c16 42.667 38.333 64 67 64l16 -2c-35.333 21.333 -53 49.333 -53 84c0 12 2 25.333 6 40l41 144c4 13.333 6 25.333 6 36
c0 14.667 -3 26.334 -9 35.001c-8 10 -15.667 16.333 -23 19c-3.33301 1.33301 -11.666 3.66602 -24.999 6.99902l13 55c2.66699 0 6.5 0.333008 11.5 1s8.5 1 10.5 1c32.667 0 62.167 -12.333 88.5 -37s39.5 -53.334 39.5 -86.001v-11c0 -2.66699 -4 -18.834 -12 -48.501
l-35 -131.5c-0.666992 -4 -3 -20 -7 -48c0 -34 22.333 -51 67 -51z" />
    <glyph glyph-name="ch126" unicode="~" horiz-adv-x="637" 
d="M637 439c-96.667 -72 -167.667 -108 -213 -108c-11.333 0 -29.333 3.33301 -54 10c-28 7.33301 -53.333 15 -76 23l-49.5 17c-16.333 5.33301 -34.833 8 -55.5 8c-5.33301 0 -13.666 -1 -24.999 -3c-46 -8 -92.667 -27 -140 -57l-24 34c27.333 27.333 62 51.333 104 72
c46 22.667 86.333 34 121 34c25.333 0 63.666 -8 114.999 -24c62 -19.333 101.667 -29 119 -29s42.333 6.66699 75 20c29.333 11.333 53 23 71 35z" />
    <glyph glyph-name="c128" 
 />
    <glyph glyph-name="c129" 
 />
    <glyph glyph-name="c141" 
 />
    <glyph glyph-name="c142" 
 />
    <glyph glyph-name="c143" 
 />
    <glyph glyph-name="c144" 
 />
    <glyph glyph-name="c157" 
 />
    <glyph glyph-name="c158" 
 />
    <glyph glyph-name="nonbreakingspace" unicode="&#xa0;" horiz-adv-x="580" 
 />
    <glyph glyph-name="exclamdown" unicode="&#xa1;" horiz-adv-x="814" 
d="M666 852l-0.998047 -0.999023c-1.33301 -4 -2 -6.66699 -2 -8l-14 -40c-20.667 -16.667 -51.667 -37.334 -93 -62.001c-15.333 -10 -39 -23.667 -71 -41c-15.333 -6.66699 -29.666 -10 -42.999 -10c-17.333 0 -44 15 -80 45s-54 52.667 -54 68l3 15
c9.33301 14.667 20.333 27 33 37c9.33301 2.66699 15 4 17 4c1.33301 0 15.666 -10.167 42.999 -30.5s48 -30.5 62 -30.5c21.333 0 61.333 14 120 42c19.333 11.333 42.666 23 69.999 35l4 -1c3.33301 -2.66699 5.66602 -7 6.99902 -13v-2c0 -2.66699 -0.333008 -5 -1 -7z
M789.002 285.001l-27 -85.998c-36.667 -18.667 -86 -35 -148 -49c-13.333 -36 -28 -68.333 -44 -97c-38.667 -68.667 -93.5 -124.5 -164.5 -167.5s-145.167 -64.5 -222.5 -64.5c-50 0 -89 9 -117 27c-44 28 -66 59.667 -66 95c0 47.333 16.333 85.666 49 114.999
c38 35.333 84 61.333 138 78c24.667 8 77.334 19.333 158.001 34c74.667 13.333 133.667 23 177 29l99 291h-11c-9.33301 -16.667 -20 -33 -32 -49l-42 -56c-24.667 -33.333 -54 -63.666 -88 -90.999c-42.667 -35.333 -79 -53 -109 -53c-37.333 0 -67 15.333 -89 46
c-29.333 40 -52.666 103.667 -69.999 191c-16.667 82 -25 152.667 -25 212c0 34.667 1 58 3 70h115c0 4 1.33301 -23.333 4 -82c10 -220 39.667 -330 89 -330c18 0 37 11 57 33l60 67c40 44.667 75.667 95 107 151c19.333 34.667 46.666 88.334 81.999 161.001h115
c-6.66699 -18.667 -15 -46.667 -25 -84c-12.667 -58.667 -31.667 -133.334 -57 -224.001c-36 -126 -57 -200.333 -63 -223c45.333 13.333 70.666 20.666 75.999 21.999c27.333 9.33301 51 20.666 71 33.999zM488.002 120.003
c-80.667 -15.333 -132.999 -25.999 -156.999 -31.999c-58 -14.667 -108 -32.334 -150 -53.001c-46.667 -23.333 -70 -54 -70 -92c0 -17.333 10 -31 30 -41c16 -7.33301 33.667 -11 53 -11c69.333 0 140.666 36.333 213.999 109c35.333 35.333 62 75.333 80 120z" />
    <glyph glyph-name="cent" unicode="&#xa2;" horiz-adv-x="518" 
d="M502 641c0 -5.33301 -7.66895 -27.332 -23.002 -65.999c-21.333 -24.667 -64.666 -56.334 -129.999 -95.001c-13.333 -8 -24.666 -12 -33.999 -12c-11.333 0 -31 9.66699 -59 29c-44.667 30.667 -67 57.667 -67 81c0 11.333 2.33301 23.333 7 36
c6 15.333 13.667 24 23 26c8 -1.33301 15.167 -5.33301 21.5 -12l18.5 -19c30 -28 53 -44.333 69 -49l22 9c10.667 4.66699 24 12.334 40 23.001c23.333 16.667 36 25.667 38 27l48 30l15 6h2c6 -2.66699 9 -7.33398 9 -14.001zM517.998 416.001l-90 -324
c-24.667 -89.333 -55 -163 -91 -221c-37.333 -60.667 -95.666 -91 -174.999 -91c-43.333 0 -80.333 4.66699 -111 14l25 72c31.333 -2.66699 49.666 -4 54.999 -4c32.667 0 65 9.66699 97 29c24.667 15.333 44.667 37.333 60 66c8 15.333 19 43.333 33 84
c10.667 32 27.667 80.333 51 145h-8c-17.333 -46.667 -49.333 -91.334 -96 -134.001c-51.333 -46.667 -99.666 -70 -144.999 -70l-19 3c-38.667 6 -63.334 26 -74.001 60c-3.33301 10 -5 22 -5 36c0 15.333 3 33.333 9 54l81 281h100l-83 -284c-4 -14 -6 -26.667 -6 -38
c0 -16 7 -27 21 -33h5c21.333 0 47 12 77 36c20.667 16.667 40.667 34.334 60 53.001c52 50 95 138.667 129 266h100z" />
    <glyph glyph-name="sterling" unicode="&#xa3;" horiz-adv-x="626" 
d="M626 700l-123.001 -488l-24 -107c-10 -40.667 -21 -75.334 -33 -104.001c-23.333 -55.333 -48.666 -95.666 -75.999 -120.999c-56 -52.667 -122.333 -79 -199 -79c-22 0 -41.667 2.33301 -59 7c5.33301 22 11.333 44.667 18 68c2 2.66699 9 4 21 4c2 0 5 -0.5 9 -1.5
s7 -1.5 9 -1.5c64.667 0 112 31 142 93c28 58.667 58.667 151 92 277l95 361c-108.667 -15.333 -201 -42 -277 -80c-52 -26 -78 -61.667 -78 -107c0 -7.33301 3.66699 -18.166 11 -32.499s24.333 -28.5 51 -42.5c21.333 -11.333 57.666 -17 108.999 -17
c8 0 13.333 -1.16699 16 -3.5s4 -7.16602 4 -14.499l-2 -4c-4.66699 -27.333 -7.66699 -42 -9 -44c-4 -6 -17.333 -9 -40 -9c-79.333 0 -137.666 12 -174.999 36c-55.333 35.333 -83 81.666 -83 138.999c0 48.667 25.333 91 76 127s111 64 181 84c44 12.667 110 26 198 40
c38 6 67.333 10.333 88 13c16 1.33301 35.333 3.66602 58 6.99902z" />
    <glyph glyph-name="currency" unicode="&#xa4;" horiz-adv-x="694" 
d="M657 -56l-58.999 -58.9961l-99 99c-56 -32 -106.667 -48 -152 -48c-60.667 0 -111.334 16.333 -152.001 49l-99 -100l-59 59l100 100c-31.333 35.333 -47 86.666 -47 153.999c0 49.333 15.667 96.666 47 141.999l-100 99l59 59l99 -99c25.333 19.333 49 32.333 71 39
c13.333 3.33301 40.333 7 81 11c9.33301 0.666992 26.333 -1 51 -5c36.667 -6 70.334 -21 101.001 -45l99 99l59 -59l-100 -99c23.333 -33.333 36.666 -63.333 39.999 -90c4.66699 -38.667 7 -65.334 7 -80.001c0 3.33301 -1.66699 -8.33398 -5 -35.001
c-3.33301 -30 -17.333 -60.333 -42 -91zM538.001 192.004c0 50 -19.333 95.667 -58 137c-34.667 36 -79 54 -133 54s-98 -18 -132 -54c-39.333 -41.333 -59 -87 -59 -137c0 -54 18.333 -99.333 55 -136s82 -55 136 -55c52.667 0 97.667 18.667 135 56s56 82.333 56 135z" />
    <glyph glyph-name="yen" unicode="&#xa5;" horiz-adv-x="815" 
d="M815 720c-0.666992 -9.33301 -2.33008 -22.6699 -4.99707 -40.0029c-4.66699 -30 -19.334 -58.5 -44.001 -85.5s-58 -40.5 -100 -40.5h-30c-8 0 -19.667 0.5 -35 1.5s-27 1.5 -35 1.5c-32 0 -88.667 -4.66699 -170 -14c-5.33301 -1.33301 -13.333 -3 -24 -5
c-42 -7.33301 -93 -18.333 -153 -33c-22.667 -5.33301 -39.334 -9.66602 -50.001 -12.999c-23.333 -7.33301 -38.666 -13.666 -45.999 -18.999s-16.333 -10.666 -27 -15.999h-2c-14 0 -21 17.333 -21 52c0 15.333 40.667 36 122 62c56 18 105.333 31.667 148 41
c65.333 14 120.333 23.667 165 29c24 2.66699 57.333 5 100 7c15.333 0.666992 30.666 1 45.999 1c18 2 31.667 7.33301 41 16c19.333 18 33.666 36.333 42.999 55h77zM539.004 522.996l-125.999 -429c-30 -101.333 -79.667 -175.333 -149 -222
c-52 -34.667 -107.333 -52 -166 -52c-38 0 -62.833 2 -74.5 6s-18.834 11.333 -21.501 22c-1.33301 5.33301 -2 16 -2 32l3 17c91.333 0 158.833 18.833 202.5 56.5s81.167 109.167 112.5 214.5l106 355h115z" />
    <glyph glyph-name="brokenbar" unicode="&#xa6;" horiz-adv-x="290" 
d="M240 303c0 -22.667 -7.49902 -41.002 -22.499 -55.002s-33.833 -21 -56.5 -21c-12.667 0 -24 4.33301 -34 13s-15 19.334 -15 32.001c0 22 6.66699 41.667 20 59s30.666 26 51.999 26c15.333 0 28.5 -5.16699 39.5 -15.5s16.5 -23.166 16.5 -38.499zM178.001 56.998
c0 -50 -27.666 -75 -82.999 -75c-12 0 -22.5 4.5 -31.5 13.5s-13.5 19.5 -13.5 31.5c0 22 6.66699 41.667 20 59s30.666 26 51.999 26c16 0 29.333 -5.16699 40 -15.5s16 -23.5 16 -39.5z" />
    <glyph glyph-name="section" unicode="&#xa7;" horiz-adv-x="577" 
d="M577 620c-2.66699 -8 -14.334 -16.667 -35.001 -26c-17.333 -7.33301 -31.666 -11.666 -42.999 -12.999l-10 3l-20 26c-8.66699 11.333 -21.334 17 -38.001 17c-28.667 0 -43 -40 -43 -120c0 -5.33301 2.33301 -21 7 -47c26 -144.667 39 -257 39 -337
c0 -72 -16.333 -128.667 -49 -170c-20.667 -26.667 -49 -40 -85 -40c-4.66699 -40 -21 -73.5 -49 -100.5s-61.667 -40.5 -101 -40.5c-28.667 0 -56.667 6.33301 -84 19c-29.333 14 -50.666 32.333 -63.999 55l-2 12c0 13.333 5.5 27.333 16.5 42s22.833 22 35.5 22
c9.33301 0 21.333 -4.66699 36 -14l33 -24l24 -4c12.667 0 22.334 6.66699 29.001 20c6 10.667 9 22.667 9 36c0 11.333 -3 29.666 -9 54.999l-14 56c-6 28 -12.667 64.667 -20 110c-14.667 88.667 -22 143.334 -22 164.001c0 84 24.667 159.667 74 227
c21.333 29.333 49.666 46 84.999 50c0 37.333 14.5 69.666 43.5 96.999s62.5 41 100.5 41c26 0 50.333 -6.66699 73 -20c49.333 -29.333 77 -61.333 83 -96zM333 185c0 52.667 -5.99805 104.333 -17.998 155s-18 87.334 -18 110.001c0 18.667 2.66699 33.334 8 44.001h-10
c-32.667 -46.667 -50.334 -91.334 -53.001 -134.001c-2.66699 -46 -4 -71 -4 -75c0 -37.333 6 -83 18 -137c15.333 -68 23 -110.333 23 -127c0 -7.33301 -0.333008 -12.5 -1 -15.5s-2.16699 -6.16699 -4.5 -9.5s-3.83301 -5.66602 -4.5 -6.99902l7 -1
c25.333 45.333 40.666 76.666 45.999 93.999c7.33301 23.333 11 57.666 11 102.999z" />
    <glyph glyph-name="dieresis" unicode="&#xa8;" horiz-adv-x="768" 
d="M768 860l-2.00098 -11.001c-0.666992 -3.33301 -2 -6.66602 -4 -9.99902c-19.333 -29.333 -52.666 -44 -99.999 -44c-34 0 -56.333 10.333 -67 31l-1 7c0 24.667 11 43.667 33 57c18 10.667 40 16 66 16c46.667 0 71.667 -15.333 75 -46zM486.999 859.999
l-2.00098 -11.001c-0.666992 -3.33301 -2 -6.66602 -4 -9.99902c-19.333 -29.333 -52.666 -44 -99.999 -44c-34 0 -56.333 10.333 -67 31l-1 7c0 24.667 11 43.667 33 57c18 10.667 40 16 66 16c46.667 0 71.667 -15.333 75 -46zM734.998 700.998
c0 -6 -3.17578 -17.1689 -9.50879 -33.502s-11.166 -24.5 -14.499 -24.5c-43.333 -0.666992 -108.333 -4.66699 -195 -12c-61.333 -8.66699 -114.666 -24 -159.999 -46c-78 -37.333 -117 -78 -117 -122c0 -28.667 15 -49.667 45 -63c22.667 -10 50.334 -15 83.001 -15
c3.33301 0 8.33301 -0.333008 15 -1s11.667 -1 15 -1h77c3.33301 0 9 0.666992 17 2c60.667 10 93.334 15 98.001 15c14.667 0 22 -5.66699 22 -17l-2 -10c-3.33301 -11.333 -6.33301 -23 -9 -35c-5.33301 -16 -11.666 -25 -18.999 -27
c-11.333 -3.33301 -25.666 -5 -42.999 -5h-44c-24 -1.33301 -50.333 -3.66602 -79 -6.99902c-79.333 -10 -139.333 -25 -180 -45c-58 -30 -87 -62.333 -87 -97l2 -17c2 -4 5.33301 -10.333 10 -19c6 -11.333 20.333 -22.333 43 -33c20 -10 60.333 -15 121 -15
c-1.33301 0 13.334 1.66699 44.001 5c62.667 6.66699 121.334 19 176.001 37c17.333 5.33301 44.333 16.333 81 33c4.66699 2.66699 12 6 22 10l13 2c5.33301 -3.33301 8 -10 8 -20c0 -3.33301 -1.33301 -8.83301 -4 -16.5s-5.66699 -14.5 -9 -20.5
c-10 -20 -35.667 -38.667 -77 -56s-77.666 -29.666 -108.999 -36.999c-18.667 -4.66699 -58.334 -12.334 -119.001 -23.001c-23.333 -4 -48.333 -6 -75 -6c-66 0 -117.333 10.667 -154 32s-62.667 45.666 -78 72.999c-4 6.66699 -8.66699 17 -14 31l-4 29
c-2 16 2.33301 36 13 60c2.66699 6.66699 8.66699 16.334 18 29.001c36 49.333 100 81 192 95v2c-2 0 -5.66699 1 -11 3c-75.333 26.667 -113 70.334 -113 131.001c0 58.667 37.667 114 113 166c86.667 59.333 225.334 89 416.001 89c54.667 0 82 -6.66699 82 -20z" />
    <glyph glyph-name="copyright" unicode="&#xa9;" horiz-adv-x="740" 
d="M740 350c0 -105.333 -35.666 -191.667 -106.999 -259c-37.333 -35.333 -75.333 -62 -114 -80c-42 -20 -95.667 -30 -161 -30c-88.667 0 -172 36 -250 108c-72 66.667 -108 153.667 -108 261s36 194.333 108 261c78 72.667 165.333 109 262 109
c58 0 107.333 -9.66699 148 -29c37.333 -18 75.666 -45.333 114.999 -82c71.333 -66.667 107 -153 107 -259zM702.001 343.999v6c0 100 -34.333 180.333 -103 241s-147 91 -235 91c-80.667 0 -156 -31.333 -226 -94c-66.667 -59.333 -100 -140.666 -100 -243.999
c0 -80 30.333 -154.333 91 -223s141 -103 241 -103c98 0 177.333 33.333 238 100c62.667 69.333 94 144.666 94 225.999zM579.001 237.999c0 -4 -2.66992 -10.999 -8.00293 -20.999l-2 -4c-12.667 -25.333 -45.667 -47.333 -99 -66c-44.667 -15.333 -83.667 -23 -117 -23
c-57.333 0 -105.333 17.667 -144 53c-40.667 36 -61 82.333 -61 139c0 71.333 25.333 133.5 76 186.5s111.334 79.5 182.001 79.5c36 0 67.667 -9.66699 95 -29c30 -22 45 -50.333 45 -85c0 -20.667 -4.66699 -37.334 -14 -50.001l-75 17c2 9.33301 3 19 3 29
c0 46.667 -22 70 -66 70c-40.667 0 -78.5 -20 -113.5 -60s-52.5 -87 -52.5 -141c0 -48 19.667 -87.333 59 -118c22.667 -17.333 52.667 -26 90 -26c38.667 0 66 3.33301 82 10c10.667 4 27.334 15.667 50.001 35c16.667 13.333 36.334 20 59.001 20
c0.666992 0 2 -0.333008 4 -1l5 -6z" />
    <glyph glyph-name="ordfeminine" unicode="&#xaa;" horiz-adv-x="743" 
d="M741 481c0 -16.667 -4.66895 -39.667 -14.002 -69l-122 -18l9 33c10.667 45.333 16 79 16 101c0 30.667 -6.66699 53.667 -20 69c-24 26.667 -54.667 40 -92 40c-56.667 0 -118.334 -25.667 -185.001 -77c-53.333 -41.333 -101 -91 -143 -149c36.667 4 64.667 6 84 6
c46.667 0 92 -3.66699 136 -11c67.333 -11.333 101 -28.666 101 -51.999c0 -27.333 -9 -41 -27 -41c-2.66699 0 -24.667 2.66699 -66 8s-74.666 8 -99.999 8c-43.333 0 -100 -10 -170 -30c-4.66699 -14 -7 -32.333 -7 -55c0 -38 18.167 -74.667 54.5 -110
s101.166 -53 194.499 -53c44.667 0 98 11 160 33c28 10 78.667 31.333 152 64c3.33301 -13.333 5 -27.666 5 -42.999c0 -63.333 -106 -113 -318 -149c-20 -3.33301 -43 -5 -69 -5c-75.333 0 -145.5 22.333 -210.5 67s-97.5 108 -97.5 190
c0 55.333 10.667 105.666 32 150.999c36.667 77.333 82.334 139.666 137.001 186.999l37 32c58.667 50.667 121.334 83 188.001 97c50.667 10 89.334 15 116.001 15c60 0 110.333 -13.667 151 -41c46.667 -31.333 70 -75.333 70 -132c0 -7.33301 -0.333008 -18.333 -1 -33
s-1 -25.667 -1 -33z" />
    <glyph glyph-name="guillemotleft" unicode="&#xab;" horiz-adv-x="457" 
d="M457 399c0 -6 -1.99805 -11 -5.99805 -15c-42 -39.333 -63.667 -59.666 -65 -60.999c-24 -24 -43.333 -46 -58 -66c-11.333 -15.333 -17 -32.333 -17 -51c0 -10.667 1.66699 -21 5 -31c9.33301 -26.667 17.666 -47.334 24.999 -62.001c8.66699 -16.667 16 -29.5 22 -38.5
l18 -26.5c6 -8.66699 9 -17 9 -25l-1 -3l-11 -9l-17 -2c-28 0 -61.667 23 -101 69s-59 84.667 -59 116c0 20.667 4.83301 39.5 14.5 56.5s35.167 43.833 76.5 80.5s71.166 59 89.499 67s37.5 12 57.5 12c12 0 18 -3.66699 18 -11zM281.002 399
c0 -6 -1.99805 -11 -5.99805 -15c-42 -39.333 -63.667 -59.666 -65 -60.999c-24 -24 -43.333 -46 -58 -66c-11.333 -15.333 -17 -32.333 -17 -51c0 -10.667 1.66699 -21 5 -31c9.33301 -26.667 17.666 -47.334 24.999 -62.001c8.66699 -16.667 16 -29.5 22 -38.5l18 -26.5
c6 -8.66699 9 -17 9 -25l-1 -3l-11 -9l-17 -2c-28 0 -61.667 23 -101 69s-59 84.667 -59 116c0 20.667 4.83301 39.5 14.5 56.5s35.167 43.833 76.5 80.5s71.166 59 89.499 67s37.5 12 57.5 12c12 0 18 -3.66699 18 -11z" />
    <glyph glyph-name="logicalnot" unicode="&#xac;" horiz-adv-x="618" 
d="M602 136h-52v113h-516v59h568v-172z" />
    <glyph glyph-name="minus" unicode="&#xad;" horiz-adv-x="387" 
d="M350 238c0 -7.33301 -4.50293 -19.332 -13.5029 -35.999s-18.5 -26.334 -28.5 -29.001s-35.333 -4.66699 -76 -6c-54 -2 -84 -3 -90 -3h-65c-1.33301 0 -3.66602 0.333008 -6.99902 1s-5.66602 1 -6.99902 1c-12 0 -21.333 4.66699 -28 14v4
c0 -2.66699 1 1.66602 3 12.999c4 22.667 6 34.334 6 35.001c4.66699 12.667 13 19 25 19s21 -1.66699 27 -5c0.666992 0 8.16699 -0.666992 22.5 -2s28.5 -2 42.5 -2h100c2 0 9.33301 1.16699 22 3.5s19.334 3.83301 20.001 4.5c12 2.66699 23 4 33 4
c9.33301 0 14 -5.33301 14 -16z" />
    <glyph glyph-name="minus" unicode="&#x2212;" horiz-adv-x="387" 
d="M350 238c0 -7.33301 -4.50293 -19.332 -13.5029 -35.999s-18.5 -26.334 -28.5 -29.001s-35.333 -4.66699 -76 -6c-54 -2 -84 -3 -90 -3h-65c-1.33301 0 -3.66602 0.333008 -6.99902 1s-5.66602 1 -6.99902 1c-12 0 -21.333 4.66699 -28 14v4
c0 -2.66699 1 1.66602 3 12.999c4 22.667 6 34.334 6 35.001c4.66699 12.667 13 19 25 19s21 -1.66699 27 -5c0.666992 0 8.16699 -0.666992 22.5 -2s28.5 -2 42.5 -2h100c2 0 9.33301 1.16699 22 3.5s19.334 3.83301 20.001 4.5c12 2.66699 23 4 33 4
c9.33301 0 14 -5.33301 14 -16z" />
    <glyph glyph-name="registered" unicode="&#xae;" horiz-adv-x="790" 
d="M765 350c0 -109.333 -37.333 -197.668 -112 -265.001c-77.333 -69.333 -163.333 -104 -258 -104c-96.667 0 -184 36 -262 108c-72 66.667 -108 153.667 -108 261c0 106.667 36 193.667 108 261c62 58 126.333 92.667 193 104c21.333 3.33301 46.333 5 75 5
c90 0 174 -35 252 -105c74.667 -67.333 112 -155.666 112 -264.999zM727 349.998c0 93.333 -32 172.001 -96 236.001s-142.667 96 -236 96h-6c-80.667 0 -156 -31.333 -226 -94c-66.667 -60 -100 -141.333 -100 -244c0 -80 30.333 -154.333 91 -223s141 -103 241 -103
c98 0 177.333 33.333 238 100c62.667 69.333 94 146.666 94 231.999zM592 188.999c0 -15.333 -8.99707 -27.667 -26.9971 -37c-14.667 -7.33301 -30.334 -11 -47.001 -11c-32.667 0 -64 14.333 -94 43c-16.667 16.667 -38 45 -64 85c-4.66699 6.66699 -11.334 17 -20.001 31
c-2 2 -4.33301 5.66699 -7 11l-44 -146h-59l94 312h61l-50 -161c44 0 81.333 11.667 112 35c34.667 26 52 54.667 52 86c0 23.333 -7.83301 43.333 -23.5 60s-35.167 27 -58.5 31c-10 1.33301 -21.333 2 -34 2c-46.667 0 -94.334 -10.667 -143.001 -32v27
c65.333 24 125.333 36 180 36c54 0 92 -9 114 -27c30 -24.667 45 -56.334 45 -95.001c0 -31.333 -13.333 -57.666 -40 -78.999c-44.667 -36 -92.667 -55 -144 -57c28.667 -40.667 57.667 -74.667 87 -102c20 -18.667 40.333 -28 61 -28c16.667 0 33 6 49 18v-2z" />
    <glyph glyph-name="macron" unicode="&#xaf;" horiz-adv-x="680" 
d="M680 860l-2.00098 -11.002c-0.666992 -3.33301 -2 -6.66602 -4 -9.99902c-19.333 -29.333 -52.666 -44 -99.999 -44c-34 0 -56.333 10.333 -67 31l-1 7c0 22.667 11.667 42.334 35 59.001c14 9.33301 35.333 14 64 14c23.333 0 41 -3.66699 53 -11
c13.333 -9.33301 20.333 -18 21 -26c0 -2 0.333008 -5 1 -9zM411.999 859.998l-2 -11c-3.33301 -18 -17.666 -32 -42.999 -42c-19.333 -8 -40 -12 -62 -12c-33.333 0 -55.333 10.333 -66 31l-1 7c0 24.667 10.667 43.667 32 57c18 10.667 40 16 66 16
c40 0 65 -12.333 75 -37c-0.666992 -3.33301 -0.333984 -6.33301 0.999023 -9zM671.999 693.998l-103.999 -425.999c-5.33301 -22 -14.333 -54.333 -27 -97c-16.667 -44 -39.334 -83.333 -68.001 -118c-32.667 -38.667 -68.667 -65.667 -108 -81
c-29.333 -11.333 -67.333 -17 -114 -17c-38 0 -61.333 3 -70 9l-7 7v51c15.333 -4.66699 39.333 -7 72 -7c73.333 0 127.333 29.333 162 88s62 131 82 217l72 307l-117 -21c-76.667 -14 -150 -40.333 -220 -79c-54.667 -30.667 -82 -70.334 -82 -119.001
c0 -38.667 11.167 -68.667 33.5 -90s53.166 -32 92.499 -32c26 0 48.333 2 67 6l-15 -46c-21.333 -6.66699 -56.666 -10 -105.999 -10c-50.667 0 -89.667 9.33301 -117 28c-38 25.333 -61.333 56 -70 92c-2 8.66699 -3 25.334 -3 50.001c0 14.667 6.66699 34.667 20 60
c28.667 55.333 83 99 163 131c64.667 26 141 47 229 63c48 9.33301 126.333 20.666 235 33.999z" />
    <glyph glyph-name="macron" unicode="&#x2c9;" horiz-adv-x="680" 
d="M680 860l-2.00098 -11.002c-0.666992 -3.33301 -2 -6.66602 -4 -9.99902c-19.333 -29.333 -52.666 -44 -99.999 -44c-34 0 -56.333 10.333 -67 31l-1 7c0 22.667 11.667 42.334 35 59.001c14 9.33301 35.333 14 64 14c23.333 0 41 -3.66699 53 -11
c13.333 -9.33301 20.333 -18 21 -26c0 -2 0.333008 -5 1 -9zM411.999 859.998l-2 -11c-3.33301 -18 -17.666 -32 -42.999 -42c-19.333 -8 -40 -12 -62 -12c-33.333 0 -55.333 10.333 -66 31l-1 7c0 24.667 10.667 43.667 32 57c18 10.667 40 16 66 16
c40 0 65 -12.333 75 -37c-0.666992 -3.33301 -0.333984 -6.33301 0.999023 -9zM671.999 693.998l-103.999 -425.999c-5.33301 -22 -14.333 -54.333 -27 -97c-16.667 -44 -39.334 -83.333 -68.001 -118c-32.667 -38.667 -68.667 -65.667 -108 -81
c-29.333 -11.333 -67.333 -17 -114 -17c-38 0 -61.333 3 -70 9l-7 7v51c15.333 -4.66699 39.333 -7 72 -7c73.333 0 127.333 29.333 162 88s62 131 82 217l72 307l-117 -21c-76.667 -14 -150 -40.333 -220 -79c-54.667 -30.667 -82 -70.334 -82 -119.001
c0 -38.667 11.167 -68.667 33.5 -90s53.166 -32 92.499 -32c26 0 48.333 2 67 6l-15 -46c-21.333 -6.66699 -56.666 -10 -105.999 -10c-50.667 0 -89.667 9.33301 -117 28c-38 25.333 -61.333 56 -70 92c-2 8.66699 -3 25.334 -3 50.001c0 14.667 6.66699 34.667 20 60
c28.667 55.333 83 99 163 131c64.667 26 141 47 229 63c48 9.33301 126.333 20.666 235 33.999z" />
    <glyph glyph-name="degree" unicode="&#xb0;" horiz-adv-x="312" 
d="M156 531c-28 0 -52.167 9.16699 -72.5 27.5s-31.5 41.5 -33.5 69.5v4c0 32 9.83301 58.333 29.5 79s45.167 31 76.5 31c27.333 0 51.833 -9.83301 73.5 -29.5s32.5 -43.167 32.5 -70.5v-10c0 -27.333 -10.833 -51 -32.5 -71s-46.167 -30 -73.5 -30zM212 636
c0 14.667 -5.66699 27.668 -17 39.001s-24.333 17 -39 17c-16.667 0 -30.167 -5.83301 -40.5 -17.5s-15.5 -25.834 -15.5 -42.501c0 -14 5.66699 -26 17 -36s24.333 -15 39 -15s27.667 5.5 39 16.5s17 23.833 17 38.5z" />
    <glyph glyph-name="plusminus" unicode="&#xb1;" horiz-adv-x="707" 
d="M682 435l-17 -56h-284l-36 -151h-56l36 151h-274l17 56h268l38 161h56l-38 -161h290zM627 200l-16 -56h-586l15 56h587z" />
    <glyph glyph-name="twosuperior" unicode="&#xb2;" horiz-adv-x="672" 
d="M672 694l-103.999 -425.999c-5.33301 -22 -14.333 -54.333 -27 -97c-16.667 -44 -39.334 -83.333 -68.001 -118c-32.667 -38.667 -68.667 -65.667 -108 -81c-29.333 -11.333 -67.333 -17 -114 -17c-38 0 -61.333 3 -70 9l-7 7v51c15.333 -4.66699 39.333 -7 72 -7
c73.333 0 127.333 29.333 162 88s62 131 82 217l72 307l-117 -21c-76.667 -14 -150 -40.333 -220 -79c-54.667 -30.667 -82 -70.334 -82 -119.001c0 -38.667 11.167 -68.667 33.5 -90s53.166 -32 92.499 -32c26 0 48.333 2 67 6l-15 -46
c-21.333 -6.66699 -56.666 -10 -105.999 -10c-50.667 0 -89.667 9.33301 -117 28c-38 25.333 -61.333 56 -70 92c-2 8.66699 -3 25.334 -3 50.001c0 14.667 6.66699 34.667 20 60c28.667 55.333 83 99 163 131c64.667 26 141 47 229 63
c48 9.33301 126.333 20.666 235 33.999z" />
    <glyph glyph-name="threesuperior" unicode="&#xb3;" horiz-adv-x="284" 
d="M259 542c0 -22 -7.66602 -40.166 -22.999 -54.499s-34 -21.5 -56 -21.5c-14 0 -25.667 4.16699 -35 12.5s-14 19.166 -14 32.499c0 22 6.66699 41.833 20 59.5s30.666 26.5 51.999 26.5c16 0 29.333 -5.16699 40 -15.5s16 -23.5 16 -39.5zM242.001 54.001
c0.666992 -20.667 -20.333 -38.668 -63 -54.001c-34 -12 -62 -18 -84 -18c-46.667 0 -70 26 -70 78c0 14 5.33301 41 16 81l73 275h100l-75 -279c-7.33301 -27.333 -11 -46.666 -11 -57.999c0 -12.667 5.66699 -19 17 -19c8 0 40 14.667 96 44z" />
    <glyph glyph-name="acute" unicode="&#xb4;" horiz-adv-x="437" 
d="M412 469c0 -47.333 -18.667 -83 -56 -107c-31.333 -20 -72 -30 -122 -30c-10.667 0 -21.667 0.666992 -33 2l-62 -219l-8 -33l-1 -9c0 -5.33301 1 -9.66602 3 -12.999l8 -2c15.333 0.666992 36 8 62 22c24 12.667 42.667 25.667 56 39c6 -30 9 -46 9 -48
c0 -12.667 -14.333 -27.667 -43 -45c-20 -12 -38.667 -21.333 -56 -28c-28.667 -10.667 -51.334 -16 -68.001 -16c-23.333 0 -41.833 6.66699 -55.5 20s-20.5 31.666 -20.5 54.999c0 10 6.33301 37.333 19 82l53 186c-15.333 -5.33301 -28.333 -8.66602 -39 -9.99902l-7 3
c-1.33301 5.33301 -2 10 -2 14c0 9.33301 2.5 20.833 7.5 34.5s11.167 22.834 18.5 27.501c14.667 9.33301 53.334 15.666 116.001 18.999c10.667 0 26.667 0.666992 48 2c11.333 1.33301 26.833 4.16602 46.5 8.49902s35.5 19.5 47.5 45.5h79z" />
    <glyph glyph-name="mu1" unicode="&#xb5;" horiz-adv-x="523" 
d="M498 77c-4 -34.667 -12.335 -58.6641 -25.002 -71.9971c-14 -15.333 -37.667 -23 -71 -23c-46.667 0 -78.334 20 -95.001 60c-37.333 -40 -80.666 -60 -129.999 -60c-52.667 0 -93.334 21.333 -122.001 64c-3.33301 -10.667 -10.333 -45.334 -21 -104.001
c-8 -41.333 -13.333 -77 -16 -107c-2.66699 -24.667 -14 -37.334 -34 -38.001c-17.333 -0.666992 -26.666 -1 -27.999 -1c-28 0 -42 15.667 -42 47c0 30.667 6.33301 68.334 19 113.001c1.33301 6.66699 3.33301 16 6 28c10 35.333 23.333 88.666 40 159.999l1 1
c0.666992 6 5.33398 26.333 14.001 61c8 31.333 12 48 12 50s4.83301 19.5 14.5 52.5s19.167 68.833 28.5 107.5h100l-51 -201c-4 -16 -6 -32 -6 -48c0 -56 26.667 -84 80 -84c44.667 0 79 16.667 103 50c16.667 23.333 31.334 60.666 44.001 111.999l41 171h99l-62 -249
c-6 -24 -9 -43.333 -9 -58c0 -32 15.333 -48 46 -48c18.667 0 40 5.33301 64 16z" />
    <glyph glyph-name="paragraph" unicode="&#xb6;" horiz-adv-x="552" 
d="M502 707l-201.001 -819h-87l189 770h-48l-194 -770h-87l103 416c-40 7.33301 -71.667 28 -95 62c-21.333 31.333 -32 68.333 -32 111c0 84 24.833 143.333 74.5 178s104.834 52 165.501 52h212z" />
    <glyph glyph-name="middot" unicode="&#xb7;" horiz-adv-x="284" 
d="M259 542c0 -22 -7.66602 -40.166 -22.999 -54.499s-34 -21.5 -56 -21.5c-14 0 -25.667 4.16699 -35 12.5s-14 19.166 -14 32.499c0 22 6.66699 41.833 20 59.5s30.666 26.5 51.999 26.5c16 0 29.333 -5.16699 40 -15.5s16 -23.5 16 -39.5z" />
    <glyph glyph-name="cedilla" unicode="&#xb8;" horiz-adv-x="611" 
d="M586 561c0 -24 -9.33105 -43.667 -27.998 -59s-40 -23 -64 -23c-16 0 -28.667 3.66699 -38 11c-6.66699 5.33301 -14.334 16 -23.001 32v6c-0.666992 2.66699 -1 4.66699 -1 6c0 22.667 9.66699 42 29 58s40.666 24 63.999 24c16.667 0 31 -5 43 -15s18 -23.333 18 -40z
M321.002 558c0 -24 -9.33203 -43.667 -27.999 -59s-40 -23 -64 -23c-16.667 0 -31.334 5.33301 -44.001 16c-3.33301 2.66699 -9 11.667 -17 27v6c-0.666992 2.66699 -1 4.66699 -1 6c0 24 9.5 43.667 28.5 59s40.5 23 64.5 23c15.333 0 29.333 -5.33301 42 -16
s19 -23.667 19 -39zM522.003 325c0 -57.333 -41.334 -105 -124.001 -143c-56 -26.667 -141.333 -40 -256 -40c0 -23.333 12 -43.333 36 -60c20.667 -14 56 -21 106 -21c-2 0 9 1.66699 33 5c8 1.33301 22.333 5 43 11c53.333 16 101 39.667 143 71v-53
c0 -21.333 -21.333 -42.333 -64 -63c-32.667 -15.333 -64 -26 -94 -32c-63.333 -12 -105 -18 -125 -18c-55.333 0 -101.666 16.5 -138.999 49.5s-56 76.5 -56 130.5c0 66 22.333 119.333 67 160c38 34 82.167 61.333 132.5 82s100.5 31 150.5 31c48 0 83.667 -10 107 -30
c26.667 -23.333 40 -50 40 -80zM405.002 321c0 6.66699 -5.66699 14 -17 22s-27.333 12 -48 12c-44 0 -84 -14 -120 -42s-62 -63.333 -78 -106h10c72 0 126.333 8 163 24c41.333 17.333 67 34.666 77 51.999c8.66699 14.667 13 27.334 13 38.001z" />
    <glyph glyph-name="onesuperior" unicode="&#xb9;" horiz-adv-x="1275" 
d="M1250 427c0 -52.667 -18.667 -101 -56 -145s-90.333 -66 -159 -66c-44 0 -79.833 12.5 -107.5 37.5s-41.5 59.167 -41.5 102.5c0 52 19 95 57 129c45.333 40.667 94.333 61 147 61c42.667 0 78.667 -9 108 -27c34.667 -21.333 52 -52 52 -92zM1147 401
c0 54.667 -20 82 -60 82c-32 0 -57.667 -13.667 -77 -41c-16.667 -24 -25 -52.667 -25 -86c0 -52.667 21.333 -79 64 -79c30.667 0 55 13.333 73 40c16.667 24 25 52 25 84zM1179 131l-2.99902 -14c-0.666992 -4 -4.66699 -9.66699 -12 -17c-24.667 -26 -84 -39 -178 -39
h-56c-50.667 0 -79.667 6.66699 -87 20c-1.33301 6 -2.66602 14.333 -3.99902 25c0.666992 6 1.66699 12.5 3 19.5s4 11.833 8 14.5c2 0 6 0.666992 12 2s10.667 2 14 2c-4.66699 0 13 -2.33301 53 -7c57.333 -6.66699 105.666 -10 144.999 -10c10 0 24.667 2.5 44 7.5
s34 7.5 44 7.5h5l8 -3c3.33301 -4 4.66602 -6.66699 3.99902 -8zM1236 745l-26.999 -72c-11.333 1.33301 -27.333 2 -48 2c-50.667 0 -93 -7.33301 -127 -22c-37.333 -16 -64 -31.667 -80 -47c-19.333 -18.667 -35.333 -35.667 -48 -51
c-19.333 -23.333 -42.333 -66.666 -69 -129.999c-12 -27.333 -25 -66 -39 -116c-16.667 -69.333 -43 -172.333 -79 -309h-98c-4 37.333 -6 60.333 -6 69c0 -6.66699 -2.33301 17 -7 71c-0.666992 16 -2.66699 40 -6 72c-12.667 88.667 -24.334 156 -35.001 202l-20 75
c0 2.66699 -0.666992 6.66699 -2 12c-4 13.333 -11 32.666 -21 57.999c-2.66699 6 -10.667 19.333 -24 40l-94 -352c-34.667 -130.667 -80.334 -214 -137.001 -250s-114 -54 -172 -54c-38.667 0 -71 5.66699 -97 17v74c6.66699 -2.66699 17.334 -6 32.001 -10
c18.667 -4 36 -6 52 -6c50.667 0 95.667 21.333 135 64c32.667 36 56.334 81.333 71.001 136l14 53l88 336c-41.333 0 -88.666 -35.667 -141.999 -107c-1.33301 -2 -3 -4.66699 -5 -8l-33 82c27.333 36 65.333 70.667 114 104c55.333 39.333 101.666 59 138.999 59
c51.333 0 92.333 -23 123 -69c54 -82 85 -175.667 93 -281l6 -81c-0.666992 -11.333 -1 -28.333 -1 -51h5c0 41.333 8.66699 92 26 152l9 35c10 34 27 75.833 51 125.5s62.667 91.167 116 124.5c49.333 30 103.666 49 162.999 57c35.333 4.66699 61.333 7 78 7
c40.667 0 74.667 -3.66699 102 -11z" />
    <glyph glyph-name="ordmasculine" unicode="&#xba;" horiz-adv-x="552" 
d="M528 310c0 -18 -4 -35.999 -12 -53.999l-103 8c6.66699 28.667 10 48.667 10 60c0 32 -21.333 48 -64 48c-38.667 0 -74 -11 -106 -33s-57.333 -51 -76 -87c6.66699 0 18.334 0.333008 35.001 1c14 0.666992 25.333 1 34 1c104.667 0 157 -24.333 157 -73
c0 -12.667 -5.66699 -19 -17 -19c6 0 -10 2 -48 6c-32 3.33301 -60 5 -84 5c6 0 -9.33301 -1.33301 -46 -4l-49 -3c-1.33301 -4.66699 -2 -11.667 -2 -21c0 -28 12 -50.333 36 -67c21.333 -14 46.666 -21 75.999 -21c44 0 102 15.667 174 47
c12.667 7.33301 30.667 15.333 54 24c13.333 -6.66699 20 -19.667 20 -39c0 -22 -28.333 -43.667 -85 -65c-42 -16 -80.667 -26.667 -116 -32c-48.667 -7.33301 -85.667 -11 -111 -11c-50 0 -90.5 14.833 -121.5 44.5s-46.5 69.167 -46.5 118.5
c0 85.333 42.667 161.666 128 228.999c52 41.333 118 62 198 62c56 0 97.5 -12.5 124.5 -37.5s40.5 -54.167 40.5 -87.5z" />
    <glyph glyph-name="guillemotright" unicode="&#xbb;" horiz-adv-x="460" 
d="M435 222c0 -41.333 -23.667 -80.665 -71 -117.998l-88 -69c-10 -7.33301 -18.667 -13 -26 -17c-11.333 -6 -29.333 -9 -54 -9c-3.33301 0 -8.33301 1 -15 3c-2 2 -3 4.66699 -3 8c0 6 3.33301 12 10 18c23.333 21.333 50 47 80 77c38 38 57 70.333 57 97
c0 18 -7 43.333 -21 76c-14 30.667 -27 52.667 -39 66c-5.33301 6 -10 12.667 -14 20c-1.33301 4 -3.33301 9.33301 -6 16v6c0 0.666992 0.333008 2 1 4c8 6.66699 17.333 10 28 10c43.333 0 92.333 -46.333 147 -139c1.33301 -2.66699 3.33301 -6.33398 6 -11.001
c5.33301 -14.667 8 -27.334 8 -38.001zM257 222.001c0 -41.333 -23.667 -80.6641 -71 -117.997l-88 -69c-8.66699 -6.66699 -17.667 -12.334 -27 -17.001c-11.333 -6 -29 -9 -53 -9c-3.33301 0 -8.33301 1 -15 3c-2 2 -3 4.66699 -3 8c-0 6 3.33301 12 10 18
c23.333 21.333 50 47 80 77c38 38 57 70.333 57 97c0 18 -7 43.333 -21 76c-14 30.667 -27 52.667 -39 66c-5.33301 6 -10 12.667 -14 20c-1.33301 4 -3.33301 9.33301 -6 16v6c0 0.666992 0.333008 2 1 4c8 6.66699 17.333 10 28 10c43.333 0 92.333 -46.333 147 -139
c1.33301 -2.66699 3.33301 -6.33398 6 -11.001c5.33301 -14.667 8 -27.334 8 -38.001z" />
    <glyph glyph-name="onequarter" unicode="&#xbc;" horiz-adv-x="468" 
d="M468 542c0 -21.333 -7.83301 -39.333 -23.5 -54s-34.167 -22 -55.5 -22c-33.333 0 -50 16.667 -50 50c0 -0.666992 0.333008 1 1 5c8.66699 50.667 32.667 76 72 76c16 0 29.333 -5.16699 40 -15.5s16 -23.5 16 -39.5zM423 416l-80.002 -329
c-24.667 -100.667 -52.667 -175.334 -84 -224.001c-22.667 -34 -59 -57 -109 -69c-30.667 -7.33301 -74.667 -11 -132 -11c-5.33301 0.666992 -9.66602 1.5 -12.999 2.5s-5 4.16699 -5 9.5c0 2 3 13.5 9 34.5s10 32.167 12 33.5h23c76 0 126.333 26.333 151 79
s47.334 123.334 68.001 212.001l60 262h100z" />
    <glyph glyph-name="onehalf" unicode="&#xbd;" horiz-adv-x="838" 
d="M838 691l-25.999 -86.998c-13.333 4 -33 9 -59 15c-42 6 -94.333 9 -157 9c-74 0 -137.667 -9.66699 -191 -29c-82 -30.667 -131.667 -66.667 -149 -108c-6.66699 -14.667 -10 -26.334 -10 -35.001c0 -20.667 11 -36.334 33 -47.001
c17.333 -8.66699 37.666 -13 60.999 -13c3.33301 0 8 -0.333008 14 -1s10.333 -1 13 -1c12 0 30.333 0.333008 55 1h54h41c18 -0.666992 31.667 -1 41 -1c50.667 0 101.334 -12.333 152.001 -37c39.333 -19.333 59 -53.333 59 -102c0 -61.333 -31.667 -116.333 -95 -165
c-48.667 -37.333 -108.667 -66.333 -180 -87c-48.667 -14.667 -104 -22 -166 -22c-22 0 -42.333 1.33301 -61 4c-102 14.667 -182.667 36.667 -242 66l22 75c69.333 -15.333 118.333 -25.333 147 -30c46.667 -6.66699 96.667 -10 150 -10c71.333 0 133.666 13 186.999 39
c71.333 34 107 71 107 111c0 18 -6.66699 30.333 -20 37c-17.333 8 -38 12 -62 12c-7.33301 0 -18 -0.333008 -32 -1s-24.667 -1 -32 -1h-84c-73.333 0 -140.333 11.333 -201 34c-52.667 20 -79 56.333 -79 109c0 92.667 64 171.667 192 237c74 38 190.667 57 350 57
c6.66699 0 19.667 -1.33301 39 -4c28.667 -4 71.667 -12.333 129 -25z" />
    <glyph glyph-name="threequarters" unicode="&#xbe;" horiz-adv-x="554" 
d="M529 402l-18 -74.9971c-50.667 18.667 -106.667 28 -168 28c-40 0 -71.667 -4.66699 -95 -14c-26 -10.667 -41.667 -20.834 -47 -30.501s-8 -16.5 -8 -20.5c0 -18 11.333 -28 34 -30c20.667 -2 52.167 -4.33301 94.5 -7s68.5 -4.66699 78.5 -6
c32 -4.66699 56 -14.334 72 -29.001c20.667 -18.667 31 -41.334 31 -68.001c0 -47.333 -19 -83 -57 -107c-62.667 -40.667 -144.667 -61 -246 -61c-50.667 0 -109 14.667 -175 44l22 78c53.333 -28.667 111 -43 173 -43c23.333 0 44 2 62 6c69.333 14 104 34.333 104 61
c0 10 -7.33301 17 -22 21c-17.333 4 -41 7.66699 -71 11l-73 6c-38 4 -71 13.333 -99 28c-30 14 -45 40 -45 78c0 12 3.66699 28.667 11 50c9.33301 26 34 51.667 74 77c38 24 92.667 36 164 36c86 0 146.667 -8 182 -24z" />
    <glyph glyph-name="questiondown" unicode="&#xbf;" horiz-adv-x="344" 
d="M319 542c0 -18 -6.33301 -33 -19 -45s-28 -18 -46 -18c-25.333 0 -38 11.333 -38 34c0 18.667 5.5 35.167 16.5 49.5s25.5 21.5 43.5 21.5c28.667 0 43 -14 43 -42zM128 542c0 -18 -6.33301 -33 -19 -45s-28 -18 -46 -18c-25.333 0 -38 11.333 -38 34
c0 18.667 5.5 35.167 16.5 49.5s25.5 21.5 43.5 21.5c28.667 0 43 -14 43 -42zM261 54c0.666992 -20.667 -20.333 -38.668 -63 -54.001c-34 -12 -62 -18 -84 -18c-48.667 0 -73 26 -73 78c0 14 5.33301 41 16 81l73 275h100l-75 -279
c-7.33301 -27.333 -11 -45.666 -11 -54.999c0 -8.66699 1.33301 -14.667 4 -18l10 -5h6c15.333 0 47.333 15 96 45z" />
    <glyph glyph-name="Agrave" unicode="&#xc0;" horiz-adv-x="1003" 
d="M1003 68c0 -23.333 -18.001 -44.3311 -54.001 -62.998c-31.333 -16 -60 -24 -86 -24c-49.333 0 -80.166 18.5 -92.499 55.5s-18.5 85.167 -18.5 144.5c0 28.667 6.33301 81 19 157l9 53c1.33301 4 3 10.333 5 19l21 94c4 19.333 8.66699 39.666 14 60.999
c0 0.666992 2.33301 10 7 28h-6c-64 -95.333 -144.667 -201.666 -242 -318.999c110.667 0 166.667 -0.666992 168 -2l2 -10c0 -30.667 -9.16699 -49 -27.5 -55s-41.5 -9 -69.5 -9h-136c-122.667 -151.333 -225.167 -252 -307.5 -302s-151.833 -75 -208.5 -75v62
c0 11.333 1 19 3 23c6.66699 3.33301 13 5.66602 19 6.99902c64 11.333 125.667 42.666 185 93.999c70.667 60.667 133.334 124 188.001 190c-138.667 -2 -213 -3 -223 -3c-24 0 -36 6.33301 -36 19c0 40.667 18.667 61 56 61h265c69.333 78 159.666 187.333 270.999 328
l57 75c11.333 13.333 25.333 20.666 42 21.999c4 0.666992 37.667 1 101 1c14.667 0 22 -8.33301 22 -25c0 -3.33301 -4.33301 -22.666 -13 -57.999l-29 -119c-28 -131.333 -42 -246 -42 -344c0 -52 11 -78 33 -78c14 0 32.167 5.33301 54.5 16s38.833 21 49.5 31v-55z" />
    <glyph glyph-name="Aacute" unicode="&#xc1;" horiz-adv-x="800" 
d="M800 276c0 -86 -56.002 -162.998 -168.002 -230.998c-69.333 -42.667 -159.333 -64 -270 -64c-13.333 0 -28.333 2.33301 -45 7c-22 5.33301 -33 12.666 -33 21.999c0 11.333 3.66699 21.166 11 29.499s16.666 12.5 27.999 12.5c6 0 15.167 -0.333008 27.5 -1
s21.5 -1 27.5 -1c69.333 0 128 15.333 176 46c34 21.333 62.333 45.666 85 72.999c28.667 34.667 43 68.334 43 101.001c0 29.333 -11 53.166 -33 71.499s-48 27.5 -78 27.5c-36 0 -80 -10.667 -132 -32l-32 -15c-28 -136 -68.167 -226.833 -120.5 -272.5
s-106.5 -68.5 -162.5 -68.5c-26 0 -50 2.33301 -72 7c-34.667 8 -52 20.667 -52 38v10c0 19.333 6.33301 29 19 29c18.667 0 32.334 -2 41.001 -6c20 -1.33301 31.333 -2 34 -2c53.333 0 96 23.667 128 71c21.333 30.667 41 78.334 59 143.001l96 349l-63 -6
c-7.33301 0 -18.666 -1 -33.999 -3c-20.667 -4 -58.667 -18 -114 -42c-48 -21.333 -85.333 -32 -112 -32c-6 0 -10.333 1.5 -13 4.5s-4 7.5 -4 13.5c0 26.667 8.66699 45.667 26 57c20.667 13.333 62 30 124 50c119.333 38.667 248.333 58 387 58c62 0 101 -2 117 -6
c12 -3.33301 18 -11.666 18 -24.999c0 -0.666992 -2.66699 -14 -8 -40c-2 -10 -5.16699 -15.833 -9.5 -17.5s-13.166 -2.5 -26.499 -2.5l-32 2c-10.667 0.666992 -35.334 1 -74.001 1c-33.333 0 -56.666 -1.33301 -69.999 -4l-61 -222c64 23.333 119 35 165 35
c58 0 101.667 -10.333 131 -31c50.667 -36.667 76 -81.334 76 -134.001z" />
    <glyph glyph-name="Acircumflex" unicode="&#xc2;" horiz-adv-x="658" 
d="M658 538c0 -46 -22.3369 -90.666 -67.0039 -133.999c-41.333 -40 -95.666 -66.667 -162.999 -80v-8c24.667 4 44.334 6 59.001 6c43.333 0 82 -17.667 116 -53s51 -80 51 -134c0 -74 -31 -134 -93 -180c-92.667 -67.333 -198 -109.333 -316 -126
c-37.333 -5.33301 -68.333 -8 -93 -8c-70.667 0 -106 12.333 -106 37c0 2.66699 2.33301 15 7 37c0.666992 3.33301 4.33398 7 11.001 11l22 4c9.33301 0 23.5 -1.16699 42.5 -3.5s33.167 -3.5 42.5 -3.5c14.667 0 39 3 73 9c86 16 162 49.667 228 101
c42.667 33.333 64 75 64 125c0 34 -10.667 59.667 -32 77c-38 31.333 -87.667 47 -149 47c-13.333 0 -36.333 -1.66699 -69 -5l-49 -5c-10 -2 -22.333 -5 -37 -9l-62 -243h-115l146 583h112l-61 -248c67.333 0 133 19 197 57c60 36 96.333 69.667 109 101
c8.66699 22 13.334 39.667 14.001 53c-1.33301 9.33301 -3 16.666 -5 21.999c-3.33301 11.333 -16 23.666 -38 36.999c-28 16.667 -74.667 25 -140 25c-2.66699 0 -6.83398 -0.333008 -12.501 -1s-9.83398 -1 -12.501 -1c-12.667 0 -32 -0.666992 -58 -2
c-58 -7.33301 -114.667 -17.666 -170 -30.999c-0.666992 0 -15 -4.33301 -43 -13c-19.333 -6 -33.333 -9 -42 -9c-12.667 0 -19 10.333 -19 31c0 0.666992 0.666992 3 2 7c4.66699 16 7.66699 25.333 9 28c4.66699 10 11.334 17 20.001 21l39 16c9.33301 4 34.333 10 75 18
c88 17.333 180.667 26 278 26c68.667 0 121.334 -12.667 158.001 -38c51.333 -36.667 77 -84.667 77 -144z" />
    <glyph glyph-name="Atilde" unicode="&#xc3;" horiz-adv-x="814" 
d="M813 692c0 -4.66699 -1.33105 -12.667 -3.99805 -24s-4 -19.666 -4 -24.999l-5.5 -11c-2.33301 -4.66699 -16.833 -7 -43.5 -7c-4 0 -9.83301 0.5 -17.5 1.5s-13.5 1.5 -17.5 1.5h-27c-44.667 0 -76.334 -0.333008 -95.001 -1l-28 -3
c-30.667 -0.666992 -76.667 -3.33398 -138 -8.00098c-65.333 -9.33301 -136.666 -27 -213.999 -53c-10.667 -3.33301 -26.334 -8.66602 -47.001 -15.999c-2 -0.666992 -12.667 -6.33398 -32 -17.001c-4.66699 -0.666992 -8 -1 -10 -1
c-11.333 0.666992 -17 4.33398 -17 11.001c0 36 15.333 61.667 46 77c22 11.333 80 30.333 174 57c67.333 19.333 135.666 32.666 204.999 39.999c39.333 4 84 6 134 6h39c2 0 6 0.333008 12 1h12c52 0 78 -8 78 -24v-5zM554.002 600
c-8 -30.667 -13.334 -53.667 -16.001 -69c-2.66699 -8 -6 -19.333 -10 -34l-28 -110c-25.333 -100 -44.333 -170.333 -57 -211c-22.667 -77.333 -47.667 -146 -75 -206c-45.333 -99.333 -130 -149 -254 -149c-34.667 0 -61.667 2 -81 6c-22 5.33301 -33 15.333 -33 30
c0 2.66699 1.33301 9.66699 4 21s5 18 7 20c8.66699 2 15.334 2.66699 20.001 2c11.333 -5.33301 27.666 -8 48.999 -8c71.333 0 128 33.333 170 100c30 49.333 55.333 105.666 76 168.999c6.66699 20.667 23.334 80.334 50.001 179.001c13.333 50.667 35 125.667 65 225z
" />
    <glyph glyph-name="Adieresis" unicode="&#xc4;" horiz-adv-x="815" 
d="M166 -20c-16.667 0 -54.999 1.33008 -114.999 3.99707c-11.333 0.666992 -28.333 2.33398 -51 5.00098c7.33301 22.667 17.666 48 30.999 76c5.33301 4 17 6 35 6c2 0 5.33301 -0.333008 10 -1s8.33398 -1 11.001 -1c12 0 22.667 1 32 3l141 521l115 12l-138 -521
c61.333 0 118.333 9.33301 171 28c73.333 26 137.666 66 192.999 120c64 62.667 96 128.334 96 197.001c0 55.333 -23.167 103 -69.5 143s-112.5 60 -198.5 60c-120.667 0 -229 -14 -325 -42c-12 -4.66699 -31 -10 -57 -16h-20h-4l-5 2c-0.666992 2.66699 -1 6 -1 10
c0 2.66699 4.33301 16 13 40c13.333 41.333 122 71.333 326 90c34.667 3.33301 71.334 5 110.001 5c84 0 153.333 -17.333 208 -52c75.333 -47.333 120.333 -104.333 135 -171c4 -18.667 6 -33.667 6 -45c0 -17.333 -3 -44.666 -9 -81.999
c-15.333 -92.667 -84 -182 -206 -268c-116.667 -82 -261.334 -123 -434.001 -123z" />
    <glyph glyph-name="Aring" unicode="&#xc5;" horiz-adv-x="734" 
d="M735 701c0 -6 -3.17578 -17.168 -9.50879 -33.501s-11.166 -24.5 -14.499 -24.5c-43.333 -0.666992 -108.333 -4.66699 -195 -12c-61.333 -8.66699 -114.666 -24 -159.999 -46c-78 -37.333 -117 -78 -117 -122c0 -28.667 15 -49.667 45 -63
c22.667 -10 50.334 -15 83.001 -15c3.33301 0 8.33301 -0.333008 15 -1s11.667 -1 15 -1h77c3.33301 0 9 0.666992 17 2c60.667 10 93.334 15 98.001 15c14.667 0 22 -5.66699 22 -17l-2 -10c-3.33301 -11.333 -6.33301 -23 -9 -35c-5.33301 -16 -11.666 -25 -18.999 -27
c-11.333 -3.33301 -25.666 -5 -42.999 -5h-44c-24 -1.33301 -50.333 -3.66602 -79 -6.99902c-79.333 -10 -139.333 -25 -180 -45c-58 -30 -87 -62.333 -87 -97l2 -17c2 -4 5.33301 -10.333 10 -19c6 -11.333 20.333 -22.333 43 -33c20 -10 60.333 -15 121 -15
c-1.33301 0 13.334 1.66699 44.001 5c62.667 6.66699 121.334 19 176.001 37c17.333 5.33301 44.333 16.333 81 33c4.66699 2.66699 12 6 22 10l13 2c5.33301 -3.33301 8 -10 8 -20c0 -3.33301 -1.33301 -8.83301 -4 -16.5s-5.66699 -14.5 -9 -20.5
c-10 -20 -35.667 -38.667 -77 -56s-77.666 -29.666 -108.999 -36.999c-18.667 -4.66699 -58.334 -12.334 -119.001 -23.001c-23.333 -4 -48.333 -6 -75 -6c-66 0 -117.333 10.667 -154 32s-62.667 45.666 -78 72.999c-4 6.66699 -8.66699 17 -14 31l-4 29
c-2 16 2.33301 36 13 60c2.66699 6.66699 8.66699 16.334 18 29.001c36 49.333 100 81 192 95c-8 1.33301 -20 6 -36 14c-58.667 29.333 -88 70 -88 122c0 58.667 37.667 114 113 166c86.667 59.333 225.334 89 416.001 89c54.667 0 82 -6.66699 82 -20z" />
    <glyph glyph-name="AE" unicode="&#xc6;" horiz-adv-x="1147" 
d="M1147 630c-58 -62.667 -132.335 -131.667 -223.002 -207c-38.667 -32 -69 -55.667 -91 -71l-84 -58c27.333 -37.333 63.333 -77.666 108 -120.999c60.667 -59.333 106 -89 136 -89c40.667 0 86 18 136 54v-47c0 -6.66699 -4.33301 -17.667 -13 -33
c-10.667 -18.667 -31 -36.167 -61 -52.5s-55.667 -24.5 -77 -24.5c-11.333 0 -30.333 4.33301 -57 13c-29.333 9.33301 -61 31.666 -95 66.999l-99 103c-18.667 20 -47.667 49.333 -87 88l-49 -252h-115l48 247c-82.667 -73.333 -142 -124.666 -178 -153.999
c-95.333 -74.667 -161.666 -112 -198.999 -112c-26.667 0 -58.667 10.667 -96 32c-34 19.333 -51 37.666 -51 54.999c0 7.33301 3.33301 15.833 10 25.5s13.334 14.5 20.001 14.5c2.66699 -0.666992 6 -1.33398 10 -2.00098c5.33301 -3.33301 13.333 -7.66602 24 -12.999
c15.333 -5.33301 36 -8 62 -8c28 0 59.667 14 95 42c6.66699 5.33301 27 23 61 53l98 88l52 48c-118.667 139.333 -209 254.666 -271 345.999l95 58l67 -81c24 -28.667 68.333 -89.667 133 -183c18 -26 46 -64 84 -114l62 324h115l-73 -350h8
c32.667 34.667 80.667 80.667 144 138c60.667 54.667 149 143.334 265 266.001z" />
    <glyph glyph-name="Ccedilla" unicode="&#xc7;" horiz-adv-x="729" 
d="M692 555c0 -0.666992 -1.33105 -11.665 -3.99805 -32.998c-5.33301 -44.667 -36 -83 -92 -115c-30.667 -17.333 -74.667 -28.333 -132 -33v-9h14c51.333 0 93.333 -9.33301 126 -28c40.667 -23.333 61 -58.666 61 -105.999v-15
c-1.33301 -6.66699 -2.66602 -12.667 -3.99902 -18l-9 -33c-12 -42.667 -50.333 -84.667 -115 -126c-59.333 -38.667 -142 -58 -248 -58c-40.667 0 -86 6 -136 18c-52.667 13.333 -95.334 29.666 -128.001 48.999l46 61c67.333 -28.667 138 -43 212 -43c34 0 63.667 2 89 6
c35.333 6 68 18.333 98 37c35.333 21.333 58.666 46.666 69.999 75.999c4.66699 12 7 22 7 30c0 19.333 -7.33301 38 -22 56c-13.333 16 -29.666 28.333 -48.999 37s-43 13 -71 13h-28c-3.33301 0 -26.666 -2.33301 -69.999 -7c-38 -4 -67.667 -6 -89 -6
c-22 0 -33 7.66699 -33 23c0 9.33301 3.66699 22.166 11 38.499s14.666 25.5 21.999 27.5c3.33301 0.666992 19.5 1.5 48.5 2.5s54.833 3.16699 77.5 6.5c86 12.667 150 38.334 192 77.001c15.333 14 25.333 26.333 30 37c5.33301 14.667 8 25.667 8 33
c0 20 -16.333 38.333 -49 55s-77.334 25 -134.001 25s-109.334 -9.16699 -158.001 -27.5s-79 -27.5 -91 -27.5c-10.667 0 -16 5.66699 -16 17c0 -0.666992 3 10.333 9 33c8 29.333 61.333 53.333 160 72c73.333 14 136 21 188 21c50.667 0 97 -14.667 139 -44
c46.667 -32.667 70 -73.334 70 -122.001z" />
    <glyph glyph-name="Egrave" unicode="&#xc8;" horiz-adv-x="801" 
d="M801 650l-135.002 -472c-8 -28 -12 -54.333 -12 -79c0 -20 11 -30 33 -30c15.333 0 31.666 5 48.999 15l63 37l1 -55c0.666992 -23.333 -22.333 -44 -69 -62c-38 -15.333 -69.333 -23 -94 -23c-35.333 0 -59.666 10.833 -72.999 32.5s-20 47.167 -20 76.5
c0 19.333 10 64.666 30 135.999c12.667 45.333 27.334 87.666 44.001 126.999h-10c-3.33301 -4.66699 -8 -12 -14 -22l-52 -83c-54 -81.333 -110.333 -147.666 -169 -198.999c-51.333 -45.333 -106.333 -68 -165 -68c-36 0 -66 11.333 -90 34s-36 51.667 -36 87
c0 31.333 8.33301 70 25 116l44 113l48 130c10 27.333 15 51.333 15 72c0 26.667 -10.667 48.834 -32 66.501s-45.666 26.5 -72.999 26.5c-4.66699 0 -11.167 -0.666992 -19.5 -2s-14.833 -2 -19.5 -2c-6 0 -10.167 0.833008 -12.5 2.5s-4.83301 4.5 -7.5 8.5v5
c0 2.66699 3 14.334 9 35.001c5.33301 18 22.333 27 51 27c68.667 0 120.334 -16.333 155.001 -49c38.667 -37.333 58 -78.666 58 -123.999c0 -32 -15.667 -91 -47 -177l-66 -166c-6.66699 -16.667 -10 -32.334 -10 -47.001c0 -33.333 16.333 -50 49 -50
c52 0 120.667 53 206 159c53.333 66.667 101.333 137 144 211c25.333 43.333 53.666 107.666 84.999 192.999h117z" />
    <glyph glyph-name="Eacute" unicode="&#xc9;" horiz-adv-x="801" 
d="M626 773c-60 -41.333 -107.001 -71.335 -141.001 -90.002c-28 -15.333 -50.333 -23 -67 -23c-18 0 -43.833 14.5 -77.5 43.5s-52.5 52.167 -56.5 69.5c1.33301 9.33301 7.83301 21 19.5 35s21.834 21 30.501 21c4.66699 0 10.334 -3 17.001 -9
c20 -17.333 42.667 -32.333 68 -45l23 -7c9.33301 0 21 2.66699 35 8c39.333 14.667 70.666 27.334 93.999 38.001c7.33301 4.66699 19 11.334 35 20.001c5.33301 3.33301 14 7 26 11l7 -4l4 -10v-2c0 -2 -5.66699 -20.667 -17 -56zM800.999 649.998l-135.002 -472
c-8 -28 -12 -54.333 -12 -79c0 -20 11 -30 33 -30c15.333 0 31.666 5 48.999 15l63 37l1 -55c0.666992 -23.333 -22.333 -44 -69 -62c-38 -15.333 -69.333 -23 -94 -23c-35.333 0 -59.666 10.833 -72.999 32.5s-20 47.167 -20 76.5c0 19.333 10 64.666 30 135.999
c12.667 45.333 27.334 87.666 44.001 126.999h-10c-3.33301 -4.66699 -8 -12 -14 -22l-52 -83c-54 -81.333 -110.333 -147.666 -169 -198.999c-51.333 -45.333 -106.333 -68 -165 -68c-36 0 -66 11.333 -90 34s-36 51.667 -36 87c0 31.333 8.33301 70 25 116l44 113l48 130
c10 27.333 15 51.333 15 72c0 26.667 -10.667 48.834 -32 66.501s-45.666 26.5 -72.999 26.5c-4.66699 0 -11.167 -0.666992 -19.5 -2s-14.833 -2 -19.5 -2c-6 0 -10.167 0.833008 -12.5 2.5s-4.83301 4.5 -7.5 8.5v5c0 2.66699 3 14.334 9 35.001
c5.33301 18 22.333 27 51 27c68.667 0 120.334 -16.333 155.001 -49c38.667 -37.333 58 -78.666 58 -123.999c0 -32 -15.667 -91 -47 -177l-66 -166c-6.66699 -16.667 -10 -32.334 -10 -47.001c0 -33.333 16.333 -50 49 -50c52 0 120.667 53 206 159
c53.333 66.667 101.333 137 144 211c25.333 43.333 53.666 107.666 84.999 192.999h117z" />
    <glyph glyph-name="Ecircumflex" unicode="&#xca;" horiz-adv-x="723" 
d="M723 624c-34 -42 -77.667 -87.499 -131 -136.499s-102.333 -88.5 -147 -118.5l-112 -75l174 -160c33.333 -30.667 61.333 -46 84 -46c18.667 0 37 5 55 15l74 41v-66c0 -17.333 -18.667 -36.333 -56 -57c-25.333 -14.667 -50.333 -25.667 -75 -33
c-2.66699 -0.666992 -13.334 -3 -32.001 -7c-30 0 -63.667 14.333 -101 43c-17.333 13.333 -45 38.666 -83 75.999l-58 58c-11.333 11.333 -23.666 23 -36.999 35c-0.666992 1.33301 -26.667 25.333 -78 72l-59 -265h-116l154 676h116l-81 -354
c58.667 26.667 136.667 82.667 234 168s163 155.333 197 210z" />
    <glyph glyph-name="Edieresis" unicode="&#xcb;" horiz-adv-x="775" 
d="M750 45c-4 -11.333 -9.00195 -18.999 -15.002 -22.999c-16 -11.333 -36.667 -21 -62 -29s-47.666 -12 -66.999 -12c-36 0 -62.333 19 -79 57c-12.667 28 -19 63 -19 105c0 32 3 65.333 9 100l22 127c12 67.333 27.667 133.666 47 198.999h-7l-44 -83v-1
c-12.667 -20.667 -25 -43 -37 -67v-2l-36 -69c-58 -110 -100 -185.333 -126 -226c-56.667 -88.667 -113 -151.667 -169 -189c-41.333 -26.667 -89.333 -43.667 -144 -51l-23 77c73.333 24.667 144 78.334 212 161.001c104 127.333 204.333 298 301 512l30 69h167
c-22 -84.667 -50 -226.334 -84 -425.001c-8 -46.667 -12 -88 -12 -124c0 -57.333 17.667 -86 53 -86c16.667 0 32.834 5.5 48.501 16.5s27.167 24.5 34.5 40.5v-77z" />
    <glyph glyph-name="Igrave" unicode="&#xcc;" horiz-adv-x="1246" 
d="M1221 133l-11.999 -83.9932c-3.33301 -23.333 -22 -41.333 -56 -54c-24.667 -8.66699 -51.667 -13 -81 -13c-39.333 0 -68.666 19.667 -87.999 59c-15.333 31.333 -23 68.666 -23 111.999c0 78 21.333 198 64 360c2.66699 9.33301 7 23.333 13 42h-8l-24 -47
c-8.66699 -14.667 -21 -37 -37 -67c-28 -54 -48 -91.333 -60 -112c-23.333 -42 -45.666 -78.333 -66.999 -109c-48.667 -70 -84 -117.667 -106 -143c-55.333 -63.333 -103.333 -95 -144 -95c-32.667 0 -56.334 22.333 -71.001 67c-10.667 31.333 -16 67.666 -16 108.999
c0 63.333 6.66699 132 20 206c4.66699 22 10.667 54.667 18 98c3.33301 21.333 5 31.333 5 30l11 42h-8l-48 -108c-6 -12 -15.333 -29.667 -28 -53l-51 -95l-22 -42c-54.667 -86.667 -89.334 -140.334 -104.001 -161.001c-44 -60 -88.333 -105.667 -133 -137
c-40 -28 -88.667 -47 -146 -57l-19 93c37.333 12.667 57.333 19.667 60 21c22.667 9.33301 41.667 19.666 57 30.999c1.33301 0.666992 10 8.66699 26 24c46 43.333 97.333 111 154 203c108.667 177.333 184.667 326.333 228 447h172c-52 -220 -78 -379.667 -78 -479
c0 -58.667 6 -93 18 -103c24 0 56 29.333 96 88l49 72c42 64.667 100 167.667 174 309c20.667 39.333 37.667 77 51 113h172c-14 -40.667 -33.333 -102.334 -58 -185.001c-32 -122.667 -48 -246.334 -48 -371.001c0 -22 2.16699 -39.333 6.5 -52s18.833 -19 43.5 -19
c16.667 0 35 6.66699 55 20c17.333 11.333 31.666 24.666 42.999 39.999z" />
    <glyph glyph-name="Iacute" unicode="&#xcd;" horiz-adv-x="952" 
d="M927 48c0 -17.333 -22.666 -33.3311 -67.999 -47.998c-37.333 -12.667 -64.666 -19 -81.999 -19c-28 0 -49.667 11 -65 33c-13.333 19.333 -20 43.666 -20 72.999c0 52.667 2.33301 88.667 7 108l41 190c5.33301 18 12.666 44.667 21.999 80
c8.66699 42 24.667 104.667 48 188h115c-4 -16.667 -10.667 -41.334 -20 -74.001l-60 -216c-25.333 -101.333 -38 -179 -38 -233c0 -50.667 17.667 -76 53 -76c17.333 0 39.666 10.333 66.999 31v-37zM697.001 288.002
c-1.33301 -5.33301 -1.99707 -8.66895 -1.99707 -10.002c-1.33301 -12 -7.33301 -28 -18 -48c-10.667 -10 -73 -23.667 -187 -41l-41 -189h-115l38 173c-3.33301 0 -8.33301 -0.5 -15 -1.5s-11.334 -1.5 -14.001 -1.5c-14.667 -0.666992 -36 -1 -64 -1
c-96 0 -171.667 24 -227 72c-34.667 28.667 -52 73.667 -52 135c0 88 42.333 169 127 243c61.333 54 136.666 81 225.999 81c67.333 0 115 -15 143 -45c22 -23.333 36.667 -47.666 44 -72.999c6.66699 -21.333 10 -49.333 10 -84c0 -16.667 -3 -39.667 -9 -69l-33 -160h6
c2 0 4.83301 0.333008 8.5 1s6.16699 1 7.5 1c34.667 2.66699 59.667 5.33398 75 8.00098c27.333 4 51.333 11 72 21c3.33301 -0.666992 6.66602 -0.333984 9.99902 0.999023c4.66699 -1.33301 8 -5.66602 10 -12.999zM438.004 529.999c0 26 -10.5 47.333 -31.5 64
s-44.833 25 -71.5 25c-20 0 -43.667 -5 -71 -15c-32 -12 -64 -36.333 -96 -73c-34.667 -40.667 -51.334 -84.334 -50.001 -131.001c0 -10.667 1 -25.667 3 -45c6 -27.333 27 -52 63 -74c30 -18.667 89.667 -28 179 -28c10.667 0 19.334 0.666992 26.001 2l38 177
c7.33301 34.667 11 67.334 11 98.001z" />
    <glyph glyph-name="Icircumflex" unicode="&#xce;" horiz-adv-x="842" 
d="M333 -19c-91.333 0 -161.333 29 -210 87s-73 126.333 -73 205c0 53.333 16 104.333 48 153c51.333 78.667 110.333 135.667 177 171c24 12.667 42.667 19 56 19c4 0 13.333 -4 28 -12s22.667 -13.333 24 -16s2 -6.66699 2 -12c0 -3.33301 -3.66699 -7.66602 -11 -12.999
c-95.333 -66.667 -155.666 -134 -180.999 -202c-16.667 -43.333 -25 -76.666 -25 -99.999c0 -54 18.833 -100 56.5 -138s83.5 -57 137.5 -57c31.333 0 59.333 4.66699 84 14c58 22 110.5 62.667 157.5 122s70.5 133.333 70.5 222c0 69.333 -25 122.666 -75 159.999
c-44.667 33.333 -103 50 -175 50c-76 0 -144 -9 -204 -27c-26.667 -8 -42.334 -12 -47.001 -12s-8 1 -10 3c-2 6 -2.66699 10.333 -2 13c2.66699 4 5 13.5 7 28.5s5.66699 25.833 11 32.5c10 12 66.667 24.667 170 38c50.667 6.66699 93.667 10 129 10
c103.333 0 180.666 -29.333 231.999 -88c54.667 -62.667 82 -129.334 82 -200.001v-8c0 -124.667 -46.667 -229.667 -140 -315s-199.666 -128 -318.999 -128z" />
    <glyph glyph-name="Idieresis" unicode="&#xcf;" horiz-adv-x="868" 
d="M843 682l-21.9971 -82l-44 4l-28 -98c-20 -71.333 -35.333 -129.333 -46 -174c-18 -78 -27 -135.667 -27 -173c0 -31.333 4.66699 -53.333 14 -66c10.667 -14.667 22.667 -22 36 -22c28 0 55.333 22 82 66c1.33301 -33.333 2 -50.333 2 -51c0 -18 -8 -34.667 -24 -50
c-18.667 -18 -36 -30 -52 -36c-32.667 -12.667 -53.667 -19 -63 -19c-32 0 -57.667 21 -77 63c-11.333 24 -17 59.333 -17 106c0 64.667 15 154 45 268c6.66699 28.667 18 71 34 127l22 67c-38 5.33301 -89.333 8 -154 8c-88 0 -169.667 -11.667 -245 -35
c-107.333 -34 -161 -85 -161 -153c0 -33.333 14 -56.333 42 -69c33.333 -15.333 81 -23 143 -23l-20 -69c-7.33301 0 -18.333 -0.5 -33 -1.5s-25.667 -1.5 -33 -1.5c-55.333 0 -102 13 -140 39c-51.333 34 -77 73.333 -77 118c0 67.333 52.333 131.333 157 192
c58.667 34 128 57.333 208 70c57.333 9.33301 130.666 14 219.999 14c1.33301 0 50 -2 146 -6c7.33301 0 18 -0.333008 32 -1c9.33301 -2 23.666 -4.33301 42.999 -7c11.333 -1.33301 23.666 -3 36.999 -5zM506.003 573l-98.999 -410.001
c-2.66699 -5.33301 -12.667 -39.666 -30 -102.999c-14.667 -53.333 -39.667 -101.333 -75 -144c-39.333 -48.667 -83.666 -78 -132.999 -88c-20.667 -4.66699 -44.334 -7 -71.001 -7c-36.667 0 -58.334 2.66699 -65.001 8c-2.66699 2 -4 6.66699 -4 14
c0 4 2.16699 12 6.5 24s7.83301 19.333 10.5 22c2.66699 0.666992 12.667 1 30 1c42.667 0 75.5 7.83301 98.5 23.5s40.833 37.5 53.5 65.5c26.667 58.667 52 137 76 235l87 359h115z" />
    <glyph glyph-name="Eth" unicode="&#xd0;" horiz-adv-x="715" 
d="M690 503c0 -60 -39.6689 -118.498 -119.002 -175.498s-188 -85.5 -326 -85.5l-61 -242h-115l151 610h115l-73 -298c92 13.333 163 35.666 213 66.999c65.333 41.333 98 88 98 140c0 79.333 -67.667 119 -203 119c-28.667 0 -78.667 -2.66699 -150 -8
c-41.333 -3.33301 -82.666 -10 -123.999 -20c-29.333 -7.33301 -48.333 -11 -57 -11c-1.33301 0 -4.66602 0.333008 -9.99902 1c-2.66699 4 -4 7 -4 9c0.666992 4.66699 5 19.334 13 44.001c8.66699 27.333 76 46.666 202 57.999c68.667 6 136 9 202 9
c72 0 126.167 -12.667 162.5 -38s60.5 -53.333 72.5 -84c8.66699 -22.667 13 -54.334 13 -95.001z" />
    <glyph glyph-name="Ntilde" unicode="&#xd1;" horiz-adv-x="786" 
d="M713 409l-112.002 -2.99609c22.667 61.333 34 99 34 113c0 82 -29 123 -87 123c-83.333 0 -171.666 -44.833 -264.999 -134.5s-140 -176.167 -140 -259.5c0 -45.333 12.667 -79.333 38 -102c44.667 -40 106.334 -60 185.001 -60c16.667 0 45 3.16699 85 9.5
s94 20.5 162 42.5c20.667 6.66699 42 16 64 28c2 1.33301 5.16699 3 9.5 5s11.166 5 20.499 9c-2 -22.667 -7.33301 -48.334 -16 -77.001c-22.667 -23.333 -53.334 -41.333 -92.001 -54c-24 -8.66699 -59.667 -20.334 -107 -35.001l-109 -23
c-31.333 -6.66699 -61.666 -10 -90.999 -10c-14 0 -34 3 -60 9c-53.333 12 -100.666 38 -141.999 78c-43.333 41.333 -65 101.666 -65 180.999c0 100.667 38.667 191 116 271c56 58 117.667 104.667 185 140c76 40 150 60 222 60c54.667 0 100 -10.667 136 -32
c43.333 -26 65 -64.333 65 -115c0 -62.667 -12 -117.334 -36 -164.001z" />
    <glyph glyph-name="Ograve" unicode="&#xd2;" horiz-adv-x="1014" 
d="M711 590l-137 -590h-115l135 578zM989 673l-24.001 -78.999l-43 6c-8 -23.333 -19 -58 -33 -104c-14 -48 -23 -85.667 -27 -113c-1.33301 -4 -3 -10.333 -5 -19l-25 -120c-9.33301 -48 -14 -88.333 -14 -121c0 -12.667 3.66699 -25 11 -37s16.333 -19.667 27 -23
c2 -0.666992 7.33301 -1 16 -1c9.33301 0 19.666 4 30.999 12s19 16.667 23 26c1.33301 2.66699 3.66602 6.66699 6.99902 12l7 3l4 -1l5 -5c1.33301 -3.33301 2 -12.333 2 -27c0 -26 -17.333 -50 -52 -72c-32 -19.333 -61.667 -29 -89 -29c-35.333 0 -61.666 21 -78.999 63
c-13.333 31.333 -20 67.666 -20 108.999c0 27.333 2.66699 54 8 80l26 127c6.66699 28.667 16 71.334 28 128.001c3.33301 12.667 8.66602 31.334 15.999 56.001l18 64c-23.333 3.33301 -59.666 7.33301 -108.999 12c-28.667 1.33301 -61.334 2 -98.001 2
c-129.333 0 -243.166 -17.833 -341.499 -53.5s-147.5 -83.167 -147.5 -142.5c0 -26.667 14.833 -49.834 44.5 -69.501s74.5 -29.5 134.5 -29.5l-42 -63c-73.333 0 -129.333 12 -168 36c-53.333 32.667 -80 72 -80 118c0 77.333 57.667 146.666 173 207.999
c92.667 49.333 230.334 74 413.001 74c26 0 74.667 -1.66699 146 -5c38 0 95 -2.66699 171 -8c34.667 -5.33301 63.334 -10 86.001 -14zM507.999 571.001l-100.002 -404.001c-23.333 -94 -54.666 -174.333 -93.999 -241c-25.333 -42.667 -61.333 -72 -108 -88
c-34 -11.333 -81 -17 -141 -17c-14.667 0 -23.667 0.666992 -27 2c-2.66699 4 -4 8 -4 12l1 2c0 24.667 1.66699 39.334 5 44.001l8 3c52.667 0 89.334 6.66699 110.001 20c50.667 33.333 95 122 133 266l102 389z" />
    <glyph glyph-name="Oacute" unicode="&#xd3;" horiz-adv-x="814" 
d="M789 285l-27 -85.998c-36.667 -18.667 -86 -35 -148 -49c-13.333 -36 -28 -68.333 -44 -97c-38.667 -68.667 -93.5 -124.5 -164.5 -167.5s-145.167 -64.5 -222.5 -64.5c-50 0 -89 9 -117 27c-44 28 -66 59.667 -66 95c-0 47.333 16.333 85.666 49 114.999
c38 35.333 84 61.333 138 78c24.667 8 77.334 19.333 158.001 34c74.667 13.333 133.667 23 177 29l99 291h-11c-9.33301 -16.667 -20 -33 -32 -49l-42 -56c-24.667 -33.333 -54 -63.666 -88 -90.999c-42.667 -35.333 -79 -53 -109 -53c-37.333 0 -67 15.333 -89 46
c-29.333 40 -52.666 103.667 -69.999 191c-16.667 82 -25 152.667 -25 212c0 34.667 1 58 3 70h115c0 4 1.33301 -23.333 4 -82c10 -220 39.667 -330 89 -330c18 0 37 11 57 33l60 67c40 44.667 75.667 95 107 151c19.333 34.667 46.666 88.334 81.999 161.001h115
c-6.66699 -18.667 -15 -46.667 -25 -84c-12.667 -58.667 -31.667 -133.334 -57 -224.001c-36 -126 -57 -200.333 -63 -223c45.333 13.333 70.666 20.666 75.999 21.999c27.333 9.33301 51 20.666 71 33.999zM488 120.002c-80.667 -15.333 -132.999 -25.999 -156.999 -31.999
c-58 -14.667 -108 -32.334 -150 -53.001c-46.667 -23.333 -70 -54 -70 -92c0 -17.333 10 -31 30 -41c16 -7.33301 33.667 -11 53 -11c69.333 0 140.666 36.333 213.999 109c35.333 35.333 62 75.333 80 120z" />
    <glyph glyph-name="Ocircumflex" unicode="&#xd4;" horiz-adv-x="1316" 
d="M1279 366c0 -98 -29.665 -175.668 -88.998 -233.001c-104 -101.333 -226.667 -152 -368 -152c-8.66699 0 -27.334 2 -56.001 6c-49.333 6.66699 -93 21.667 -131 45c-25.333 -61.333 -65 -118.666 -119 -171.999s-115 -80 -183 -80c-32.667 0 -61 5.66699 -85 17l10 65
c20.667 -6.66699 42.334 -10 65.001 -10c39.333 0 79.666 20.833 120.999 62.5s74.666 106.5 99.999 194.5c-84 -86 -162 -129 -234 -129c-86 0 -157.667 33 -215 99c-38.667 44 -58 102.667 -58 176c0 108.667 47.333 195.667 142 261s192.334 98 293.001 98
c71.333 0 139 -9.66699 203 -29c24 58.667 61 110 111 154c56 48.667 113 73 171 73c34 0 64 -3.66699 90 -11v-58c-18 3.33301 -38.667 5 -62 5c-60 0 -106.667 -23.333 -140 -70c-37.333 -51.333 -69 -118 -95 -200l24 21c89.333 78.667 185.666 118 288.999 118
c67.333 0 121 -25.667 161 -77c36.667 -46.667 55 -104.667 55 -174zM1161 344.999c0 48.667 -11.335 86.001 -34.002 112.001c-35.333 40.667 -76 61 -122 61c-17.333 0 -42.833 -4.83301 -76.5 -14.5s-67.167 -29.834 -100.5 -60.501
c-75.333 -68 -131.666 -179.333 -168.999 -334c54.667 -28.667 113.334 -43 176.001 -43c12 0 32 2.66699 60 8c74 13.333 141.667 50 203 110c42 41.333 63 95 63 161zM644 512c-30 12 -56 19.665 -78 22.998c-8 0.666992 -36.667 2.33398 -86 5.00098
c-6.66699 0.666992 -13.667 1 -21 1c-71.333 0 -131.333 -18.667 -180 -56c-82.667 -63.333 -124 -137.666 -124 -222.999c0 -48 15.333 -88.333 46 -121s70 -49 118 -49c107.333 0 193.333 59.667 258 179c30.667 56 53 136.333 67 241z" />
    <glyph glyph-name="Otilde" unicode="&#xd5;" horiz-adv-x="1032" 
d="M1007 667l-82 -107c-21.333 -28 -51.666 -63 -90.999 -105l-97 -101l-75 -80c9.33301 -34 22.666 -74.667 39.999 -122c18.667 -51.333 45.334 -77 80.001 -77h9c32.667 0 100 30.667 202 92l-8 -72c-30 -24 -70 -48 -120 -72c-57.333 -28 -101.666 -42 -132.999 -42
c-44 0 -79.333 25 -106 75c-18.667 34 -35.334 77.667 -50.001 131c-54.667 -50.667 -93.334 -84.667 -116.001 -102c-45.333 -34.667 -90 -59.334 -134 -74.001c-61.333 -20 -107 -30 -137 -30c-50.667 0 -94.834 19.833 -132.501 59.5s-56.5 84.834 -56.5 135.501
c0 83.333 40.333 150 121 200c68.667 42.667 147.334 64 236.001 64h3c33.333 0 50 -5 50 -15c0 -7.33301 -3.83301 -19.166 -11.5 -35.499s-14 -25.5 -19 -27.5s-17.833 -3 -38.5 -3c-58.667 0 -112 -19 -160 -57c-50.667 -40 -76 -88.667 -76 -146
c0 -27.333 8.16699 -49.833 24.5 -67.5s37.833 -26.5 64.5 -26.5c62 0 152.667 52.333 272 157c21.333 18.667 48 44 80 76l-99 388h111l73 -311c102 103.333 154 159.666 156 168.999c1.33301 0.666992 15.666 17.667 42.999 51l48 60
c12.667 17.333 22.334 33.333 29.001 48z" />
    <glyph glyph-name="Odieresis" unicode="&#xd6;" horiz-adv-x="803" 
d="M778 642l-128.997 -449.998c-2 -15.333 -5.33301 -32.666 -10 -51.999c0 -4.66699 -0.5 -11.167 -1.5 -19.5s-1.5 -14.5 -1.5 -18.5c0 -15.333 9 -26.666 27 -33.999h7c11.333 0 22.333 5.33301 33 16l28 27c6.66699 2.66699 13 4 19 4s11.333 -0.833008 16 -2.5
s7 -4.83398 7 -9.50098c0 -14 -3.66699 -34.333 -11 -61c-15.333 -56.667 -42.333 -108 -81 -154c-44.667 -52.667 -92.667 -81.667 -144 -87c-13.333 -1.33301 -26.333 -2 -39 -2c-24 0 -65 7.66699 -123 23l-61 15c-18.667 4.66699 -47 7 -85 7
c-12 0 -26.667 -4.5 -44 -13.5s-31 -13.5 -41 -13.5c-24 0 -36 13 -36 39l1 8c11.333 21.333 38 38.666 80 51.999c35.333 11.333 68.666 17 99.999 17c51.333 0 93.333 -6.33301 126 -19l53 -22c24 -9.33301 42.333 -14 55 -14c71.333 0 120.666 46.333 147.999 139
c-22.667 -24 -48.667 -36 -78 -36l-6 1c-23.333 4 -41.333 17 -54 39c-10 19.333 -15 41.666 -15 66.999c0 27.333 3.33301 53 10 77c2.66699 9.33301 11.667 34.333 27 75c18 48.667 32.333 89 43 121h-10l-71 -128c-46 -72 -101.333 -135.667 -166 -191
c-47.333 -40.667 -96.666 -61 -147.999 -61c-37.333 0 -66 12.333 -86 37c-24.667 30 -37 63.333 -37 100c0 37.333 14.333 92.333 43 165c42 105.333 63.333 159.333 64 162c14.667 48 22 78.333 22 91c0 28 -10.167 49.667 -30.5 65s-44.833 23 -73.5 23
c-4.66699 0 -11.334 -0.5 -20.001 -1.5s-15.334 -1.5 -20.001 -1.5c-4 0 -7.66699 0.666992 -11 2l-4 8v5c0 2 3 13.667 9 35c5.33301 19.333 21.333 29 48 29c33.333 0 61.666 -3.33301 84.999 -10c26.667 -8 52 -24.333 76 -49c25.333 -26.667 39.333 -53.334 42 -80.001
c2 -21.333 3 -33.666 3 -36.999c0 -30 -23 -104.667 -69 -224l-27 -73v-1c-15.333 -28 -23 -52.667 -23 -74c0 -45.333 16 -68 48 -68c16.667 0 47 15 91 45c40 27.333 89.667 83.666 149 168.999c47.333 68 86 131.667 116 191c14.667 29.333 36.334 80.333 65.001 153h115
z" />
    <glyph glyph-name="multiply" unicode="&#xd7;" horiz-adv-x="728" 
d="M678 660l-113.001 -406.003l-24 -92c-6 -24.667 -9 -37.667 -9 -39c0 -30.667 9.66699 -46 29 -46c15.333 0 35 6 59 18l57 29c-7.33301 -45.333 -14.666 -73.666 -21.999 -84.999c-10.667 -14 -35.5 -27.167 -74.5 -39.5s-64.167 -18.5 -75.5 -18.5
c-26 0 -47.667 10 -65 30c-16 18 -25.667 40.333 -29 67c-1.33301 10 -2 21.333 -2 34l6 35c2.66699 13.333 10.334 40.333 23.001 81l60 187h-10c-58.667 -87.333 -108 -152.333 -148 -195c-45.333 -48.667 -91.333 -73 -138 -73c-36 0 -64.333 16.333 -85 49
c-30 44.667 -53.667 107 -71 187c-14.667 68.667 -22 135.667 -22 201c0 56.667 4 95.334 12 116.001h108c-4 -33.333 -6 -79.666 -6 -138.999c0 -54.667 5.33301 -111 16 -169c16.667 -91.333 42.334 -137 77.001 -137c15.333 0 36.666 9.66699 63.999 29
c22.667 16 59.334 55.667 110.001 119c45.333 56.667 76.666 99.667 93.999 129c21.333 35.333 42.666 78 63.999 128h115z" />
    <glyph glyph-name="Oslash" unicode="&#xd8;" horiz-adv-x="1219" 
d="M1025 -19c-27.333 0 -50.3311 10.334 -68.998 31.001s-28 44.667 -28 72c0 36 7.33301 76.667 22 122c22 66.667 42 124.667 60 174h-10c-10 -18 -26 -44.333 -48 -79v-1c-52.667 -81.333 -83 -127.333 -91 -138c-40 -56.667 -76 -97.334 -108 -122.001
c-50 -39.333 -95.667 -59 -137 -59c-32.667 0 -58.834 11.833 -78.501 35.5s-29.5 52.167 -29.5 85.5c0 36 14 90 42 162c10 26 25.667 64.667 47 116h-10c-105.333 -180 -188.833 -291.5 -250.5 -334.5s-109.5 -64.5 -143.5 -64.5c-28.667 0 -54.334 14.667 -77.001 44
c-15.333 18.667 -23 44 -23 76c0 42 15.667 105.667 47 191c38.667 106.667 60.667 171.334 66 194.001c6 26 9 46 9 60c0 30.667 -14 53.667 -42 69c-22.667 12 -50.667 18 -84 18c-8.66699 0 -21.667 -1 -39 -3c2.66699 30.667 9.33398 50 20.001 58s33 12 67 12
c51.333 0 90.333 -8.66699 117 -26c40.667 -28 63.667 -60.333 69 -97c2.66699 -18.667 4 -28.334 4 -29.001c0 -38 -13.333 -95.333 -40 -172l-58 -163c-14 -40 -21 -72.667 -21 -98c0 -6 2 -12.167 6 -18.5s9 -9.5 15 -9.5c38 0 105.667 63 203 189
c84.667 108.667 144 197 178 265c24 48 41.333 85 52 111h115l-115 -407c-17.333 -61.333 -26 -101.666 -26 -120.999c0 -8 2.33301 -16.167 7 -24.5s10.667 -12.5 18 -12.5c18.667 0 50.667 22.667 96 68c66.667 66.667 139.667 170 219 310
c43.333 77.333 74.666 139.666 93.999 186.999h115l-119 -422c-5.33301 -18.667 -12.666 -47 -21.999 -85l-4 -42c-2 -19.333 10 -29 36 -29c16.667 0 38.167 6.83301 64.5 20.5s42.833 20.5 49.5 20.5c1.33301 -1.33301 2.66602 -3 3.99902 -5v-4
c0 -3.33301 -1 -10.333 -3 -21c-0.666992 -4.66699 -2 -11 -4 -19c-6.66699 -17.333 -27.334 -35 -62.001 -53c-41.333 -21.333 -74.666 -32 -99.999 -32z" />
    <glyph glyph-name="Ugrave" unicode="&#xd9;" horiz-adv-x="1219" 
d="M1194 96c0 -43.333 -11.501 -87.668 -34.501 -133.001s-51.5 -82.333 -85.5 -111c-26.667 -22 -58 -36.333 -94 -43c-22 -4 -56.333 -6 -103 -6c-3.33301 0 -8.33301 0.666992 -15 2s-11 2 -13 2c-27.333 2.66699 -60.666 10 -99.999 22c-59.333 18 -115.333 27 -168 27
c-83.333 0 -163 -18.333 -239 -55l-24 52c50 42 127.333 72.333 232 91c42 7.33301 78 11 108 11c42 0 89.667 -8 143 -24c4 -2 10.667 -4.66699 20 -8c64 -22.667 106.333 -34 127 -34c54 0 100 35 138 105c-4 -1.33301 -9.66699 -3.33301 -17 -6
c-15.333 -4.66699 -29.666 -7 -42.999 -7c-24.667 0 -45.834 8.33301 -63.501 25s-28.167 37 -31.5 61c-1.33301 8.66699 -2 18 -2 28c0 26 7 63 21 111l51 174l-56 -92c-82.667 -139.333 -150.667 -225.666 -204 -258.999c-50.667 -32 -92 -48 -124 -48
c-31.333 0 -57.166 11.167 -77.499 33.5s-30.5 49.5 -30.5 81.5c0 30 9.66699 76 29 138l46 146c-44 -84.667 -95.667 -164 -155 -238c-86.667 -107.333 -162 -161 -226 -161c-33.333 0 -60.333 12 -81 36c-18.667 22 -28 50 -28 84c0 35.333 9 80.666 27 135.999
c0.666992 2 16.5 45.667 47.5 131s46.5 144.666 46.5 177.999c0 30 -14.333 53 -43 69c-22.667 12 -50.667 18 -84 18c-18.667 0 -31.334 -1 -38.001 -3c2.66699 31.333 10.334 51.333 23.001 60c10 6.66699 31.667 10 65 10c51.333 0 90.333 -8.66699 117 -26
c42 -28.667 65 -61 69 -97c2 -18.667 3 -36.667 3 -54c0 6.66699 -1.33301 -2.33301 -4 -27c-2.66699 -16 -13.667 -53 -33 -111c-7.33301 -23.333 -19 -57.666 -35 -102.999h-1l-27 -77c-11.333 -32.667 -17 -59 -17 -79c0 -20.667 6.33301 -31 19 -31
c23.333 0 62 28.333 116 85c33.333 34 63.666 68.667 90.999 104c43.333 56 81.666 109.667 114.999 161c22.667 34.667 54.334 90.667 95.001 168c4 8.66699 9.66699 21.667 17 39h115l-115 -407c-17.333 -61.333 -26 -101.666 -26 -120.999c0 -24 8 -36 24 -36
c22 0 58.333 27 109 81c34.667 38 62.667 72 84 102c22.667 32.667 54 82 94 148c42 69.333 81.667 147 119 233h115l-119 -422c-16.667 -59.333 -25 -102.333 -25 -129c0 -18 14 -27 42 -27c14 0 32.333 5.66699 55 17l52 26l2 -1c3.33301 -4 5 -10.667 5 -20z" />
    <glyph glyph-name="Uacute" unicode="&#xda;" horiz-adv-x="856" 
d="M806 164c0 -12 -3.66504 -29.333 -10.998 -52c-23.333 -71.333 -80.666 -131.666 -171.999 -180.999c-63.333 -33.333 -156 -50 -278 -50c-13.333 0 -31 1.33301 -53 4c-28 3.33301 -43.167 7.66602 -45.5 12.999s-3.5 9.66602 -3.5 12.999c0 22 1.33301 34.333 4 37
l11 5h8c5.33301 0 13.166 -0.5 23.499 -1.5s17.833 -1.5 22.5 -1.5l54 -1c12 0 30.333 1.33301 55 4c61.333 6.66699 119.333 30 174 70c62 46 93 97.667 93 155c0 39.333 -16.667 70 -50 92c-28 18.667 -63 28 -105 28c-69.333 0 -118 -3.33301 -146 -10l-71 -288h-115
l145 599c-5.33301 0 -13.333 -0.666992 -24 -2s-18.334 -2 -23.001 -2c-29.333 -0.666992 -61 -1 -95 -1l-109 1c-30 0 -61.667 4 -95 12l20 71c13.333 -1.33301 36.666 -2 69.999 -2c12.667 0 38 1 76 3c17.333 0 43 0.666992 77 2l279 19l-21 -93l-34 -6l-56 -232
c42 6 88 9 138 9c76.667 0 134.667 -15 174 -45c55.333 -43.333 83 -99.666 83 -168.999z" />
    <glyph glyph-name="Ucircumflex" unicode="&#xdb;" horiz-adv-x="1001" 
d="M976 700l-132.999 -466.998c-19.333 -68 -29 -111.667 -29 -131c0 -22 10.667 -33 32 -33c13.333 0 34 6.16699 62 18.5s43.667 18.166 47 17.499c2 -2.66699 3.66699 -5.33398 5 -8.00098c-3.33301 -27.333 -7.33301 -45.666 -12 -54.999
c-7.33301 -14.667 -21 -25.334 -41 -32.001l-53 -17c-28.667 -8 -53.334 -12 -74.001 -12c-26 0 -46.333 9.66699 -61 29s-22 42.333 -22 69c0 24.667 4 52.667 12 84l23 81l128 456h116zM653.001 184.002c0 -64.667 -28.3359 -123.331 -85.0029 -175.998
c-48 -44.667 -106.667 -78.334 -176 -101.001c-55.333 -18 -125.333 -27 -210 -27c-5.33301 0 -13 0.333008 -23 1l-43 2c-21.333 2.66699 -32.666 9.33398 -33.999 20.001l1 2c-0.666992 1.33301 0.833008 7.33301 4.5 18s5.16699 17 4.5 19l2 2l3 7c2 2 7.66699 3 17 3
c-1.33301 0 7.83398 -1 27.501 -3s47.5 -3 83.5 -3c63.333 0 119.333 14 168 42c36.667 21.333 67.667 45.666 93 72.999c32.667 36 49 71 49 105c0 43.333 -18 76.666 -54 99.999c-31.333 20.667 -70 31 -116 31c-60.667 0 -103 -5.66699 -127 -17l-73 -282h-115l178 700
h115l-82 -329c44 4.66699 92.667 7 146 7c62.667 0 119.334 -13.5 170.001 -40.5s76 -78.167 76 -153.5z" />
    <glyph glyph-name="Udieresis" unicode="&#xdc;" horiz-adv-x="678" 
d="M653 184c0 -64.667 -28.3359 -123.331 -85.0029 -175.998c-48 -44.667 -106.667 -78.334 -176 -101.001c-55.333 -18 -125.333 -27 -210 -27c-5.33301 0 -13 0.333008 -23 1l-43 2c-21.333 2.66699 -32.666 9.33398 -33.999 20.001l1 2
c-0.666992 1.33301 0.833008 7.33301 4.5 18s5.16699 17 4.5 19l2 2l3 7c2 2 7.66699 3 17 3c-1.33301 0 7.83398 -1 27.501 -3s47.5 -3 83.5 -3c63.333 0 119.333 14 168 42c36.667 21.333 67.667 45.666 93 72.999c32.667 36 49 71 49 105c0 43.333 -18 76.666 -54 99.999
c-31.333 20.667 -70 31 -116 31c-60.667 0 -103 -5.66699 -127 -17l-73 -282h-115l178 700h115l-82 -329c44 4.66699 92.667 7 146 7c62.667 0 119.334 -13.5 170.001 -40.5s76 -78.167 76 -153.5z" />
    <glyph glyph-name="Yacute" unicode="&#xdd;" horiz-adv-x="712" 
d="M700 434c0 -122 -31.001 -219.667 -93.001 -293c-70.667 -83.333 -149.667 -134.666 -237 -153.999c-32 -6.66699 -59 -10 -81 -10c-49.333 0 -102.833 14.667 -160.5 44s-100.5 64 -128.5 104l48 39c64 -64 127.667 -96 191 -96c90.667 0 170.667 29.333 240 88
c42 35.333 73 86 93 152c-45.333 10 -99.666 15 -162.999 15c-30.667 0 -59.334 -3.66699 -86.001 -11c-2 -0.666992 -9 -3.66699 -21 -9c-8.66699 -3.33301 -15.667 -5 -21 -5c-17.333 0 -26 12 -26 36c0 9.33301 2 18.333 6 27c6.66699 14.667 52.334 30.667 137.001 48
c20 4 51 6 93 6c7.33301 0 37.666 -1.66699 90.999 -5v7c0.666992 4 1 6.66699 1 8c0 70 -16.5 123 -49.5 159s-72.833 54 -119.5 54c-45.333 0 -83.166 -12.333 -113.499 -37s-50.5 -59.334 -60.5 -104.001l-108 10c6 62.667 33 111 81 145c64.667 45.333 141 68 229 68
c62 0 120.5 -24.833 175.5 -74.5s82.5 -120.167 82.5 -211.5z" />
    <glyph glyph-name="Thorn" unicode="&#xde;" horiz-adv-x="1357" 
d="M1307 418c0 -108 -45.6709 -209.331 -137.004 -303.998c-85.333 -88.667 -194.333 -133 -327 -133c-101.333 0 -174.166 30.167 -218.499 90.5s-66.5 127.166 -66.5 200.499c0 15.333 0.333008 24.666 1 27.999l-98 -7c-7.33301 -34 -19.666 -83.667 -36.999 -149
c-16 -50 -47.333 -96.333 -94 -139c-36 -32.667 -87 -49 -153 -49c-31.333 0 -56.333 2.66699 -75 8c-22 6 -34.5 10.667 -37.5 14s-6.83301 7.33301 -11.5 12l-3 8c0 10 3 20 9 30s13.667 15 23 15c6 0 14.833 -1.66699 26.5 -5s19.5 -5.33301 23.5 -6
c11.333 -1.33301 24.333 -2 39 -2c74 0 124.667 57.667 152 173c1.33301 3.33301 3 8.66602 5 15.999l17 63l-78 -7c-30 -2.66699 -41.667 -4 -35 -4c-14.667 0 -22 5 -22 15c0 -2 2.33301 9 7 33c4 20 12.333 33 25 39c7.33301 4 23 7 47 9l80 6l56 230
c-62 0 -131 -16.667 -207 -50c-68 -30 -110 -45 -126 -45c-9.33301 0 -15.666 3.33301 -18.999 10c-0.666992 10.667 -1 16.667 -1 18c0 21.333 7.33301 38 22 50c34 26 106.333 55.333 217 88c104.667 30.667 177.667 46 219 46c20 0 30 -11 30 -33
c0 -4 -3.66699 -20.333 -11 -49l-65 -256l101 8c14.667 29.333 32.667 57 54 83c26.667 32 57.334 62.667 92.001 92c46.667 39.333 83.334 59 110.001 59c6 0 15.667 -3.66699 29 -11s21 -12.666 23 -15.999l2 -6v-4c0 -5.33301 -1 -8.83301 -3 -10.5
s-8.66699 -6.5 -20 -14.5c-22 -14.667 -45.667 -34 -71 -58c-83.333 -78.667 -125 -158.334 -125 -239.001c0 -58 19.667 -104.667 59 -140c42.667 -38 86 -57 130 -57h14c87.333 0 166.666 45.333 237.999 136c48 60 72 136.667 72 230c0 46.667 -17.667 91.667 -53 135
c-40 49.333 -109.333 74 -208 74c-48 0 -96.667 -4.33301 -146 -13c-7.33301 -1.33301 -25.333 -6.33301 -54 -15c-26 -8 -42 -12 -48 -12l-9 1l-1 9c0 0.666992 2.66699 16.667 8 48c4.66699 26.667 88.667 45.334 252 56.001c36 2.66699 63 4 81 4
c77.333 0 140 -21.333 188 -64c52 -46 83.667 -93.333 95 -142c8.66699 -38 13 -70.333 13 -97z" />
    <glyph glyph-name="germandbls" unicode="&#xdf;" horiz-adv-x="856" 
d="M892 656l-28 -56.998c-49.333 14 -92.666 23 -129.999 27c-20 2.66699 -65.333 5.66699 -136 9c-10.667 0.666992 -21 1 -31 1c-75.333 0 -138.666 -13 -189.999 -39c-77.333 -38.667 -116 -85.334 -116 -140.001c0 -40 19.333 -73.333 58 -100
c29.333 -20.667 87.333 -31 174 -31c4.66699 0 18 1 40 3s34 3.66699 36 5l72 254h115l-103 -368l-27 -93c-4.66699 -16 -7 -30 -7 -42c0 -16.667 7.33301 -25 22 -25c6.66699 0 16.334 2.66699 29.001 8c8.66699 4 18.667 10 30 18c17.333 13.333 26.333 20 27 20l11 2
c4 -2 6 -9 6 -21c0 -14.667 -0.666992 -24 -2 -28c-7.33301 -20 -29 -38.333 -65 -55c-33.333 -15.333 -61.333 -23 -84 -23c-50.667 0 -80.667 22.333 -90 67c-0.666992 4 -1 7.33301 -1 10c4 46.667 18 109.667 42 189c-96 -88.667 -171.5 -155.167 -226.5 -199.5
s-100.167 -66.5 -135.5 -66.5c-34.667 0 -80.334 22.333 -137.001 67c-8 7.33301 -20.667 18 -38 32c-4.66699 6.66699 -7 11 -7 13c0 6 1 11.333 3 16c10.667 16 20.334 24 29.001 24c5.33301 0 10 -1 14 -3c3.33301 -4 8.66602 -9.33301 15.999 -16
c30.667 -26.667 56.667 -40 78 -40c11.333 0 21 1.66699 29 5l35 15c22 9.33301 63.333 39.666 124 90.999l93 74c-6 -0.666992 -15 -1 -27 -1c-64.667 0 -120.334 17.667 -167.001 53c-51.333 38.667 -77 89 -77 151c0 61.333 33.333 116.333 100 165s186 73 358 73
c3.33301 0 9 -0.333008 17 -1s13.667 -1 17 -1h41c5.33301 -1.33301 13.666 -2.66602 24.999 -3.99902l43 -3c41.333 -6.66699 88.333 -18.334 141 -35.001z" />
    <glyph glyph-name="agrave" unicode="&#xe0;" horiz-adv-x="637" 
d="M612 112l-18.0029 -71.001c-19.333 -19.333 -37.666 -32.666 -54.999 -39.999c-30 -12.667 -57.333 -19 -82 -19c-19.333 0 -37.166 6.16699 -53.499 18.5s-24.5 28.166 -24.5 47.499c0 25.333 6.33301 50 19 74h-10c-8 -27.333 -28.167 -54.166 -60.5 -80.499
s-63.166 -42.5 -92.499 -48.5s-48.666 -9 -57.999 -9c-45.333 0 -82 13.667 -110 41s-42 63.666 -42 108.999v6c0 66.667 33.167 129.334 99.5 188.001s141.166 88 224.499 88c28.667 0 66 -11.667 112 -35l9 35h99l-70 -278c-4 -16 -6 -31.667 -6 -47
c0 -14 5.66699 -21 17 -21c20 0 54 14 102 42zM441.997 314.999c-28 13.333 -57.999 20 -89.999 20c-48 0 -89.667 -14.667 -125 -44c-40 -32.667 -64.667 -65.667 -74 -99c-7.33301 -25.333 -11 -43.333 -11 -54c0 -47.333 19.667 -71 59 -71
c51.333 0 101.666 29.333 150.999 88c40 48 70 101.333 90 160z" />
    <glyph glyph-name="aacute" unicode="&#xe1;" horiz-adv-x="567" 
d="M617 697c0 -80.667 -63.999 -128.334 -191.999 -143.001c-16.667 -0.666992 -41.667 -3 -75 -7c-9.33301 -2.66699 -24.333 -8.16699 -45 -16.5s-42.667 -28.166 -66 -59.499c-18.667 -26.667 -33.334 -53.667 -44.001 -81l-31 -81l7 -7c17.333 36.667 47 65.667 89 87
c38 18 79.333 27 124 27c34 0 68.5 -14.167 103.5 -42.5s52.5 -68.833 52.5 -121.5c0 -67.333 -29 -125.333 -87 -174c-76 -64 -160 -96 -252 -96c-60 0 -108.667 18.667 -146 56c-20 20 -30 50.667 -30 92c0 42.667 11.333 100 34 172
c38.667 123.333 91.667 210.333 159 261c46.667 35.333 97.667 58.333 153 69l67 13c24 4 47.667 8.33301 71 13c28 8 46.667 21 56 39h52zM423.001 247c0 24.667 -6.99902 45 -20.999 61s-33.333 24 -58 24c-38.667 0 -74.667 -14.333 -108 -43
c-52.667 -44.667 -82.334 -87.667 -89.001 -129c-3.33301 -20 -5 -31.333 -5 -34c0 -20 7.5 -36 22.5 -48s32.833 -18 53.5 -18c10 0 22.667 1.33301 38 4c41.333 7.33301 79.5 29.5 114.5 66.5s52.5 75.833 52.5 116.5z" />
    <glyph glyph-name="acircumflex" unicode="&#xe2;" horiz-adv-x="486" 
d="M340 389v-8.00098c10.667 2.66699 23.667 4 39 4c36 0 65.333 -14.5 88 -43.5s34 -61.833 34 -98.5c0 -10 -3 -28.333 -9 -55c-10.667 -48 -46 -95.333 -106 -142c-55.333 -42.667 -119.333 -64 -192 -64c-52 0 -93.167 15.333 -123.5 46s-45.5 72.334 -45.5 125.001
c0 36.667 10.667 86.667 32 150c34 102 80.667 188.333 140 259c66 78.667 129.667 123.334 191 134.001c24.667 4 43.334 6 56.001 6c25.333 0 47 -8.66699 65 -26s27 -38.666 27 -63.999c0 -12 -1.33301 -25 -4 -39c-4.66699 -24.667 -20.5 -52.834 -47.5 -84.501
s-52.5 -54.167 -76.5 -67.5c-14.667 -8.66699 -37.334 -19.334 -68.001 -32.001zM434 590.999c0 22 -11 33.001 -33 33.001c-33.333 0 -72.666 -25.667 -117.999 -77c-36.667 -41.333 -64.334 -82.333 -83.001 -123c-10.667 -22.667 -24 -58 -40 -106h2
c42.667 24 86.667 54.333 132 91c48.667 40.667 85.667 79 111 115c19.333 27.333 29 49.666 29 66.999zM310 322c-33.333 0 -64.001 -11.666 -92.001 -34.999c-55.333 -46.667 -83 -96.334 -83 -149.001c0 -20 7.16699 -37.333 21.5 -52s31.5 -22 51.5 -22
c38.667 0 78.834 19.333 120.501 58s62.5 77 62.5 115c0 56.667 -27 85 -81 85z" />
    <glyph glyph-name="atilde" unicode="&#xe3;" horiz-adv-x="424" 
d="M128 -18c-27.333 0 -51.332 8.49805 -71.999 25.498s-31 38.833 -31 65.5c0 29.333 11.667 56.666 35 81.999c14 14.667 38 34 72 58l89 62c26 18 39 35 39 51c0 16.667 -13 25 -39 25s-57.833 -16 -95.5 -48s-57.5 -48 -59.5 -48c-0.666992 0 -2 0.333008 -4 1l-8 8
c-1.33301 6 -2.66602 12.333 -3.99902 19c0 21.333 4.66699 37.333 14 48c2.66699 2.66699 16.667 12.334 42 29.001h1c79.333 50 134.333 75 165 75c28 0 52 -9.5 72 -28.5s30 -42.5 30 -70.5c0 -29.333 -15 -58.666 -45 -87.999c-16 -15.333 -43.333 -36 -82 -62
c-8.66699 -5.33301 -21.334 -13.666 -38.001 -24.999c-22.667 -15.333 -37.334 -26.333 -44.001 -33c-15.333 -14.667 -23 -30.667 -23 -48c0 -4 1.33301 -8.33301 4 -13c14 -12.667 27 -19 39 -19c39.333 0 90 14.333 152 43c12 8 30.667 17 56 27l5 -5
c0.666992 -5.33301 1 -12 1 -20v-9c0 -22 -19.667 -42.333 -59 -61c-30 -14.667 -59.667 -24 -89 -28c-62.667 -8.66699 -103.667 -13 -123 -13z" />
    <glyph glyph-name="adieresis" unicode="&#xe4;" horiz-adv-x="566" 
d="M566 362c0 -116.667 -25.332 -204 -75.999 -262c-32 -36.667 -63.333 -63.5 -94 -80.5s-69.334 -28.5 -116.001 -34.5c-19.333 -2.66699 -37.666 -4 -54.999 -4c-47.333 0 -92.5 15.833 -135.5 47.5s-64.5 74.834 -64.5 129.501c0 61.333 22 116.333 66 165
c48 53.333 96.667 86.666 146 99.999c31.333 8.66699 59 13 83 13c52 0 100.333 -28.667 145 -86c0.666992 8.66699 1 19.667 1 33v12c0 64 -17 118.667 -51 164c-37.333 50.667 -87 76 -149 76c-54.667 0 -103.334 -12.667 -146.001 -38l23 81l13 4c38.667 12 77 18 115 18
c95.333 0 169.333 -33.333 222 -100c48.667 -60.667 73 -140 73 -238zM440.001 245c0 59.333 -29.667 95.668 -89 109.001c-9.33301 2 -16.333 3 -21 3c-39.333 0 -73.333 -13.667 -102 -41c-32.667 -30.667 -54.334 -61.334 -65.001 -92.001c-14 -40 -21 -70.667 -21 -92
l1 -6c8.66699 -47.333 38.334 -71 89.001 -71s98 19.167 142 57.5s66 82.5 66 132.5z" />
    <glyph glyph-name="aring" unicode="&#xe5;" horiz-adv-x="547" 
d="M522 325c0 -57.333 -41.334 -105 -124.001 -143c-56 -26.667 -141.333 -40 -256 -40c0 -23.333 12 -43.333 36 -60c20.667 -14 56 -21 106 -21c-2 0 9 1.66699 33 5c8 1.33301 22.333 5 43 11c53.333 16 101 39.667 143 71v-53c0 -21.333 -21.333 -42.333 -64 -63
c-32.667 -15.333 -64 -26 -94 -32c-63.333 -12 -105 -18 -125 -18c-55.333 0 -101.666 16.5 -138.999 49.5s-56 76.5 -56 130.5c0 66 22.333 119.333 67 160c38 34 82.167 61.333 132.5 82s100.5 31 150.5 31c48 0 83.667 -10 107 -30c26.667 -23.333 40 -50 40 -80z
M404.999 321c0 6.66699 -5.66699 14 -17 22s-27.333 12 -48 12c-44 0 -84 -14 -120 -42s-62 -63.333 -78 -106h10c72 0 126.333 8 163 24c41.333 17.333 67 34.666 77 51.999c8.66699 14.667 13 27.334 13 38.001z" />
    <glyph glyph-name="ae" unicode="&#xe6;" horiz-adv-x="785" 
d="M785 365c-3.33301 -4 -9.00195 -8.99316 -17.002 -14.9932c-19.333 -16.667 -49 -39.667 -89 -69l-118 -72h-1c-7.33301 -6 -15.666 -11.333 -24.999 -16c8.66699 -8.66699 21.334 -22.334 38.001 -41.001s37.667 -40 63 -64c12.667 -12 29.667 -18 51 -18
c24 0 48.667 7.66699 74 23v-62c0 -6.66699 -1.5 -11.334 -4.5 -14.001s-7.5 -5.5 -13.5 -8.5s-15 -6.5 -27 -10.5c-7.33301 -3.33301 -18.333 -7.33301 -33 -12c-11.333 -2.66699 -22 -4 -32 -4c-32 0 -70.333 23.667 -115 71c-30 31.333 -57 66.333 -81 105l-9 1l-48 -159
h-100l48 158h-9c-18.667 -22 -44.334 -47 -77.001 -75c-23.333 -20 -50 -40 -80 -60c-41.333 -27.333 -71.333 -41 -90 -41c-6 0 -14.667 2 -26 6c-7.33301 3.33301 -19 12.666 -35 27.999s-25.667 26.666 -29 33.999v6c2 3.33301 5.33301 6.66602 10 9.99902l56 44
c7.33301 -12 16 -19.667 26 -23c10.667 0 25 6 43 18l95 63c17.333 12 34 23 50 33c-13.333 12 -25 24.333 -35 37l-59 71c-21.333 27.333 -38.666 52.333 -51.999 75l93 51c19.333 -40.667 51.666 -88.334 96.999 -143.001c9.33301 -12 25 -29 47 -51l51 175h100l-52 -174
c92.667 59.333 172.334 123.666 239.001 192.999z" />
    <glyph glyph-name="ccedilla" unicode="&#xe7;" horiz-adv-x="507" 
d="M360 220l-0.999023 -3.99805c28 0 51.5 -11.333 70.5 -34s28.5 -48.334 28.5 -77.001c0 -32.667 -18 -60.334 -54 -83.001c-28.667 -18 -62 -29.667 -100 -35c-24 -3.33301 -46.333 -5 -67 -5c-36 0 -70.333 6.66699 -103 20c-35.333 14.667 -63 35 -83 61
c-17.333 22.667 -26 42 -26 58c0 16.667 7.33301 25 22 25c3.33301 0 29.666 -2.66699 78.999 -8c8 -51.333 46.667 -77 116 -77c66 0 99 18.667 99 56c0 16.667 -6.83301 30.834 -20.5 42.501s-29.167 17.5 -46.5 17.5c-8.66699 0 -17 -0.666992 -25 -2l-1 -1
c-3.33301 -1.33301 -10.333 -2 -21 -2c-10 0 -15 7.33301 -15 22c0 30 3 46.667 9 50s15.333 5 28 5c52 0 86.667 11 104 33c8 10 12 19.667 12 29c0 29.333 -22.333 44 -67 44c-26.667 0 -44.667 -1.33301 -54 -4c-20 -4.66699 -32.333 -16 -37 -34
c-2.66699 -10.667 -7.66699 -19.334 -15 -26.001s-30.333 -10 -69 -10c-1.33301 0 -3.33301 0.666992 -6 2c-2 4.66699 -3 7.33398 -3 8.00098v52c0 20 17.667 38.333 53 55c26.667 13.333 53.334 22.333 80.001 27c41.333 7.33301 73 11 95 11c34 0 65 -9.66699 93 -29
c31.333 -21.333 47 -48.333 47 -81c0 -28 -10.667 -53 -32 -75c-24 -24.667 -50.333 -35.334 -79 -32.001c-6.66699 0.666992 -10.334 1 -11.001 1z" />
    <glyph glyph-name="egrave" unicode="&#xe8;" horiz-adv-x="580" 
d="M555 54c0 -20 -20.667 -37.666 -62 -52.999c-34 -12.667 -62.333 -19 -85 -19c-19.333 0 -36 4 -50 12c-18 10 -26.333 24 -25 42c0.666992 11.333 2.33398 28.666 5.00098 51.999c2 6.66699 4.66699 16.334 8 29.001c7.33301 30.667 21.333 71.667 42 123h-7l-18 -41
c-2.66699 -4 -6.33398 -10 -11.001 -18c-23.333 -38.667 -46.666 -70.334 -69.999 -95.001c-36.667 -40 -65.334 -65 -86.001 -75c-12 -6 -27 -13 -45 -21c-11.333 -5.33301 -25.333 -8 -42 -8c-27.333 0 -48.666 10.667 -63.999 32c-13.333 18.667 -20 42.334 -20 71.001
c0 10 7.33301 39 22 87l75 244h100l-81 -263c-0.666992 -1.33301 -1.33398 -3 -2.00098 -5c0 -4.66699 -2 -13.334 -6 -26.001s-6 -23.334 -6 -32.001c0 -14.667 6 -22 18 -22c24 0 56.667 20.333 98 61c89.333 87.333 150 183 182 287h99l-75 -279
c-7.33301 -27.333 -11 -45.666 -11 -54.999c0 -8.66699 1.33301 -14.667 4 -18l10 -5h6c8 0 40 15 96 45z" />
    <glyph glyph-name="eacute" unicode="&#xe9;" horiz-adv-x="580" 
d="M495 641c0 -5.33301 -7.66699 -27.333 -23 -66c-24 -25.333 -67.333 -57 -130 -95c-13.333 -8 -25 -12 -35 -12c-18.667 0 -44.167 13.833 -76.5 41.5s-48.5 50.5 -48.5 68.5c0 11.333 2.33301 23.333 7 36c6 15.333 13.667 24 23 26c2 -1.33301 4.16699 -2 6.5 -2
s15.5 -11.667 39.5 -35c30 -28.667 51 -43 63 -43l23 9c8 3.33301 33.667 20 77 50c25.333 17.333 46 29.333 62 36h4c5.33301 -4 8 -8.66699 8 -14zM555 54c0 -20 -20.667 -37.666 -62 -52.999c-34 -12.667 -62.333 -19 -85 -19c-19.333 0 -36 4 -50 12
c-18 10 -26.333 24 -25 42c0.666992 11.333 2.33398 28.666 5.00098 51.999c2 6.66699 4.66699 16.334 8 29.001c7.33301 30.667 21.333 71.667 42 123h-7l-18 -41c-2.66699 -4 -6.33398 -10 -11.001 -18c-23.333 -38.667 -46.666 -70.334 -69.999 -95.001
c-36.667 -40 -65.334 -65 -86.001 -75c-12 -6 -27 -13 -45 -21c-11.333 -5.33301 -25.333 -8 -42 -8c-27.333 0 -48.666 10.667 -63.999 32c-13.333 18.667 -20 42.334 -20 71.001c0 10 7.33301 39 22 87l75 244h100l-81 -263c-0.666992 -1.33301 -1.33398 -3 -2.00098 -5
c0 -4.66699 -2 -13.334 -6 -26.001s-6 -23.334 -6 -32.001c0 -14.667 6 -22 18 -22c24 0 56.667 20.333 98 61c89.333 87.333 150 183 182 287h99l-75 -279c-7.33301 -27.333 -11 -45.666 -11 -54.999c0 -8.66699 1.33301 -14.667 4 -18l10 -5h6c8 0 40 15 96 45z" />
    <glyph glyph-name="ecircumflex" unicode="&#xea;" horiz-adv-x="510" 
d="M510 379c-54 -65.333 -135 -123.333 -243 -174c32.667 -40 55 -66 67 -78c32.667 -32 61.667 -48 87 -48h10c15.333 0 35.666 8.33301 60.999 25v-46c0 -18.667 -15 -36.334 -45 -53.001c-26.667 -15.333 -49.667 -23 -69 -23c-11.333 0 -30.333 8 -57 24
c-21.333 12.667 -47.333 38 -78 76l-72 89l-45 -171h-101l112 416h99l-49 -184c57.333 34 112.333 76 165 126c28.667 26.667 52.334 52.334 71.001 77.001z" />
    <glyph glyph-name="edieresis" unicode="&#xeb;" horiz-adv-x="613" 
d="M593 81c0 -22 -7.33301 -37.668 -22 -47.001c-38 -24 -74.667 -39 -110 -45l-41 -7c-30.667 0 -54.5 10.667 -71.5 32s-25.5 47.666 -25.5 78.999c0 38.667 16.667 95.334 50 170.001h-4c-20 -48.667 -42 -96.334 -66 -143.001c-36.667 -72 -75.667 -114.667 -117 -128
c-21.333 -6.66699 -42.333 -10 -63 -10c-21.333 0 -36.666 1.66699 -45.999 5c-34.667 12.667 -52 37 -52 73c0 16.667 4.33301 33.667 13 51h98c-2.66699 -3.33301 -4 -10.333 -4 -21c0 -16 6.66699 -24 20 -24c3.33301 0 16 8 38 24
c36.667 26.667 105.334 135.334 206.001 326.001h106l-27 -92c0 -0.666992 -1.33301 -6.66699 -4 -18c-6.66699 -30 -18 -75.333 -34 -136c-8.66699 -27.333 -13 -49.666 -13 -66.999c0 -23.333 11 -40.333 33 -51h7c19.333 0 45.666 9.33301 78.999 28
c7.33301 5.33301 18.666 11 33.999 17c10.667 -2.66699 16 -8 16 -16z" />
    <glyph glyph-name="igrave" unicode="&#xec;" horiz-adv-x="910" 
d="M705 -18c-52.667 0 -79.0029 20.002 -79.0029 60.002c0 26 6 57.667 18 95l32 93c2.66699 6.66699 6.66699 17.334 12 32.001h-6c-8.66699 -29.333 -32 -69.666 -70 -120.999c-16.667 -22 -39 -49 -67 -81l-18 -20c-46 -38.667 -89 -58 -129 -58
c-26.667 0 -46.667 10.667 -60 32c-11.333 18 -17 41 -17 69c0 32.667 7 65 21 97l36 82h-5c-52 -116.667 -99.667 -192.5 -143 -227.5s-78.666 -52.5 -105.999 -52.5c-24.667 0 -47 7.66699 -67 23c-22 17.333 -33 37.666 -33 60.999c0 13.333 4 27.666 12 42.999h102
c-7.33301 -6 -11 -13 -11 -21c0 -11.333 5.66699 -17 17 -17c6.66699 0 18.334 5 35.001 15c38.667 22.667 85.334 85.667 140.001 189c23.333 43.333 44.666 90.333 63.999 141h116l-25 -96l-29 -105c-5.33301 -19.333 -12 -48 -20 -86l-5 -40l1 -5l7 -7
c4 -0.666992 8 -1.66699 12 -3c23.333 0 57 26.333 101 79c30 35.333 57.333 72.666 82 111.999c20 31.333 35.667 59.666 47 84.999c13.333 28.667 23 50.667 29 66h120l-72 -285c-8 -32 -12 -50 -12 -54s1.33301 -7 4 -9l12 -2c38.667 0 83.334 17.667 134.001 53v-13
c0 -12.667 -1 -22 -3 -28c-12 -34.667 -45.667 -60.667 -101 -78c-38 -12 -63.333 -18 -76 -18z" />
    <glyph glyph-name="iacute" unicode="&#xed;" horiz-adv-x="557" 
d="M397 -18c-40.667 0 -65.667 16 -75 48c-1.33301 4.66699 -2 9.66699 -2 15c0 10.667 8.66699 51.667 26 123c-40.667 -17.333 -74.334 -26 -101.001 -26c-32 0 -58.667 6.33301 -80 19l-40 -161h-100l104 416h99l-40 -163c1.33301 -2.66699 3.33301 -5.66699 6 -9
c18.667 -10 38 -15 58 -15c72.667 0 115 24 127 72l29 115h100l-73 -289c-8 -32 -12 -50.667 -12 -56l-1 -2v-4c0 -1.33301 1.16699 -3.5 3.5 -6.5s4.5 -4.5 6.5 -4.5c10.667 0 22.334 3.33301 35.001 10l65 34v-40c0 -2 -1 -8.33301 -3 -19s-21 -23 -57 -37
c-33.333 -13.333 -58.333 -20 -75 -20z" />
    <glyph glyph-name="icircumflex" unicode="&#xee;" horiz-adv-x="580" 
d="M543 256c0 -66.667 -21.666 -122 -64.999 -166c-70.667 -72 -149.667 -108 -237 -108c-56 0 -106 19 -150 57c-36 30.667 -54 73.667 -54 129c0 70 33.167 132 99.5 186s143.166 81 230.499 81c52 0 94.333 -16.667 127 -50s49 -76.333 49 -129zM426.001 269
c0 28.667 -11.332 50.667 -33.999 66c-20 13.333 -45.333 20 -76 20c-38 0 -72.333 -19 -103 -57c-26.667 -32 -44.667 -69 -54 -111c-3.33301 -14.667 -5 -28 -5 -40c0 -27.333 9.16699 -48.5 27.5 -63.5s41.166 -22.5 68.499 -22.5c46 0 84.667 17.667 116 53
c34.667 39.333 54 78.333 58 117c1.33301 15.333 2 28 2 38z" />
    <glyph glyph-name="idieresis" unicode="&#xef;" horiz-adv-x="585" 
d="M560 53l-1.00098 -12.9961l-6 -12c-5.33301 -7.33301 -25.5 -16.833 -60.5 -28.5s-60.167 -17.5 -75.5 -17.5c-6.66699 0 -18 2.66699 -34 8c-10.667 3.33301 -21 11.666 -31 24.999c-8.66699 11.333 -13 31 -13 59c0 6 5 26 15 60l45 139c4 12.667 6 24.667 6 36
c0 9.33301 -1.5 15.666 -4.5 18.999s-8.16699 5 -15.5 5c-18.667 0 -44 -14.333 -76 -43c-83.333 -74.667 -140.666 -159.334 -171.999 -254.001c-1.33301 -8 -5 -19 -11 -33v-3h-101l99 416h100l-55 -219h4c16.667 39.333 41.5 78.333 74.5 117s67.5 69 103.5 91
c34 20 62 30 84 30s40.667 -7.66699 56 -23s23 -34 23 -56c0 -26.667 -11.667 -76.667 -35 -150l-23 -72c-6.66699 -20.667 -10 -34 -10 -40c0 -18.667 8.66699 -29.334 26 -32.001c28.667 5.33301 58 15.333 88 30v-39z" />
    <glyph glyph-name="eth" unicode="&#xf0;" horiz-adv-x="623" 
d="M598 271c0 -79.333 -39.666 -151.667 -118.999 -217c-58.667 -48.667 -130.334 -73 -215.001 -73c-39.333 0 -76 9 -110 27l-54 -221h-100l159 648h100l-40 -164l9 3c18.667 44.667 49.667 82.5 93 113.5s88.666 46.5 135.999 46.5c34.667 0 67.334 -14.333 98.001 -43
c28.667 -26.667 43 -66.667 43 -120zM481.001 265.999c0 20 -5 38.0029 -15 54.0029c-10.667 18.667 -25 29.667 -43 33c-6 0.666992 -12.667 1 -20 1c-31.333 0 -62 -16 -92 -48c-44.667 -46.667 -83 -104.334 -115 -173.001c-10.667 -22.667 -17.667 -40.334 -21 -53.001
c20 -10.667 50.333 -16 91 -16c43.333 0 83 14 119 42c64 49.333 96 102.666 96 159.999z" />
    <glyph glyph-name="ntilde" unicode="&#xf1;" horiz-adv-x="542" 
d="M518 303c0 -18 -3 -35.6689 -9 -53.002h-113c8.66699 18 13 36.333 13 55c0 33.333 -24.333 50 -73 50c-42 0 -82.833 -23.5 -122.5 -70.5s-59.5 -91.833 -59.5 -134.5c0 -28.667 9.33301 -50.167 28 -64.5s42.667 -21.5 72 -21.5c38 0 96.333 12.667 175 38
c26 8 48.333 17.333 67 28v-49c0 -15.333 -20.667 -32 -62 -50c-31.333 -14 -59.666 -23.667 -84.999 -29c-66.667 -13.333 -108 -20 -124 -20c-56.667 0 -98.667 12.667 -126 38c-41.333 36.667 -62 81.334 -62 134.001c0 6.66699 2.33301 21.667 7 45
c11.333 54.667 51.666 109 120.999 163c62.667 48.667 131.667 73 207 73c49.333 0 86 -13.167 110 -39.5s36 -57.166 36 -92.499z" />
    <glyph glyph-name="ograve" unicode="&#xf2;" horiz-adv-x="876" 
d="M851 99l-14.999 -65.0029c-2 -8.66699 -17 -18.667 -45 -30c-25.333 -10 -44.666 -15.667 -57.999 -17c-27.333 -3.33301 -43 -5 -47 -5l-4 1c-42 9.33301 -63 41.666 -63 96.999c0 6.66699 3.33301 21.667 10 45c5.33301 18 13 45.333 23 82c2 5.33301 5 14 9 26l16 47
c6.66699 19.333 10 35.333 10 48l-1 6l-5 4l-10 2c-16.667 0 -36 -10.667 -58 -32c-42 -39.333 -88.667 -94.666 -140 -165.999c-27.333 -37.333 -48 -84.666 -62 -141.999h-100l63 259c6 24.667 9 40.334 9 47.001c0 18 -5 27 -15 27c-24.667 0 -63 -35 -115 -105
c-38.667 -51.333 -68 -95.666 -88 -132.999c-17.333 -32.667 -31 -64.334 -41 -95.001h-99l100 416h101l-67 -221h7c44 113.333 115.667 190 215 230c17.333 6.66699 34 10 50 10c18.667 0 34.834 -6.33301 48.501 -19s20.5 -28.334 20.5 -47.001
c0 -54.667 -9.33301 -97.667 -28 -129h6l7 14c16.667 33.333 44.667 68 84 104s75.666 59.333 108.999 70c15.333 4.66699 30.666 7 45.999 7l6 -1c46 -8 69 -33.333 69 -76c0 -18 -5.33301 -44.333 -16 -79c-12.667 -36.667 -30 -92 -52 -166l-5 -33
c-0.666992 -5.33301 1 -9.16602 5 -11.499s8.66699 -4.16602 14 -5.49902c23.333 0 58.666 12 105.999 36z" />
    <glyph glyph-name="oacute" unicode="&#xf3;" horiz-adv-x="518" 
d="M518 416l-89.999 -324c-22 -78.667 -50 -148 -84 -208c-35.333 -62 -97.333 -93 -186 -93c-10 0 -30.667 0.333008 -62 1c-36 1.33301 -51 2 -45 2l25 72c31.333 -2.66699 49.666 -4 54.999 -4c32.667 0 65 9.66699 97 29c24.667 15.333 44.667 37.333 60 66
c8 15.333 19 43.333 33 84c10.667 32 27.667 80.333 51 145h-8c-17.333 -46.667 -49.333 -91.334 -96 -134.001c-51.333 -46.667 -99.666 -70 -144.999 -70l-19 3c-38.667 6 -63.334 26 -74.001 60c-3.33301 10 -5 22 -5 36c0 15.333 3 33.333 9 54l81 281h100l-83 -284
c-4 -14 -6 -26.667 -6 -38c0 -16 7 -27 21 -33h5c21.333 0 47 12 77 36c20.667 16.667 40.667 34.334 60 53.001c52 50 95 138.667 129 266h100z" />
    <glyph glyph-name="ocircumflex" unicode="&#xf4;" horiz-adv-x="903" 
d="M529 -18c-20.667 0 -45.334 7 -74.001 21l-62 -212h-99l91 320h-5c-11.333 -31.333 -34.333 -59 -69 -83c-30.667 -20.667 -64 -34.667 -100 -42c-13.333 -2.66699 -24 -4 -32 -4c-37.333 0 -70.333 13.333 -99 40s-43 58.667 -43 96c0 15.333 1.66699 33 5 53
c11.333 65.333 51.333 126.5 120 183.5s136 83.833 202 80.5c31.333 -1.33301 65 -14.333 101 -39l22 74h100l-29 -102c49.333 44.667 100.333 67 153 67c46 0 83.333 -15.333 112 -46s43 -63 43 -97c0 -12 -1.33301 -26.667 -4 -44c-8.66699 -53.333 -40 -106.333 -94 -159
c-52 -50 -105.333 -81.667 -160 -95c-33.333 -8 -59.666 -12 -78.999 -12zM749 284c0 16 -5.66602 29.333 -16.999 40s-25 16 -41 16c-62 0 -119.667 -43 -173 -129c-20.667 -32.667 -38.334 -80.667 -53.001 -144c18 -8.66699 38 -13 60 -13c40 0 80.667 17.667 122 53
c36.667 31.333 64.667 67.333 84 108c4 7.33301 8.33301 19 13 35c3.33301 22 5 33.333 5 34zM440.001 342l-26 8.99902c-10 4 -18.667 6 -26 6c-52.667 0 -103 -21.667 -151 -65c-41.333 -37.333 -66.333 -72.666 -75 -105.999c-5.33301 -20.667 -8 -38 -8 -52
c0 -16.667 5.16699 -31.167 15.5 -43.5s23.5 -18.5 39.5 -18.5c31.333 0 67.333 16.667 108 50c37.333 30.667 63 61.667 77 93c24 52.667 39.333 95 46 127z" />
    <glyph glyph-name="otilde" unicode="&#xf5;" horiz-adv-x="562" 
d="M537 382c-22 -28.667 -54.666 -64.666 -97.999 -107.999c-40 -40 -77.333 -73 -112 -99c26 -44 54 -74.333 84 -91c5.33301 -1.33301 11 -2.66602 17 -3.99902c24.667 0 56.667 23 96 69c0 -19.333 -2 -45.333 -6 -78c0 -0.666992 -1.83301 -4.83398 -5.5 -12.501
s-13.167 -18 -28.5 -31s-27.333 -21.5 -36 -25.5c-30 -13.333 -49.667 -20 -59 -20c-10.667 0 -27.834 6.33301 -51.501 19s-51.834 48 -84.501 106c-48.667 -41.333 -91 -74.333 -127 -99c-4 -2.66699 -20.333 -11.334 -49 -26.001l-52 76
c78.667 48 139.667 88.667 183 122c-9.33301 14.667 -22.666 41.667 -39.999 81c-15.333 36 -26.333 64.333 -33 85l-25 89h114c0 -56 19 -117.333 57 -184c27.333 17.333 61 46 101 86c36.667 37.333 65 70 85 98z" />
    <glyph glyph-name="odieresis" unicode="&#xf6;" horiz-adv-x="584" 
d="M305 -194l-11.998 0.99707l26 89c10.667 -5.33301 21.334 -8 32.001 -8c23.333 0 44.666 12.333 63.999 37c14.667 19.333 26 42.333 34 69c-20 -8 -36.667 -12 -50 -12c-18 0 -33.167 6.16699 -45.5 18.5s-18.5 27.5 -18.5 45.5c0 46 19 110.667 57 194h-10
c-6 -14 -16 -34.667 -30 -62c-23.333 -45.333 -57.333 -87.666 -102 -126.999c-52 -46 -99.333 -69 -142 -69c-18.667 0 -37.667 10 -57 30c-17.333 18 -26 40.333 -26 67c0 18 7.33301 49.667 22 95l79 242h100l-86 -263c-10 -30.667 -15 -53.667 -15 -69
s6.66699 -23 20 -23c21.333 0 48.666 14.667 81.999 44c21.333 19.333 42.333 41.333 63 66c68 83.333 114 165 138 245h99l-74 -279c-7.33301 -27.333 -11 -45.666 -11 -54.999c0 -10 4.33301 -17 13 -21h2l23 3c9.33301 1.33301 21.666 7.83301 36.999 19.5
s24.333 17.5 27 17.5c7.33301 0 12.333 -4.66699 15 -14v-5c0 -32.667 -9.33301 -73 -28 -121c-8 -19.333 -19.667 -40.666 -35 -63.999c-39.333 -60.667 -103 -91 -191 -91z" />
    <glyph glyph-name="divide" unicode="&#xf7;" horiz-adv-x="482" 
d="M457 51c0 -4.66699 -0.998047 -9.66797 -2.99805 -15.001c-8.66699 -12 -29.167 -24 -61.5 -36s-57.5 -18 -75.5 -18c-50.667 0 -76 25 -76 75c0 16 3 33.667 9 53c21.333 69.333 42.666 127 63.999 173h-7c-18.667 -40 -43.334 -75 -74.001 -105
c-37.333 -36.667 -74.333 -55 -111 -55c-28 0 -51.167 8.5 -69.5 25.5s-27.5 39.5 -27.5 67.5c0 18.667 2.33301 37 7 55l38 145h100l-41 -155c-2.66699 -10 -4 -20 -4 -30c0 -18.667 7 -28 21 -28c15.333 0 34.333 8.66699 57 26c46.667 35.333 90 93.333 130 174h99
l-80 -269l-9 -26c-1.33301 -9.33301 -3 -18.666 -5 -27.999l2 -13l9 -6l5 -1c18.667 4 53 18 103 42v-51z" />
    <glyph glyph-name="oslash" unicode="&#xf8;" horiz-adv-x="820" 
d="M795 103c-1.33301 -15.333 -5.99609 -35.667 -13.9961 -61c-8.66699 -14.667 -32 -28.667 -70 -42c-33.333 -12 -59.333 -18 -78 -18s-34.334 5.66699 -47.001 17s-19 26.333 -19 45c0 45.333 18.333 108 55 188h-6c-6.66699 -14.667 -17.334 -36.334 -32.001 -65.001
c-40.667 -64.667 -85.334 -116.334 -134.001 -155.001c-25.333 -20 -51.333 -30 -78 -30c-49.333 0 -74 32 -74 96c0 39.333 15.333 88.333 46 147l-4 2c-32 -73.333 -70.333 -134.666 -115 -183.999c-36.667 -40.667 -78.334 -61 -125.001 -61
c-24.667 0 -43.667 9.66699 -57 29c-12 16.667 -18 37.667 -18 63c0 20 5.33301 48 16 84l76 258h100l-77 -262c-10 -34 -15 -59.667 -15 -77l3 -11c3.33301 -1.33301 7 -2.66602 11 -3.99902c10 0 19.333 4 28 12s20.667 19.667 36 35
c38 39.333 79.667 101.666 125 186.999c24 44.667 43.333 84.667 58 120h99l-82 -277c-6.66699 -22.667 -10 -41.667 -10 -57c0 -4 1.33301 -9.33301 4 -16l10 -4c17.333 0 46 21.667 86 65c54 60 104.333 141.333 151 244l18 45h99l-73 -277
c-8 -30.667 -12 -53.334 -12 -68.001l-1 -2v-3c0 -2.66699 0.666992 -5.66699 2 -9c4 -3.33301 6.66699 -4.66602 8 -3.99902c31.333 8.66699 68 25.334 110 50.001z" />
    <glyph glyph-name="ugrave" unicode="&#xf9;" horiz-adv-x="818" 
d="M539 -194l-11.9971 1l26 89c10.667 -5.33301 21.334 -8 32.001 -8c23.333 0 44.666 12.333 63.999 37c14.667 19.333 26 42.333 34 69c-14.667 -8 -31.334 -12 -50.001 -12c-19.333 0 -35.166 5.66699 -47.499 17s-18.5 26.333 -18.5 45c0 12.667 2 26.5 6 41.5l19 68.5
l29 78h-5c-6.66699 -14.667 -17.334 -36.334 -32.001 -65.001c-40.667 -64.667 -85.334 -116.334 -134.001 -155.001c-25.333 -20 -51.333 -30 -78 -30c-49.333 0 -74 32 -74 96c0 39.333 15.333 88.333 46 147l-4 2c-32 -73.333 -70.333 -134.666 -115 -183.999
c-36.667 -40.667 -78.334 -61 -125.001 -61c-24.667 0 -43.667 9.66699 -57 29c-12 16.667 -18 37.667 -18 63c0 20 5.33301 48 16 84l76 258h100l-77 -262c-10 -34 -15 -59.667 -15 -77l3 -11c3.33301 -1.33301 7 -2.66602 11 -3.99902c10 0 19.333 4 28 12
s20.667 19.667 36 35c38 39.333 79.667 101.666 125 186.999c24 44.667 43.333 84.667 58 120h99l-82 -277c-6.66699 -22.667 -10 -41.667 -10 -57c0 -4 1.33301 -9.33301 4 -16l10 -4c17.333 0 46 21.667 86 65c54 60 104.333 141.333 151 244l18 45h99l-73 -277
c-8 -30.667 -12 -46.667 -12 -48c0 -21.333 5 -32 15 -32c26 0 50.667 11.667 74 35c2.66699 2.66699 5.5 4.5 8.5 5.5l4.5 1.5c7.33301 0 12.333 -4.66699 15 -14v-5c0 -32.667 -9.33301 -73 -28 -121c-8 -19.333 -19.667 -40.666 -35 -63.999
c-39.333 -60.667 -103 -91 -191 -91z" />
    <glyph glyph-name="uacute" unicode="&#xfa;" horiz-adv-x="494" 
d="M494 159c0 -2 -4.66602 -17.334 -13.999 -46.001c-10 -30.667 -35.333 -60.667 -76 -90c-37.333 -27.333 -86.333 -41 -147 -41c-48.667 0 -87 11.667 -115 35c-30.667 24.667 -46 53 -46 85c0 23.333 8 54 24 92l54 129h-40c-30.667 0 -58.667 -3.66699 -84 -11
c-7.33301 -4 -19.333 -8 -36 -12l-10 2c-0.666992 3.33301 -2 8.33301 -4 15l16 43c4.66699 12 28.667 23.333 72 34c32 7.33301 61 12 87 14c30.667 2.66699 77 5.33398 139 8.00098l-82 -175h5c21.333 34.667 63 52 125 52c33.333 0 60.333 -8 81 -24
c23.333 -18 37.666 -35.5 42.999 -52.5s8 -36.167 8 -57.5zM377.001 152.999c0 40 -20.667 59.999 -62 59.999c-26 0 -48 -7 -66 -21c-21.333 -16.667 -35.333 -32.667 -42 -48c-10.667 -24.667 -16 -42 -16 -52c0 -20.667 17.667 -31 53 -31c28 0 53.333 7 76 21
c38 22.667 57 46.334 57 71.001z" />
    <glyph glyph-name="ucircumflex" unicode="&#xfb;" horiz-adv-x="699" 
d="M539 -18c-40.667 0 -65.667 16.001 -75 48.001c-1.33301 4.66699 -2 9.66699 -2 15c0 4.66699 1.33301 14.167 4 28.5s4 22.166 4 23.499l2 3c0 1.33301 1.66699 8.66602 5 21.999l73 294h100l-73 -289c-8 -32 -12 -50.667 -12 -56l-1 -2v-4
c0 -1.33301 1.16699 -3.5 3.5 -6.5s4.5 -4.5 6.5 -4.5c10.667 0 22.334 3.33301 35.001 10l65 34v-40c0 -17.333 -8.66699 -30.666 -26 -39.999c-6.66699 -4 -16.334 -9 -29.001 -15c-35.333 -14 -62 -21 -80 -21zM417 169.001c0 -35.333 -13.3311 -68.833 -39.998 -100.5
s-56.834 -54 -90.501 -67s-72.834 -19.5 -117.501 -19.5c-42 0 -73 7.33301 -93 22c-34 24.667 -51 57.334 -51 98.001c0 17.333 7.33301 46.333 22 87l82 227h100l-73 -188h8c12 19.333 32.667 34.666 62 45.999c25.333 9.33301 51 14 77 14c32 0 59 -11.667 81 -35
s33 -51.333 33 -84zM300.002 167.001c0 12.667 -4.50195 22.999 -13.502 30.999s-19.833 12 -32.5 12c-26.667 0 -53.667 -9.66699 -81 -29s-45.666 -41.333 -54.999 -66l-4 -19c0 -11.333 6.33301 -20.666 19 -27.999c10.667 -5.33301 22.334 -8 35.001 -8
c29.333 0 55 7.66699 77 23c36.667 25.333 55 53.333 55 84z" />
    <glyph glyph-name="udieresis" unicode="&#xfc;" horiz-adv-x="454" 
d="M417 154c0 1.33301 -1.66699 -6.33105 -5 -22.998c-1.33301 -6.66699 -5.33301 -16.334 -12 -29.001c-42.667 -80 -114 -120 -214 -120c-45.333 0 -79 6.33301 -101 19c-40 23.333 -60 57 -60 101c0 17.333 7.33301 46.333 22 87l82 227h100l-73 -188h8
c12 19.333 32.667 34.666 62 45.999c25.333 9.33301 51 14 77 14c32 0 59 -11.667 81 -35s33 -51.333 33 -84v-15zM300 167.003c0 28 -15.332 42 -45.999 42c-26 0 -50.333 -7.33301 -73 -22c-44.667 -28.667 -67 -59 -67 -91c0 -10.667 6.66699 -19.667 20 -27
s25.666 -11 36.999 -11c22.667 0 46.667 7.83301 72 23.5s42.333 33.5 51 53.5c4 9.33301 6 20 6 32z" />
    <glyph glyph-name="yacute" unicode="&#xfd;" horiz-adv-x="545" 
d="M508 242c0 -75.333 -29.167 -137.498 -87.5 -186.498s-123.5 -73.5 -195.5 -73.5c-6.66699 0 -24.334 1.66699 -53.001 5c-17.333 2 -40.666 8.66699 -69.999 20c-32 12 -52.667 23 -62 33l-11 13c-2.66699 5.33301 -4 12.333 -4 21c0.666992 2.66699 1.66699 6 3 10
c2 7.33301 4.33301 13.166 7 17.499s6.66699 7.16602 12 8.49902c20 -4 37 -9.66699 51 -17c10 -5.33301 21.333 -10 34 -14c38 -12 69.333 -18 94 -18c68.667 0 117.334 29.333 146.001 88c-22 3.33301 -40.667 5 -56 5h-55c-32.667 0 -52.667 -1 -60 -3
c-10 -2.66699 -17 -4 -21 -4c-6 0 -10.167 1.83301 -12.5 5.5s-4.16602 7.83398 -5.49902 12.501c0 30 18.333 50.667 55 62c42.667 12 92.667 17 150 15l24 -1v4c0 34 -10 60.833 -30 80.5s-47 29.5 -81 29.5c-36.667 0 -62.334 -7.33301 -77.001 -22
c-18.667 -18.667 -27.334 -37 -26.001 -55h-113c0 39.333 19 73.666 57 102.999c33.333 25.333 71.333 41 114 47c34.667 4.66699 62 7 82 7c46 0 89.333 -16.333 130 -49s61 -80.667 61 -144z" />
    <glyph glyph-name="thorn" unicode="&#xfe;" horiz-adv-x="804" 
d="M767 252c0 -66 -21.668 -120.998 -65.001 -164.998c-69.333 -70 -147.333 -105 -234 -105c-54.667 0 -104.667 19.333 -150 58c-34.667 29.333 -52 69.666 -52 120.999c-17.333 -10.667 -38 -16 -62 -16l-16 3c-4.66699 4 -12 8.66699 -22 14l-41 -162h-100l102 416h99
l-31 -126c-5.33301 -20 -7.66602 -32.667 -6.99902 -38c10 -14.667 22.333 -22 37 -22c18 0 38 7.33301 60 22c28 54 68.5 98 121.5 132s109.5 51 169.5 51c57.333 0 103.5 -16.333 138.5 -49s52.5 -77.334 52.5 -134.001zM650.999 258.002c0 30 -9.49902 53.667 -28.499 71
s-43.833 26 -74.5 26c-34 0 -63 -12 -87 -36c-53.333 -52.667 -80 -113 -80 -181c0 -22 9 -40.333 27 -55s38 -22 60 -22c51.333 0 94.666 19.833 129.999 59.5s53 85.5 53 137.5z" />
    <glyph glyph-name="ydieresis" unicode="&#xff;" horiz-adv-x="575" 
d="M426 -18c-27.333 0 -50.832 9.00098 -70.499 27.001s-29.5 40.333 -29.5 67c0 19.333 8.33301 42 25 68h-6c-16 -32.667 -38.667 -63 -68 -91c-32.667 -30.667 -65 -50 -97 -58c-8 -2 -19.833 -4.66699 -35.5 -8s-28.167 -5 -37.5 -5c-28.667 0 -53.667 8.16699 -75 24.5
s-32 38.5 -32 66.5v12l3 13h99c0 -24.667 12.667 -37 38 -37h1l40 6c16 2.66699 45.667 21.667 89 57c-18 -12.667 -41.667 -19 -71 -19c-28.667 0 -54.167 12.833 -76.5 38.5s-33.5 53.167 -33.5 82.5c0 56 32 108.667 96 158c44 34 96.333 51 157 51
c30.667 0 55 -9 73 -27c2.66699 -2.66699 6.66699 -6.33398 12 -11.001l11 19h89c-26.667 -75.333 -47.334 -139.333 -62.001 -192c-3.33301 -8.66699 -8 -21.667 -14 -39c-11.333 -38 -19 -74 -23 -108c-1.33301 -10.667 7.33398 -16 26.001 -16
c15.333 0 32.166 6.83301 50.499 20.5s32.166 21.5 41.499 23.5c2.66699 -3.33301 4 -12.333 4 -27s-1 -24.334 -3 -29.001c-6 -14 -20 -27.333 -42 -40c-19.333 -11.333 -37.666 -18.666 -54.999 -21.999zM407.001 355.001c-64 0 -110.666 -8.66504 -139.999 -25.998
c-40 -23.333 -60 -53.333 -60 -90c0 -14.667 5.33301 -27.334 16 -38.001s23 -16 37 -16c30.667 0 55 9 73 27c21.333 20 35.666 39 42.999 57c4 13.333 10.667 31.666 20 54.999c0 0.666992 3.66699 11 11 31z" />
    <glyph glyph-name="Edot" unicode="&#x116;" horiz-adv-x="768" 
d="M768 860l-2.00098 -11.001c-0.666992 -3.33301 -2 -6.66602 -4 -9.99902c-19.333 -29.333 -52.666 -44 -99.999 -44c-34 0 -56.333 10.333 -67 31l-1 7c0 24.667 11 43.667 33 57c18 10.667 40 16 66 16c46.667 0 71.667 -15.333 75 -46zM486.999 859.999
l-2.00098 -11.001c-0.666992 -3.33301 -2 -6.66602 -4 -9.99902c-19.333 -29.333 -52.666 -44 -99.999 -44c-34 0 -56.333 10.333 -67 31l-1 7c0 24.667 11 43.667 33 57c18 10.667 40 16 66 16c46.667 0 71.667 -15.333 75 -46zM734.998 700.998
c0 -6 -3.17578 -17.1689 -9.50879 -33.502s-11.166 -24.5 -14.499 -24.5c-43.333 -0.666992 -108.333 -4.66699 -195 -12c-61.333 -8.66699 -114.666 -24 -159.999 -46c-78 -37.333 -117 -78 -117 -122c0 -28.667 15 -49.667 45 -63c22.667 -10 50.334 -15 83.001 -15
c3.33301 0 8.33301 -0.333008 15 -1s11.667 -1 15 -1h77c3.33301 0 9 0.666992 17 2c60.667 10 93.334 15 98.001 15c14.667 0 22 -5.66699 22 -17l-2 -10c-3.33301 -11.333 -6.33301 -23 -9 -35c-5.33301 -16 -11.666 -25 -18.999 -27
c-11.333 -3.33301 -25.666 -5 -42.999 -5h-44c-24 -1.33301 -50.333 -3.66602 -79 -6.99902c-79.333 -10 -139.333 -25 -180 -45c-58 -30 -87 -62.333 -87 -97l2 -17c2 -4 5.33301 -10.333 10 -19c6 -11.333 20.333 -22.333 43 -33c20 -10 60.333 -15 121 -15
c-1.33301 0 13.334 1.66699 44.001 5c62.667 6.66699 121.334 19 176.001 37c17.333 5.33301 44.333 16.333 81 33c4.66699 2.66699 12 6 22 10l13 2c5.33301 -3.33301 8 -10 8 -20c0 -3.33301 -1.33301 -8.83301 -4 -16.5s-5.66699 -14.5 -9 -20.5
c-10 -20 -35.667 -38.667 -77 -56s-77.666 -29.666 -108.999 -36.999c-18.667 -4.66699 -58.334 -12.334 -119.001 -23.001c-23.333 -4 -48.333 -6 -75 -6c-66 0 -117.333 10.667 -154 32s-62.667 45.666 -78 72.999c-4 6.66699 -8.66699 17 -14 31l-4 29
c-2 16 2.33301 36 13 60c2.66699 6.66699 8.66699 16.334 18 29.001c36 49.333 100 81 192 95v2c-2 0 -5.66699 1 -11 3c-75.333 26.667 -113 70.334 -113 131.001c0 58.667 37.667 114 113 166c86.667 59.333 225.334 89 416.001 89c54.667 0 82 -6.66699 82 -20z" />
    <glyph glyph-name="edot" unicode="&#x117;" horiz-adv-x="611" 
d="M586 561c0 -24 -9.33105 -43.667 -27.998 -59s-40 -23 -64 -23c-16 0 -28.667 3.66699 -38 11c-6.66699 5.33301 -14.334 16 -23.001 32v6c-0.666992 2.66699 -1 4.66699 -1 6c0 22.667 9.66699 42 29 58s40.666 24 63.999 24c16.667 0 31 -5 43 -15s18 -23.333 18 -40z
M321.002 558c0 -24 -9.33203 -43.667 -27.999 -59s-40 -23 -64 -23c-16.667 0 -31.334 5.33301 -44.001 16c-3.33301 2.66699 -9 11.667 -17 27v6c-0.666992 2.66699 -1 4.66699 -1 6c0 24 9.5 43.667 28.5 59s40.5 23 64.5 23c15.333 0 29.333 -5.33301 42 -16
s19 -23.667 19 -39zM522.003 325c0 -57.333 -41.334 -105 -124.001 -143c-56 -26.667 -141.333 -40 -256 -40c0 -23.333 12 -43.333 36 -60c20.667 -14 56 -21 106 -21c-2 0 9 1.66699 33 5c8 1.33301 22.333 5 43 11c53.333 16 101 39.667 143 71v-53
c0 -21.333 -21.333 -42.333 -64 -63c-32.667 -15.333 -64 -26 -94 -32c-63.333 -12 -105 -18 -125 -18c-55.333 0 -101.666 16.5 -138.999 49.5s-56 76.5 -56 130.5c0 66 22.333 119.333 67 160c38 34 82.167 61.333 132.5 82s100.5 31 150.5 31c48 0 83.667 -10 107 -30
c26.667 -23.333 40 -50 40 -80zM405.002 321c0 6.66699 -5.66699 14 -17 22s-27.333 12 -48 12c-44 0 -84 -14 -120 -42s-62 -63.333 -78 -106h10c72 0 126.333 8 163 24c41.333 17.333 67 34.666 77 51.999c8.66699 14.667 13 27.334 13 38.001z" />
    <glyph glyph-name="OE" unicode="&#x152;" horiz-adv-x="1279" 
d="M1254 184c0 -74.667 -37.999 -142.667 -113.999 -204c-83.333 -66.667 -199 -100 -347 -100c-57.333 0 -89.666 5 -96.999 15l-4 7c0 2 1.66699 9.33301 5 22c3.33301 10 5.16602 16.167 5.49902 18.5s1.83301 5.5 4.5 9.5c3.33301 1.33301 9 2 17 2
c-2 0 6.66699 -1 26 -3s47.333 -3 84 -3c63.333 0 118.666 14 165.999 42c90.667 54.667 136 114 136 178c0 44 -22 79.333 -66 106c-27.333 16 -77 24 -149 24c-18.667 0 -47 -5.33301 -85 -16l-64 -282h-115l155 700h115l-71 -329c44 4.66699 92.667 7 146 7
c76 0 140 -18.333 192 -55c40 -28 60 -74.333 60 -139zM697.001 288c-1.33301 -5.33301 -1.99707 -8.66797 -1.99707 -10.001c-1.33301 -12 -7.33301 -28 -18 -48c-10.667 -10 -73 -23.667 -187 -41l-41 -189h-115l38 173c-3.33301 0 -8.33301 -0.5 -15 -1.5
s-11.334 -1.5 -14.001 -1.5c-14.667 -0.666992 -36 -1 -64 -1c-96 0 -171.667 24 -227 72c-34.667 28.667 -52 73.667 -52 135c0 88 42.333 169 127 243c61.333 54 136.666 81 225.999 81c67.333 0 115 -15 143 -45c22 -23.333 36.667 -47.666 44 -72.999
c6.66699 -21.333 10 -49.333 10 -84c0 -16.667 -3 -39.667 -9 -69l-33 -160h6c2 0 4.83301 0.333008 8.5 1s6.16699 1 7.5 1l62 5c23.333 3.33301 43.666 8.33301 60.999 15c3.33301 1.33301 8 3.66602 14 6.99902c2 0 5 0.666992 9 2l11 1
c4.66699 -1.33301 8 -5.66602 10 -12.999zM438.004 529.998c0 26 -10.499 47.333 -31.499 64s-44.833 25 -71.5 25c-16.667 0 -38.334 -4.33301 -65.001 -13c-34 -11.333 -68 -36.333 -102 -75c-34.667 -40.667 -51.334 -84.334 -50.001 -131.001c0 -10.667 1 -25.667 3 -45
c6 -27.333 27 -52 63 -74c30 -18.667 89.667 -28 179 -28c10.667 0 19.334 0.666992 26.001 2l38 177c7.33301 34.667 11 67.334 11 98.001z" />
    <glyph glyph-name="oe" unicode="&#x153;" horiz-adv-x="746" 
d="M709 169c0 -35.333 -13.6689 -69.3311 -41.002 -101.998c-25.333 -30 -55.666 -52 -90.999 -66c-32 -12.667 -70.667 -19 -116 -19c-42 0 -73 7.33301 -93 22c-34 24.667 -51 57.334 -51 98.001c0 11.333 4 31 12 59c-0.666992 -0.666992 -1.66699 -1.33398 -3 -2.00098
c-34 -11.333 -59.333 -17 -76 -17c-35.333 0 -63.666 6.33301 -84.999 19l-40 -161h-100l104 416h99l-40 -163c1.33301 -2.66699 3.33301 -5.66699 6 -9c18 -10 37.333 -15 58 -15c67.333 0 107.333 17.333 120 52l49 135h100l-73 -188h8c12 19.333 32.667 34.666 62 45.999
c25.333 9.33301 51 14 77 14c30 0 57.667 -12 83 -36c20.667 -20.667 31 -48.334 31 -83.001zM591.998 167.002c0 2.66699 -0.333008 6.33301 -1 11c-2 20.667 -17 31 -45 31c-26 0 -50.333 -7.33301 -73 -22c-44.667 -28.667 -67 -59 -67 -91
c0 -10.667 6.33301 -19.667 19 -27c10.667 -6 22 -9 34 -9c32 0 61.5 10 88.5 30s41.833 45.667 44.5 77z" />
    <glyph glyph-name="Scaron" unicode="&#x160;" horiz-adv-x="1070" 
d="M1045 184c0 -64.667 -28.3359 -123.332 -85.0029 -175.999c-48 -44.667 -106.667 -78.334 -176 -101.001c-55.333 -18 -125.333 -27 -210 -27c-5.33301 0 -13 0.333008 -23 1l-43 2c-21.333 2.66699 -32.666 9.33398 -33.999 20.001l1 2
c-0.666992 1.33301 0.833008 7.33301 4.5 18s5.16699 17 4.5 19l2 2l3 7c2 2 7.66699 3 17 3c-1.33301 0 7.83398 -1 27.501 -3s47.5 -3 83.5 -3c63.333 0 119.333 14 168 42c36.667 21.333 67.667 45.666 93 72.999c32.667 36 49 71 49 105c0 43.333 -18 76.666 -54 99.999
c-31.333 20.667 -70 31 -116 31c-60.667 0 -103 -5.66699 -127 -17l-73 -282h-115l144 569h-7l-44 -83v-1c-12.667 -20.667 -25 -43 -37 -67v-2l-36 -69c-58 -110.667 -100 -186 -126 -226c-56.667 -88.667 -113 -151.667 -169 -189
c-41.333 -26.667 -89.333 -43.667 -144 -51l-23 77c73.333 24.667 144 78.334 212 161.001c104 127.333 204.333 298 301 512l30 69h192l-82 -329c44 4.66699 92.667 7 146 7c62.667 0 119.334 -13.5 170.001 -40.5s76 -78.167 76 -153.5z" />
    <glyph glyph-name="scaron" unicode="&#x161;" horiz-adv-x="772" 
d="M735 176c0 -18.667 -6.66797 -40.667 -20.001 -66c-14 -27.333 -35 -51.666 -63 -72.999s-57 -36.333 -87 -45c-24.667 -6.66699 -53 -10 -85 -10c-37.333 0 -69 8.66699 -95 26c-30 20 -45 47.667 -45 83c0 44 18.667 106 56 186h-6
c-5.33301 -11.333 -12.333 -25 -21 -41v-1l-23 -50c-28 -59.333 -60 -109 -96 -149c-32.667 -36 -74.667 -54 -126 -54c-28 0 -51.5 9.83301 -70.5 29.5s-28.5 43.5 -28.5 71.5v9c0 11.333 2.33301 20.666 7 27.999h106c-2.66699 -10.667 -4 -18.667 -4 -24
c0 -6.66699 1 -12 3 -16c6 -4.66699 11.333 -7 16 -7c12 0 38.833 21.833 80.5 65.5s99.5 136.167 173.5 277.5h128c-12 -32 -24.667 -63 -38 -93c-0.666992 0 -14 -24.333 -40 -73c52 36 105.667 54 161 54c32.667 0 60.334 -13 83.001 -39s34 -55.667 34 -89zM622.999 168
c0 45.333 -18.333 68 -55 68s-72 -17.333 -106 -52c-17.333 -18 -26 -38.333 -26 -61c0 -16 6.83301 -29.167 20.5 -39.5s28.5 -15.5 44.5 -15.5c27.333 0 54.5 10.167 81.5 30.5s40.5 43.5 40.5 69.5z" />
    <glyph glyph-name="Ydieresis" unicode="&#x178;" 
 />
    <glyph glyph-name="florin" unicode="&#x192;" horiz-adv-x="424" 
d="M128 -18c-27.333 0 -51.332 8.49805 -71.999 25.498s-31 38.833 -31 65.5c0 29.333 11.667 56.666 35 81.999c14 14.667 38 34 72 58l89 62c26 18 39 35 39 51c0 16.667 -13 25 -39 25s-57.833 -16 -95.5 -48s-57.5 -48 -59.5 -48c-0.666992 0 -2 0.333008 -4 1l-8 8
c-1.33301 6 -2.66602 12.333 -3.99902 19c0 21.333 4.66699 37.333 14 48c2.66699 2.66699 16.667 12.334 42 29.001h1c79.333 50 134.333 75 165 75c28 0 52 -9.5 72 -28.5s30 -42.5 30 -70.5c0 -29.333 -15 -58.666 -45 -87.999c-16 -15.333 -43.333 -36 -82 -62
c-8.66699 -5.33301 -21.334 -13.666 -38.001 -24.999c-22.667 -15.333 -37.334 -26.333 -44.001 -33c-15.333 -14.667 -23 -30.667 -23 -48c0 -4 1.33301 -8.33301 4 -13c14 -12.667 27 -19 39 -19c39.333 0 90 14.333 152 43c12 8 30.667 17 56 27l5 -5
c0.666992 -5.33301 1 -12 1 -20v-9c0 -22 -19.667 -42.333 -59 -61c-30 -14.667 -59.667 -24 -89 -28c-62.667 -8.66699 -103.667 -13 -123 -13z" />
    <glyph glyph-name="circumflex" unicode="&#x2c6;" horiz-adv-x="1017" 
d="M1036 555c0 -22 -7.66602 -40.166 -22.999 -54.499s-34 -21.5 -56 -21.5c-14 0 -25.667 4.16699 -35 12.5s-14 19.166 -14 32.499c0 22 6.66699 41.833 20 59.5s30.666 26.5 51.999 26.5c16 0 29.333 -5.16699 40 -15.5s16 -23.5 16 -39.5zM1019 67.001
c0.666992 -20.667 -20.333 -38.668 -63 -54.001c-34 -12 -62 -18 -84 -18c-46.667 0 -70 26 -70 78c0 14 5.33301 41 16 81l73 275h100l-75 -279c-7.33301 -27.333 -11 -46.666 -11 -57.999c0 -12.667 5.66699 -19 17 -19c8 0 40 14.667 96 44zM817.001 446
c0 -147.333 -84.668 -271.334 -254.001 -372.001c-104 -62 -243.333 -93 -418 -93c-86.667 0 -135 2.33301 -145 7c7.33301 22.667 17.666 48 30.999 76c5.33301 4 17 6 35 6c2 0 5.33301 -0.333008 10 -1s8.33398 -1 11.001 -1c12 0 22.667 1 32 3l142 523l115 12
l-139 -523h26c-2.66699 0 18.333 4 63 12c90.667 16 176 55 256 117c78 60 117 132.333 117 217c0 56.667 -23.333 104.834 -70 144.501s-113 59.5 -199 59.5c-125.333 0 -235.666 -14.667 -330.999 -44c-10.667 -4 -28 -8.66699 -52 -14h-20h-4l-5 2
c-0.666992 2.66699 -1 6 -1 10c0 2.66699 4.33301 16 13 40c10.667 32.667 101 61 271 85c12 1.33301 30.667 2.66602 56 3.99902c64 3.33301 101 5 111 5c85.333 0 155 -17.333 209 -52c93.333 -59.333 140 -133.666 140 -222.999z" />
    <glyph glyph-name="ch152" unicode="&#x2dc;" 
 />
    <glyph glyph-name="mu" unicode="&#x3bc;" horiz-adv-x="523" 
d="M498 77c-4 -34.667 -12.335 -58.6641 -25.002 -71.9971c-14 -15.333 -37.667 -23 -71 -23c-46.667 0 -78.334 20 -95.001 60c-37.333 -40 -80.666 -60 -129.999 -60c-52.667 0 -93.334 21.333 -122.001 64c-3.33301 -10.667 -10.333 -45.334 -21 -104.001
c-8 -41.333 -13.333 -77 -16 -107c-2.66699 -24.667 -14 -37.334 -34 -38.001c-17.333 -0.666992 -26.666 -1 -27.999 -1c-28 0 -42 15.667 -42 47c0 30.667 6.33301 68.334 19 113.001c1.33301 6.66699 3.33301 16 6 28c10 35.333 23.333 88.666 40 159.999l1 1
c0.666992 6 5.33398 26.333 14.001 61c8 31.333 12 48 12 50s4.83301 19.5 14.5 52.5s19.167 68.833 28.5 107.5h100l-51 -201c-4 -16 -6 -32 -6 -48c0 -56 26.667 -84 80 -84c44.667 0 79 16.667 103 50c16.667 23.333 31.334 60.666 44.001 111.999l41 171h99l-62 -249
c-6 -24 -9 -43.333 -9 -58c0 -32 15.333 -48 46 -48c18.667 0 40 5.33301 64 16z" />
    <glyph glyph-name="afii10023" unicode="&#x401;" horiz-adv-x="768" 
d="M768 860l-2.00098 -11.001c-0.666992 -3.33301 -2 -6.66602 -4 -9.99902c-19.333 -29.333 -52.666 -44 -99.999 -44c-34 0 -56.333 10.333 -67 31l-1 7c0 24.667 11 43.667 33 57c18 10.667 40 16 66 16c46.667 0 71.667 -15.333 75 -46zM486.999 859.999
l-2.00098 -11.001c-0.666992 -3.33301 -2 -6.66602 -4 -9.99902c-19.333 -29.333 -52.666 -44 -99.999 -44c-34 0 -56.333 10.333 -67 31l-1 7c0 24.667 11 43.667 33 57c18 10.667 40 16 66 16c46.667 0 71.667 -15.333 75 -46zM734.998 700.998
c0 -6 -3.1748 -17.1689 -9.50781 -33.502s-11.166 -24.5 -14.499 -24.5c-43.333 -0.666992 -108.333 -4.66699 -195 -12c-61.333 -8.66699 -114.666 -24 -159.999 -46c-78 -37.333 -117 -78 -117 -122c0 -28.667 15 -49.667 45 -63c22.667 -10 50.334 -15 83.001 -15
c3.33301 0 8.33301 -0.333008 15 -1s11.667 -1 15 -1h77c3.33301 0 9 0.666992 17 2c60.667 10 93.334 15 98.001 15c14.667 0 22 -5.66699 22 -17l-2 -10c-3.33301 -11.333 -6.33301 -23 -9 -35c-5.33301 -16 -11.666 -25 -18.999 -27c-11.333 -3.33301 -26 -5 -44 -5h-43
c-24 -1.33301 -50.333 -3.66602 -79 -6.99902c-79.333 -10 -139.333 -25 -180 -45c-58 -30 -87 -62.333 -87 -97l2 -17c2 -4 5.33301 -10.333 10 -19c6 -11.333 20.333 -22.333 43 -33c20 -10 60.333 -15 121 -15c-1.33301 0 13.334 1.66699 44.001 5
c62.667 6.66699 121.334 19 176.001 37c17.333 5.33301 44.333 16.333 81 33c4.66699 2.66699 12 6 22 10l13 2c5.33301 -3.33301 8 -10 8 -20c0 -3.33301 -1.33301 -8.83301 -4 -16.5s-5.66699 -14.5 -9 -20.5c-10 -20 -35.667 -38.667 -77 -56
s-77.666 -29.666 -108.999 -36.999c-18.667 -4.66699 -58.334 -12.334 -119.001 -23.001c-23.333 -4 -48.333 -6 -75 -6c-66 0 -117.333 10.667 -154 32s-62.667 45.666 -78 72.999c-4 6.66699 -8.66699 17 -14 31l-4 29c-2 16 2.33301 36 13 60
c2.66699 6.66699 8.66699 16.334 18 29.001c36 49.333 100 81 192 95v2c-2 0 -5.66699 1 -11 3c-75.333 26.667 -113 70.334 -113 131.001c0 58.667 37.667 114 113 166c86.667 59.333 225.334 89 416.001 89c54.667 0 82 -6.66699 82 -20z" />
    <glyph glyph-name="afii10051" unicode="&#x402;" horiz-adv-x="1000" 
 />
    <glyph glyph-name="afii10017" unicode="&#x410;" horiz-adv-x="1003" 
d="M1003 68c0 -23.333 -18.001 -44.3311 -54.001 -62.998c-31.333 -16 -60 -24 -86 -24c-49.333 0 -80.166 18.5 -92.499 55.5s-18.5 85.167 -18.5 144.5c0 28.667 6.33301 81 19 157l9 53c1.33301 4 3 10.333 5 19l21 94c4 19.333 8.66699 39.666 14 60.999
c0 0.666992 2.33301 10 7 28h-6c-64 -95.333 -144.667 -201.666 -242 -318.999c110.667 0 166.667 -0.666992 168 -2l2 -10c0 -30.667 -9.16699 -49 -27.5 -55s-41.5 -9 -69.5 -9h-136c-122.667 -151.333 -225.167 -252 -307.5 -302s-151.833 -75 -208.5 -75v62
c0 11.333 1 19 3 23c6.66699 3.33301 13 5.66602 19 6.99902c64 11.333 125.667 42.666 185 93.999c70.667 60.667 133.334 124 188.001 190c-138.667 -2 -213 -3 -223 -3c-24 0 -36 6.33301 -36 19c0 40.667 18.667 61 56 61h265c69.333 78 159.666 187.333 270.999 328
l57 75c11.333 13.333 25.333 20.666 42 21.999c4 0.666992 37.667 1 101 1c14.667 0 22 -8.33301 22 -25c0 -3.33301 -4.33301 -22.666 -13 -57.999l-29 -119c-28 -131.333 -42 -246 -42 -344c0 -52 11 -78 33 -78c14 0 32.167 5.33301 54.5 16s38.833 21 49.5 31v-55z" />
    <glyph glyph-name="afii10018" unicode="&#x411;" horiz-adv-x="800" 
d="M800 276c0 -86 -56.002 -162.998 -168.002 -230.998c-69.333 -42.667 -159.333 -64 -270 -64c-13.333 0 -28.333 2.33301 -45 7c-22 5.33301 -33 12.666 -33 21.999c0 11.333 3.66699 21.166 11 29.499s16.666 12.5 27.999 12.5c6 0 15.167 -0.333008 27.5 -1
s21.5 -1 27.5 -1c69.333 0 128 15.333 176 46c34 21.333 62.333 45.666 85 72.999c28.667 34.667 43 68.334 43 101.001c0 29.333 -11 53.166 -33 71.499s-48 27.5 -78 27.5c-36 0 -80 -10.667 -132 -32l-32 -15c-28 -136 -68.167 -226.833 -120.5 -272.5
s-106.5 -68.5 -162.5 -68.5c-26 0 -50 2.33301 -72 7c-34.667 8 -52 20.667 -52 38v10c0 19.333 6.33301 29 19 29c18.667 0 32.334 -2 41.001 -6c20 -1.33301 31.333 -2 34 -2c53.333 0 96 23.667 128 71c21.333 30.667 41 78.334 59 143.001l96 349l-63 -6
c-7.33301 0 -18.666 -1 -33.999 -3c-20.667 -4 -58.667 -18 -114 -42c-48 -21.333 -85.333 -32 -112 -32c-6 0 -10.333 1.5 -13 4.5s-4 7.5 -4 13.5c0 26.667 8.66699 45.667 26 57c20.667 13.333 62 30 124 50c119.333 38.667 248.333 58 387 58c62 0 101 -2 117 -6
c12 -3.33301 18 -11.666 18 -24.999c0 -0.666992 -2.66699 -14 -8 -40c-2 -10 -5.16699 -15.833 -9.5 -17.5s-13.166 -2.5 -26.499 -2.5l-32 2c-10.667 0.666992 -35.334 1 -74.001 1c-33.333 0 -56.666 -1.33301 -69.999 -4l-61 -222c64 23.333 119 35 165 35
c58 0 101.667 -10.333 131 -31c50.667 -36.667 76 -81.334 76 -134.001z" />
    <glyph glyph-name="afii10019" unicode="&#x412;" horiz-adv-x="658" 
d="M658 538c0 -46 -22.3369 -90.666 -67.0039 -133.999c-41.333 -40 -95.666 -66.667 -162.999 -80v-8c24.667 4 44.334 6 59.001 6c43.333 0 82 -17.667 116 -53s51 -80 51 -134c0 -74 -31 -134 -93 -180c-92.667 -67.333 -198 -109.333 -316 -126
c-37.333 -5.33301 -68.333 -8 -93 -8c-70.667 0 -106 12.333 -106 37c0 2.66699 2.33301 15 7 37c0.666992 3.33301 4.33398 7 11.001 11l22 4c9.33301 0 23.5 -1.16699 42.5 -3.5s33.167 -3.5 42.5 -3.5c14.667 0 39 3 73 9c86 16 162 49.667 228 101
c42.667 33.333 64 75 64 125c0 34 -10.667 59.667 -32 77c-38 31.333 -87.667 47 -149 47c-13.333 0 -36.333 -1.66699 -69 -5l-49 -5c-10 -2 -22.333 -5 -37 -9l-62 -243h-115l146 583h112l-61 -248c67.333 0 133 19 197 57c60 36 96.333 69.667 109 101
c8.66699 22 13.334 39.667 14.001 53c-1.33301 9.33301 -3 16.666 -5 21.999c-3.33301 11.333 -16 23.666 -38 36.999c-28 16.667 -74.667 25 -140 25c-2.66699 0 -6.83398 -0.333008 -12.501 -1s-9.83398 -1 -12.501 -1c-12.667 0 -32 -0.666992 -58 -2
c-58 -7.33301 -114.667 -17.666 -170 -30.999c-0.666992 0 -15 -4.33301 -43 -13c-19.333 -6 -33.333 -9 -42 -9c-12.667 0 -19 10.333 -19 31c0 0.666992 0.666992 3 2 7c4.66699 16 7.66699 25.333 9 28c4.66699 10 11.334 17 20.001 21l39 16c9.33301 4 34.333 10 75 18
c88 17.333 180.667 26 278 26c68.667 0 121.334 -12.667 158.001 -38c51.333 -36.667 77 -84.667 77 -144z" />
    <glyph glyph-name="afii10020" unicode="&#x413;" horiz-adv-x="814" 
d="M813 692c0 -4.66699 -1.33105 -12.667 -3.99805 -24s-4 -19.666 -4 -24.999l-5.5 -11c-2.33301 -4.66699 -16.833 -7 -43.5 -7c-4 0 -9.83301 0.5 -17.5 1.5s-13.5 1.5 -17.5 1.5h-27c-44.667 0 -76.334 -0.333008 -95.001 -1l-28 -3
c-30.667 -0.666992 -76.667 -3.33398 -138 -8.00098c-65.333 -9.33301 -136.666 -27 -213.999 -53c-10.667 -3.33301 -26.334 -8.66602 -47.001 -15.999c-2 -0.666992 -12.667 -6.33398 -32 -17.001c-4.66699 -0.666992 -8 -1 -10 -1
c-11.333 0.666992 -17 4.33398 -17 11.001c0 36 15.333 61.667 46 77c22 11.333 80 30.333 174 57c67.333 19.333 135.666 32.666 204.999 39.999c39.333 4 84 6 134 6h39c2 0 6 0.333008 12 1h12c52 0 78 -8 78 -24v-5zM554.002 600
c-8 -30.667 -13.334 -53.667 -16.001 -69c-2.66699 -8 -6 -19.333 -10 -34l-28 -110c-25.333 -100 -44.333 -170.333 -57 -211c-22.667 -77.333 -47.667 -146 -75 -206c-45.333 -99.333 -130 -149 -254 -149c-34.667 0 -61.667 2 -81 6c-22 5.33301 -33 15.333 -33 30
c0 2.66699 1.33301 9.66699 4 21s5 18 7 20c8.66699 2 15.334 2.66699 20.001 2c11.333 -5.33301 27.666 -8 48.999 -8c71.333 0 128 33.333 170 100c30 49.333 55.333 105.666 76 168.999c6.66699 20.667 23.334 80.334 50.001 179.001c13.333 50.667 35 125.667 65 225z
" />
    <glyph glyph-name="afii10021" unicode="&#x414;" horiz-adv-x="815" 
d="M166 -20c-16.667 0 -54.999 1.33008 -114.999 3.99707c-11.333 0.666992 -28.333 2.33398 -51 5.00098c7.33301 22.667 17.666 48 30.999 76c5.33301 4 17 6 35 6c2 0 5.33301 -0.333008 10 -1s8.33398 -1 11.001 -1c12 0 22.667 1 32 3l141 521l115 12l-138 -521
c61.333 0 118.333 9.33301 171 28c73.333 26 137.666 66 192.999 120c64 62.667 96 128.334 96 197.001c0 55.333 -23.167 103 -69.5 143s-112.5 60 -198.5 60c-120.667 0 -229 -14 -325 -42c-12 -4.66699 -31 -10 -57 -16h-20h-4l-5 2c-0.666992 2.66699 -1 6 -1 10
c0 2.66699 4.33301 16 13 40c13.333 41.333 122 71.333 326 90c34.667 3.33301 71.334 5 110.001 5c84 0 153.333 -17.333 208 -52c75.333 -47.333 120.333 -104.333 135 -171c4 -18.667 6 -33.667 6 -45c0 -17.333 -3 -44.666 -9 -81.999
c-15.333 -92.667 -84 -182 -206 -268c-116.667 -82 -261.334 -123 -434.001 -123z" />
    <glyph glyph-name="afii10022" unicode="&#x415;" horiz-adv-x="734" 
d="M735 701c0 -6 -3.17578 -17.168 -9.50879 -33.501s-11.166 -24.5 -14.499 -24.5c-43.333 -0.666992 -108.333 -4.66699 -195 -12c-61.333 -8.66699 -114.666 -24 -159.999 -46c-78 -37.333 -117 -78 -117 -122c0 -28.667 15 -49.667 45 -63
c22.667 -10 50.334 -15 83.001 -15c3.33301 0 8.33301 -0.333008 15 -1s11.667 -1 15 -1h77c3.33301 0 9 0.666992 17 2c60.667 10 93.334 15 98.001 15c14.667 0 22 -5.66699 22 -17l-2 -10c-3.33301 -11.333 -6.33301 -23 -9 -35c-5.33301 -16 -11.666 -25 -18.999 -27
c-11.333 -3.33301 -25.666 -5 -42.999 -5h-44c-24 -1.33301 -50.333 -3.66602 -79 -6.99902c-79.333 -10 -139.333 -25 -180 -45c-58 -30 -87 -62.333 -87 -97l2 -17c2 -4 5.33301 -10.333 10 -19c6 -11.333 20.333 -22.333 43 -33c20 -10 60.333 -15 121 -15
c-1.33301 0 13.334 1.66699 44.001 5c62.667 6.66699 121.334 19 176.001 37c17.333 5.33301 44.333 16.333 81 33c4.66699 2.66699 12 6 22 10l13 2c5.33301 -3.33301 8 -10 8 -20c0 -3.33301 -1.33301 -8.83301 -4 -16.5s-5.66699 -14.5 -9 -20.5
c-10 -20 -35.667 -38.667 -77 -56s-77.666 -29.666 -108.999 -36.999c-18.667 -4.66699 -58.334 -12.334 -119.001 -23.001c-23.333 -4 -48.333 -6 -75 -6c-66 0 -117.333 10.667 -154 32s-62.667 45.666 -78 72.999c-4 6.66699 -8.66699 17 -14 31l-4 29
c-2 16 2.33301 36 13 60c2.66699 6.66699 8.66699 16.334 18 29.001c36 49.333 100 81 192 95c-8 1.33301 -20 6 -36 14c-58.667 29.333 -88 70 -88 122c0 58.667 37.667 114 113 166c86.667 59.333 225.334 89 416.001 89c54.667 0 82 -6.66699 82 -20z" />
    <glyph glyph-name="afii10024" unicode="&#x416;" horiz-adv-x="1147" 
d="M1147 630c-58 -62.667 -132.335 -131.667 -223.002 -207c-38.667 -32 -69 -55.667 -91 -71l-84 -58c27.333 -37.333 63.333 -77.666 108 -120.999c60.667 -59.333 106 -89 136 -89c40.667 0 86 18 136 54v-47c0 -6.66699 -4.33301 -17.667 -13 -33
c-10.667 -18.667 -31 -36.167 -61 -52.5s-55.667 -24.5 -77 -24.5c-11.333 0 -30.333 4.33301 -57 13c-29.333 9.33301 -61 31.666 -95 66.999l-99 103c-18.667 20 -47.667 49.333 -87 88l-49 -252h-115l48 247c-82.667 -73.333 -142 -124.666 -178 -153.999
c-95.333 -74.667 -161.666 -112 -198.999 -112c-26.667 0 -58.667 10.667 -96 32c-34 19.333 -51 37.666 -51 54.999c0 7.33301 3.33301 15.833 10 25.5s13.334 14.5 20.001 14.5c2.66699 -0.666992 6 -1.33398 10 -2.00098c5.33301 -3.33301 13.333 -7.66602 24 -12.999
c15.333 -5.33301 36 -8 62 -8c28 0 59.667 14 95 42c6.66699 5.33301 27 23 61 53l98 88l52 48c-118.667 139.333 -209 254.666 -271 345.999l95 58l67 -81c24 -28.667 68.333 -89.667 133 -183c18 -26 46 -64 84 -114l62 324h115l-73 -350h8
c32.667 34.667 80.667 80.667 144 138c60.667 54.667 149 143.334 265 266.001z" />
    <glyph glyph-name="afii10025" unicode="&#x417;" horiz-adv-x="729" 
d="M692 555c0 -0.666992 -1.33105 -11.665 -3.99805 -32.998c-5.33301 -44.667 -36 -83 -92 -115c-30.667 -17.333 -74.667 -28.333 -132 -33v-9h14c51.333 0 93.333 -9.33301 126 -28c40.667 -23.333 61 -58.666 61 -105.999v-15
c-1.33301 -6.66699 -2.66602 -12.667 -3.99902 -18l-9 -33c-12 -42.667 -50.333 -84.667 -115 -126c-59.333 -38.667 -142 -58 -248 -58c-40.667 0 -86 6 -136 18c-52.667 13.333 -95.334 29.666 -128.001 48.999l46 61c67.333 -28.667 138 -43 212 -43c34 0 63.667 2 89 6
c35.333 6 68 18.333 98 37c35.333 21.333 58.666 46.666 69.999 75.999c4.66699 12 7 22 7 30c0 19.333 -7.33301 38 -22 56c-13.333 16 -29.666 28.333 -48.999 37s-43 13 -71 13h-28c-3.33301 0 -26.666 -2.33301 -69.999 -7c-38 -4 -67.667 -6 -89 -6
c-22 0 -33 7.66699 -33 23c0 9.33301 3.66699 22.166 11 38.499s14.666 25.5 21.999 27.5c3.33301 0.666992 19.5 1.5 48.5 2.5s54.833 3.16699 77.5 6.5c86 12.667 150 38.334 192 77.001c15.333 14 25.333 26.333 30 37c5.33301 14.667 8 25.667 8 33
c0 20 -16.333 38.333 -49 55s-77.334 25 -134.001 25s-109.334 -9.16699 -158.001 -27.5s-79 -27.5 -91 -27.5c-10.667 0 -16 5.66699 -16 17c0 -0.666992 3 10.333 9 33c8 29.333 61.333 53.333 160 72c73.333 14 136 21 188 21c50.667 0 97 -14.667 139 -44
c46.667 -32.667 70 -73.334 70 -122.001z" />
    <glyph glyph-name="afii10026" unicode="&#x418;" horiz-adv-x="801" 
d="M801 650l-135.002 -472c-8 -28 -12 -54.333 -12 -79c0 -20 11 -30 33 -30c15.333 0 31.666 5 48.999 15l63 37l1 -55c0.666992 -23.333 -22.333 -44 -69 -62c-38 -15.333 -69.333 -23 -94 -23c-35.333 0 -59.666 10.833 -72.999 32.5s-20 47.167 -20 76.5
c0 19.333 10 64.666 30 135.999c12.667 45.333 27.334 87.666 44.001 126.999h-10c-3.33301 -4.66699 -8 -12 -14 -22l-52 -83c-54 -81.333 -110.333 -147.666 -169 -198.999c-51.333 -45.333 -106.333 -68 -165 -68c-36 0 -66 11.333 -90 34s-36 51.667 -36 87
c0 31.333 8.33301 70 25 116l44 113l48 130c10 27.333 15 51.333 15 72c0 26.667 -10.667 48.834 -32 66.501s-45.666 26.5 -72.999 26.5c-4.66699 0 -11.167 -0.666992 -19.5 -2s-14.833 -2 -19.5 -2c-6 0 -10.167 0.833008 -12.5 2.5s-4.83301 4.5 -7.5 8.5v5
c0 2.66699 3 14.334 9 35.001c5.33301 18 22.333 27 51 27c68.667 0 120.334 -16.333 155.001 -49c38.667 -37.333 58 -78.666 58 -123.999c0 -32 -15.667 -91 -47 -177l-66 -166c-6.66699 -16.667 -10 -32.334 -10 -47.001c0 -33.333 16.333 -50 49 -50
c52 0 120.667 53 206 159c53.333 66.667 101.333 137 144 211c25.333 43.333 53.666 107.666 84.999 192.999h117z" />
    <glyph glyph-name="afii10027" unicode="&#x419;" horiz-adv-x="801" 
d="M626 773c-60 -41.333 -107.001 -71.335 -141.001 -90.002c-28 -15.333 -50.333 -23 -67 -23c-18 0 -43.833 14.5 -77.5 43.5s-52.5 52.167 -56.5 69.5c1.33301 9.33301 7.83301 21 19.5 35s21.834 21 30.501 21c4.66699 0 10.334 -3 17.001 -9
c20 -17.333 42.667 -32.333 68 -45l23 -7c9.33301 0 21 2.66699 35 8c39.333 14.667 70.666 27.334 93.999 38.001c7.33301 4.66699 19 11.334 35 20.001c5.33301 3.33301 14 7 26 11l7 -4l4 -10v-2c0 -2 -5.66699 -20.667 -17 -56zM800.999 649.998l-135.002 -472
c-8 -28 -12 -54.333 -12 -79c0 -20 11 -30 33 -30c15.333 0 31.666 5 48.999 15l63 37l1 -55c0.666992 -23.333 -22.333 -44 -69 -62c-38 -15.333 -69.333 -23 -94 -23c-35.333 0 -59.666 10.833 -72.999 32.5s-20 47.167 -20 76.5c0 19.333 10 64.666 30 135.999
c12.667 45.333 27.334 87.666 44.001 126.999h-10c-3.33301 -4.66699 -8 -12 -14 -22l-52 -83c-54 -81.333 -110.333 -147.666 -169 -198.999c-51.333 -45.333 -106.333 -68 -165 -68c-36 0 -66 11.333 -90 34s-36 51.667 -36 87c0 31.333 8.33301 70 25 116l44 113l48 130
c10 27.333 15 51.333 15 72c0 26.667 -10.667 48.834 -32 66.501s-45.666 26.5 -72.999 26.5c-4.66699 0 -11.167 -0.666992 -19.5 -2s-14.833 -2 -19.5 -2c-6 0 -10.167 0.833008 -12.5 2.5s-4.83301 4.5 -7.5 8.5v5c0 2.66699 3 14.334 9 35.001
c5.33301 18 22.333 27 51 27c68.667 0 120.334 -16.333 155.001 -49c38.667 -37.333 58 -78.666 58 -123.999c0 -32 -15.667 -91 -47 -177l-66 -166c-6.66699 -16.667 -10 -32.334 -10 -47.001c0 -33.333 16.333 -50 49 -50c52 0 120.667 53 206 159
c53.333 66.667 101.333 137 144 211c25.333 43.333 53.666 107.666 84.999 192.999h117z" />
    <glyph glyph-name="afii10028" unicode="&#x41a;" horiz-adv-x="723" 
d="M723 624c-34 -42 -77.667 -87.499 -131 -136.499s-102.333 -88.5 -147 -118.5l-112 -75l174 -160c33.333 -30.667 61.333 -46 84 -46c18.667 0 37 5 55 15l74 41v-66c0 -17.333 -18.667 -36.333 -56 -57c-25.333 -14.667 -50.333 -25.667 -75 -33
c-2.66699 -0.666992 -13.334 -3 -32.001 -7c-30 0 -63.667 14.333 -101 43c-17.333 13.333 -45 38.666 -83 75.999l-58 58c-11.333 11.333 -23.666 23 -36.999 35c-0.666992 1.33301 -26.667 25.333 -78 72l-59 -265h-116l154 676h116l-81 -354
c58.667 26.667 136.667 82.667 234 168s163 155.333 197 210z" />
    </font>
</defs>
</svg>
